{
	"patcher" : 	{
		"fileversion" : 1,
		"appversion" : 		{
			"major" : 8,
			"minor" : 6,
			"revision" : 2,
			"architecture" : "x64",
			"modernui" : 1
		}
,
		"classnamespace" : "box",
		"rect" : [ 1726.0, 19.0, 1144.0, 602.0 ],
		"bglocked" : 0,
		"openinpresentation" : 0,
		"default_fontsize" : 13.0,
		"default_fontface" : 0,
		"default_fontname" : "Arial",
		"gridonopen" : 1,
		"gridsize" : [ 15.0, 15.0 ],
		"gridsnaponopen" : 1,
		"objectsnaponopen" : 1,
		"statusbarvisible" : 2,
		"toolbarvisible" : 1,
		"lefttoolbarpinned" : 0,
		"toptoolbarpinned" : 0,
		"righttoolbarpinned" : 0,
		"bottomtoolbarpinned" : 0,
		"toolbars_unpinned_last_save" : 0,
		"tallnewobj" : 0,
		"boxanimatetime" : 200,
		"enablehscroll" : 1,
		"enablevscroll" : 1,
		"devicewidth" : 0.0,
		"description" : "",
		"digest" : "",
		"tags" : "",
		"style" : "DB_template",
		"subpatcher_template" : "DB-Nov18a_template",
		"assistshowspatchername" : 0,
		"boxes" : [ 			{
				"box" : 				{
					"bgcolor" : [ 0.556862745098039, 0.796078431372549, 0.541176470588235, 1.0 ],
					"bgcolor2" : [ 0.196078431372549, 0.870588235294118, 0.290196078431373, 1.0 ],
					"bgfillcolor_angle" : 270.0,
					"bgfillcolor_autogradient" : 0.0,
					"bgfillcolor_color" : [ 0.556862745098039, 0.796078431372549, 0.541176470588235, 1.0 ],
					"bgfillcolor_color1" : [ 0.556862745098039, 0.796078431372549, 0.541176470588235, 1.0 ],
					"bgfillcolor_color2" : [ 0.196078431372549, 0.870588235294118, 0.290196078431373, 1.0 ],
					"bgfillcolor_proportion" : 0.39,
					"bgfillcolor_type" : "gradient",
					"fontname" : "Arial",
					"fontsize" : 11.0,
					"gradient" : 1,
					"id" : "obj-126",
					"maxclass" : "message",
					"numinlets" : 2,
					"numoutlets" : 1,
					"outlettype" : [ "" ],
					"patching_rect" : [ 273.0, 160.0, 29.5, 21.0 ],
					"text" : "1",
					"textcolor" : [ 0.0, 0.0, 0.0, 1.0 ]
				}

			}
, 			{
				"box" : 				{
					"bgcolor" : [ 0.556862745098039, 0.796078431372549, 0.541176470588235, 1.0 ],
					"bgcolor2" : [ 0.196078431372549, 0.870588235294118, 0.290196078431373, 1.0 ],
					"bgfillcolor_angle" : 270.0,
					"bgfillcolor_autogradient" : 0.0,
					"bgfillcolor_color" : [ 0.556862745098039, 0.796078431372549, 0.541176470588235, 1.0 ],
					"bgfillcolor_color1" : [ 0.556862745098039, 0.796078431372549, 0.541176470588235, 1.0 ],
					"bgfillcolor_color2" : [ 0.196078431372549, 0.870588235294118, 0.290196078431373, 1.0 ],
					"bgfillcolor_proportion" : 0.39,
					"bgfillcolor_type" : "gradient",
					"fontname" : "Arial",
					"fontsize" : 9.0,
					"gradient" : 1,
					"id" : "obj-103",
					"maxclass" : "message",
					"numinlets" : 2,
					"numoutlets" : 1,
					"outlettype" : [ "" ],
					"patching_rect" : [ 234.0, 429.0, 29.5, 19.0 ],
					"text" : "0",
					"textcolor" : [ 0.0, 0.0, 0.0, 1.0 ]
				}

			}
, 			{
				"box" : 				{
					"bgcolor" : [ 0.556862745098039, 0.796078431372549, 0.541176470588235, 1.0 ],
					"bgcolor2" : [ 0.196078431372549, 0.870588235294118, 0.290196078431373, 1.0 ],
					"bgfillcolor_angle" : 270.0,
					"bgfillcolor_autogradient" : 0.0,
					"bgfillcolor_color" : [ 0.556862745098039, 0.796078431372549, 0.541176470588235, 1.0 ],
					"bgfillcolor_color1" : [ 0.556862745098039, 0.796078431372549, 0.541176470588235, 1.0 ],
					"bgfillcolor_color2" : [ 0.196078431372549, 0.870588235294118, 0.290196078431373, 1.0 ],
					"bgfillcolor_proportion" : 0.39,
					"bgfillcolor_type" : "gradient",
					"fontname" : "Arial",
					"fontsize" : 9.0,
					"gradient" : 1,
					"id" : "obj-104",
					"maxclass" : "message",
					"numinlets" : 2,
					"numoutlets" : 1,
					"outlettype" : [ "" ],
					"patching_rect" : [ 128.0, 429.0, 29.5, 19.0 ],
					"text" : "0",
					"textcolor" : [ 0.0, 0.0, 0.0, 1.0 ]
				}

			}
, 			{
				"box" : 				{
					"bgcolor" : [ 0.556862745098039, 0.796078431372549, 0.541176470588235, 1.0 ],
					"bgcolor2" : [ 0.196078431372549, 0.870588235294118, 0.290196078431373, 1.0 ],
					"bgfillcolor_angle" : 270.0,
					"bgfillcolor_autogradient" : 0.0,
					"bgfillcolor_color" : [ 0.556862745098039, 0.796078431372549, 0.541176470588235, 1.0 ],
					"bgfillcolor_color1" : [ 0.556862745098039, 0.796078431372549, 0.541176470588235, 1.0 ],
					"bgfillcolor_color2" : [ 0.196078431372549, 0.870588235294118, 0.290196078431373, 1.0 ],
					"bgfillcolor_proportion" : 0.39,
					"bgfillcolor_type" : "gradient",
					"fontname" : "Arial",
					"fontsize" : 9.0,
					"gradient" : 1,
					"id" : "obj-105",
					"maxclass" : "message",
					"numinlets" : 2,
					"numoutlets" : 1,
					"outlettype" : [ "" ],
					"patching_rect" : [ 364.0, 429.0, 29.5, 19.0 ],
					"text" : "0",
					"textcolor" : [ 0.0, 0.0, 0.0, 1.0 ]
				}

			}
, 			{
				"box" : 				{
					"color" : [ 0.439216, 0.74902, 0.254902, 1.0 ],
					"fontsize" : 11.0,
					"id" : "obj-107",
					"maxclass" : "newobj",
					"numinlets" : 3,
					"numoutlets" : 3,
					"outlettype" : [ "bang", "bang", "" ],
					"patching_rect" : [ 358.0, 332.0, 41.0, 21.0 ],
					"text" : "sel 6 0"
				}

			}
, 			{
				"box" : 				{
					"bgcolor" : [ 0.650566, 0.801331, 1.0, 1.0 ],
					"color" : [ 0.0, 0.0, 0.0, 1.0 ],
					"id" : "obj-109",
					"int" : 1,
					"maxclass" : "gswitch2",
					"numinlets" : 2,
					"numoutlets" : 2,
					"outlettype" : [ "", "" ],
					"parameter_enable" : 0,
					"patching_rect" : [ 350.0, 302.0, 27.5, 20.0 ],
					"style" : "DB-FAVE-11-17a",
					"switchcolor" : [ 0.0, 0.0, 0.0, 1.0 ]
				}

			}
, 			{
				"box" : 				{
					"color" : [ 0.439216, 0.74902, 0.254902, 1.0 ],
					"fontsize" : 11.0,
					"id" : "obj-110",
					"maxclass" : "newobj",
					"numinlets" : 3,
					"numoutlets" : 3,
					"outlettype" : [ "bang", "bang", "" ],
					"patching_rect" : [ 244.0, 332.0, 41.0, 21.0 ],
					"text" : "sel 5 0"
				}

			}
, 			{
				"box" : 				{
					"bgcolor" : [ 0.650566, 0.801331, 1.0, 1.0 ],
					"color" : [ 0.0, 0.0, 0.0, 1.0 ],
					"id" : "obj-111",
					"int" : 1,
					"maxclass" : "gswitch2",
					"numinlets" : 2,
					"numoutlets" : 2,
					"outlettype" : [ "", "" ],
					"parameter_enable" : 0,
					"patching_rect" : [ 235.0, 302.0, 27.5, 20.0 ],
					"style" : "DB-FAVE-11-17a",
					"switchcolor" : [ 0.0, 0.0, 0.0, 1.0 ]
				}

			}
, 			{
				"box" : 				{
					"color" : [ 0.439216, 0.74902, 0.254902, 1.0 ],
					"fontsize" : 11.0,
					"id" : "obj-112",
					"maxclass" : "newobj",
					"numinlets" : 3,
					"numoutlets" : 3,
					"outlettype" : [ "bang", "bang", "" ],
					"patching_rect" : [ 127.0, 332.0, 41.0, 21.0 ],
					"text" : "sel 4 0"
				}

			}
, 			{
				"box" : 				{
					"bgcolor" : [ 0.650566, 0.801331, 1.0, 1.0 ],
					"color" : [ 0.0, 0.0, 0.0, 1.0 ],
					"id" : "obj-113",
					"int" : 1,
					"maxclass" : "gswitch2",
					"numinlets" : 2,
					"numoutlets" : 2,
					"outlettype" : [ "", "" ],
					"parameter_enable" : 0,
					"patching_rect" : [ 119.0, 302.0, 27.5, 20.0 ],
					"style" : "DB-FAVE-11-17a",
					"switchcolor" : [ 0.0, 0.0, 0.0, 1.0 ]
				}

			}
, 			{
				"box" : 				{
					"bgcolor" : [ 0.556862745098039, 0.796078431372549, 0.541176470588235, 1.0 ],
					"bgcolor2" : [ 0.196078431372549, 0.870588235294118, 0.290196078431373, 1.0 ],
					"bgfillcolor_angle" : 270.0,
					"bgfillcolor_autogradient" : 0.0,
					"bgfillcolor_color" : [ 0.556862745098039, 0.796078431372549, 0.541176470588235, 1.0 ],
					"bgfillcolor_color1" : [ 0.556862745098039, 0.796078431372549, 0.541176470588235, 1.0 ],
					"bgfillcolor_color2" : [ 0.196078431372549, 0.870588235294118, 0.290196078431373, 1.0 ],
					"bgfillcolor_proportion" : 0.39,
					"bgfillcolor_type" : "gradient",
					"fontname" : "Arial",
					"fontsize" : 9.0,
					"gradient" : 1,
					"id" : "obj-114",
					"maxclass" : "message",
					"numinlets" : 2,
					"numoutlets" : 1,
					"outlettype" : [ "" ],
					"patching_rect" : [ 400.0, 429.0, 29.5, 19.0 ],
					"text" : "0",
					"textcolor" : [ 0.0, 0.0, 0.0, 1.0 ]
				}

			}
, 			{
				"box" : 				{
					"bgcolor" : [ 0.556862745098039, 0.796078431372549, 0.541176470588235, 1.0 ],
					"bgcolor2" : [ 0.196078431372549, 0.870588235294118, 0.290196078431373, 1.0 ],
					"bgfillcolor_angle" : 270.0,
					"bgfillcolor_autogradient" : 0.0,
					"bgfillcolor_color" : [ 0.556862745098039, 0.796078431372549, 0.541176470588235, 1.0 ],
					"bgfillcolor_color1" : [ 0.556862745098039, 0.796078431372549, 0.541176470588235, 1.0 ],
					"bgfillcolor_color2" : [ 0.196078431372549, 0.870588235294118, 0.290196078431373, 1.0 ],
					"bgfillcolor_proportion" : 0.39,
					"bgfillcolor_type" : "gradient",
					"fontname" : "Arial",
					"fontsize" : 9.0,
					"gradient" : 1,
					"id" : "obj-115",
					"maxclass" : "message",
					"numinlets" : 2,
					"numoutlets" : 1,
					"outlettype" : [ "" ],
					"patching_rect" : [ 273.0, 429.0, 29.5, 19.0 ],
					"text" : "0",
					"textcolor" : [ 0.0, 0.0, 0.0, 1.0 ]
				}

			}
, 			{
				"box" : 				{
					"bgcolor" : [ 0.556862745098039, 0.796078431372549, 0.541176470588235, 1.0 ],
					"bgcolor2" : [ 0.196078431372549, 0.870588235294118, 0.290196078431373, 1.0 ],
					"bgfillcolor_angle" : 270.0,
					"bgfillcolor_autogradient" : 0.0,
					"bgfillcolor_color" : [ 0.556862745098039, 0.796078431372549, 0.541176470588235, 1.0 ],
					"bgfillcolor_color1" : [ 0.556862745098039, 0.796078431372549, 0.541176470588235, 1.0 ],
					"bgfillcolor_color2" : [ 0.196078431372549, 0.870588235294118, 0.290196078431373, 1.0 ],
					"bgfillcolor_proportion" : 0.39,
					"bgfillcolor_type" : "gradient",
					"fontname" : "Arial",
					"fontsize" : 9.0,
					"gradient" : 1,
					"id" : "obj-116",
					"maxclass" : "message",
					"numinlets" : 2,
					"numoutlets" : 1,
					"outlettype" : [ "" ],
					"patching_rect" : [ 164.0, 429.0, 29.5, 19.0 ],
					"text" : "0",
					"textcolor" : [ 0.0, 0.0, 0.0, 1.0 ]
				}

			}
, 			{
				"box" : 				{
					"id" : "obj-117",
					"maxclass" : "live.dial",
					"numinlets" : 1,
					"numoutlets" : 2,
					"outlettype" : [ "", "float" ],
					"parameter_enable" : 1,
					"patching_rect" : [ 220.0, 482.0, 27.0, 37.0 ],
					"saved_attribute_attributes" : 					{
						"valueof" : 						{
							"parameter_longname" : "live.dial[69]",
							"parameter_mmax" : 24.0,
							"parameter_modmode" : 4,
							"parameter_shortname" : "live.dial",
							"parameter_type" : 1,
							"parameter_unitstyle" : 0
						}

					}
,
					"showname" : 0,
					"varname" : "live.dial[6]"
				}

			}
, 			{
				"box" : 				{
					"id" : "obj-118",
					"maxclass" : "live.dial",
					"numinlets" : 1,
					"numoutlets" : 2,
					"outlettype" : [ "", "float" ],
					"parameter_enable" : 1,
					"patching_rect" : [ 327.0, 488.0, 27.0, 37.0 ],
					"saved_attribute_attributes" : 					{
						"valueof" : 						{
							"parameter_longname" : "live.dial[70]",
							"parameter_mmax" : 24.0,
							"parameter_modmode" : 4,
							"parameter_shortname" : "live.dial",
							"parameter_type" : 1,
							"parameter_unitstyle" : 0
						}

					}
,
					"showname" : 0,
					"varname" : "live.dial[7]"
				}

			}
, 			{
				"box" : 				{
					"id" : "obj-119",
					"maxclass" : "live.dial",
					"numinlets" : 1,
					"numoutlets" : 2,
					"outlettype" : [ "", "float" ],
					"parameter_enable" : 1,
					"patching_rect" : [ 130.0, 482.0, 27.0, 37.0 ],
					"saved_attribute_attributes" : 					{
						"valueof" : 						{
							"parameter_longname" : "live.dial[71]",
							"parameter_mmax" : 24.0,
							"parameter_modmode" : 4,
							"parameter_shortname" : "live.dial",
							"parameter_type" : 1,
							"parameter_unitstyle" : 0
						}

					}
,
					"showname" : 0,
					"varname" : "live.dial[8]"
				}

			}
, 			{
				"box" : 				{
					"bgcolor" : [ 0.556862745098039, 0.796078431372549, 0.541176470588235, 1.0 ],
					"bgcolor2" : [ 0.196078431372549, 0.870588235294118, 0.290196078431373, 1.0 ],
					"bgfillcolor_angle" : 270.0,
					"bgfillcolor_autogradient" : 0.0,
					"bgfillcolor_color" : [ 0.556862745098039, 0.796078431372549, 0.541176470588235, 1.0 ],
					"bgfillcolor_color1" : [ 0.556862745098039, 0.796078431372549, 0.541176470588235, 1.0 ],
					"bgfillcolor_color2" : [ 0.196078431372549, 0.870588235294118, 0.290196078431373, 1.0 ],
					"bgfillcolor_proportion" : 0.39,
					"bgfillcolor_type" : "gradient",
					"fontname" : "Arial",
					"fontsize" : 9.0,
					"gradient" : 1,
					"id" : "obj-120",
					"maxclass" : "message",
					"numinlets" : 2,
					"numoutlets" : 1,
					"outlettype" : [ "" ],
					"patching_rect" : [ 330.0, 429.0, 29.5, 19.0 ],
					"text" : "2",
					"textcolor" : [ 0.0, 0.0, 0.0, 1.0 ]
				}

			}
, 			{
				"box" : 				{
					"bgcolor" : [ 0.556862745098039, 0.796078431372549, 0.541176470588235, 1.0 ],
					"bgcolor2" : [ 0.196078431372549, 0.870588235294118, 0.290196078431373, 1.0 ],
					"bgfillcolor_angle" : 270.0,
					"bgfillcolor_autogradient" : 0.0,
					"bgfillcolor_color" : [ 0.556862745098039, 0.796078431372549, 0.541176470588235, 1.0 ],
					"bgfillcolor_color1" : [ 0.556862745098039, 0.796078431372549, 0.541176470588235, 1.0 ],
					"bgfillcolor_color2" : [ 0.196078431372549, 0.870588235294118, 0.290196078431373, 1.0 ],
					"bgfillcolor_proportion" : 0.39,
					"bgfillcolor_type" : "gradient",
					"fontname" : "Arial",
					"fontsize" : 9.0,
					"gradient" : 1,
					"id" : "obj-121",
					"maxclass" : "message",
					"numinlets" : 2,
					"numoutlets" : 1,
					"outlettype" : [ "" ],
					"patching_rect" : [ 199.0, 429.0, 29.5, 19.0 ],
					"text" : "2",
					"textcolor" : [ 0.0, 0.0, 0.0, 1.0 ]
				}

			}
, 			{
				"box" : 				{
					"bgcolor" : [ 0.556862745098039, 0.796078431372549, 0.541176470588235, 1.0 ],
					"bgcolor2" : [ 0.196078431372549, 0.870588235294118, 0.290196078431373, 1.0 ],
					"bgfillcolor_angle" : 270.0,
					"bgfillcolor_autogradient" : 0.0,
					"bgfillcolor_color" : [ 0.556862745098039, 0.796078431372549, 0.541176470588235, 1.0 ],
					"bgfillcolor_color1" : [ 0.556862745098039, 0.796078431372549, 0.541176470588235, 1.0 ],
					"bgfillcolor_color2" : [ 0.196078431372549, 0.870588235294118, 0.290196078431373, 1.0 ],
					"bgfillcolor_proportion" : 0.39,
					"bgfillcolor_type" : "gradient",
					"fontname" : "Arial",
					"fontsize" : 9.0,
					"gradient" : 1,
					"id" : "obj-122",
					"maxclass" : "message",
					"numinlets" : 2,
					"numoutlets" : 1,
					"outlettype" : [ "" ],
					"patching_rect" : [ 93.0, 429.0, 29.5, 19.0 ],
					"text" : "2",
					"textcolor" : [ 0.0, 0.0, 0.0, 1.0 ]
				}

			}
, 			{
				"box" : 				{
					"color" : [ 0.439216, 0.74902, 0.254902, 1.0 ],
					"fontsize" : 9.0,
					"id" : "obj-123",
					"maxclass" : "newobj",
					"numinlets" : 2,
					"numoutlets" : 1,
					"outlettype" : [ "bang" ],
					"patching_rect" : [ 310.0, 399.0, 38.0, 19.0 ],
					"text" : "del 600"
				}

			}
, 			{
				"box" : 				{
					"color" : [ 0.439216, 0.74902, 0.254902, 1.0 ],
					"fontsize" : 9.0,
					"id" : "obj-124",
					"maxclass" : "newobj",
					"numinlets" : 2,
					"numoutlets" : 1,
					"outlettype" : [ "bang" ],
					"patching_rect" : [ 187.0, 394.0, 38.0, 19.0 ],
					"text" : "del 600"
				}

			}
, 			{
				"box" : 				{
					"color" : [ 0.439216, 0.74902, 0.254902, 1.0 ],
					"fontsize" : 9.0,
					"id" : "obj-125",
					"maxclass" : "newobj",
					"numinlets" : 2,
					"numoutlets" : 1,
					"outlettype" : [ "bang" ],
					"patching_rect" : [ 76.0, 394.0, 38.0, 19.0 ],
					"text" : "del 600"
				}

			}
, 			{
				"box" : 				{
					"bgcolor" : [ 1.0, 1.0, 1.0, 1.0 ],
					"bubbleside" : 3,
					"id" : "obj-102",
					"maxclass" : "comment",
					"numinlets" : 1,
					"numoutlets" : 0,
					"patching_rect" : [ 58.0, 530.0, 73.799987797872518, 21.0 ],
					"style" : "redness",
					"text" : "freeruns"
				}

			}
, 			{
				"box" : 				{
					"bgcolor" : [ 1.0, 1.0, 0.996078, 1.0 ],
					"color" : [ 1.0, 0.286275, 0.247059, 1.0 ],
					"fontname" : "Arial",
					"fontsize" : 11.0,
					"id" : "obj-101",
					"maxclass" : "newobj",
					"numinlets" : 1,
					"numoutlets" : 0,
					"patching_rect" : [ 294.0, 555.0, 84.0, 21.0 ],
					"presentation" : 1,
					"presentation_linecount" : 3,
					"presentation_rect" : [ 95.676994671798752, 659.0, 69.0, 45.0 ],
					"text" : "s bank4b-modu",
					"textcolor" : [ 0.0, 0.0, 0.0, 1.0 ]
				}

			}
, 			{
				"box" : 				{
					"bgcolor" : [ 1.0, 1.0, 0.996078, 1.0 ],
					"color" : [ 1.0, 0.286275, 0.247059, 1.0 ],
					"fontname" : "Arial",
					"fontsize" : 11.0,
					"id" : "obj-100",
					"maxclass" : "newobj",
					"numinlets" : 1,
					"numoutlets" : 0,
					"patching_rect" : [ 154.0, 555.0, 84.0, 21.0 ],
					"presentation" : 1,
					"presentation_linecount" : 3,
					"presentation_rect" : [ 80.676994671798752, 644.0, 69.0, 45.0 ],
					"text" : "s bank4a-modu",
					"textcolor" : [ 0.0, 0.0, 0.0, 1.0 ]
				}

			}
, 			{
				"box" : 				{
					"bgcolor" : [ 1.0, 1.0, 0.411765, 1.0 ],
					"color" : [ 0.501961, 0.4, 0.219608, 1.0 ],
					"fontname" : "Arial",
					"fontsize" : 10.0,
					"id" : "obj-49",
					"maxclass" : "newobj",
					"numinlets" : 0,
					"numoutlets" : 1,
					"outlettype" : [ "" ],
					"patching_rect" : [ 343.0, 209.0, 56.0, 20.0 ],
					"text" : "r early-hit6",
					"textcolor" : [ 0.0, 0.0, 0.0, 1.0 ]
				}

			}
, 			{
				"box" : 				{
					"bgcolor" : [ 1.0, 1.0, 0.411765, 1.0 ],
					"color" : [ 0.501961, 0.4, 0.219608, 1.0 ],
					"fontname" : "Arial",
					"fontsize" : 10.0,
					"id" : "obj-73",
					"maxclass" : "newobj",
					"numinlets" : 0,
					"numoutlets" : 1,
					"outlettype" : [ "" ],
					"patching_rect" : [ 233.0, 209.0, 56.0, 20.0 ],
					"text" : "r early-hit5",
					"textcolor" : [ 0.0, 0.0, 0.0, 1.0 ]
				}

			}
, 			{
				"box" : 				{
					"bgcolor" : [ 1.0, 1.0, 0.411765, 1.0 ],
					"color" : [ 0.501961, 0.4, 0.219608, 1.0 ],
					"fontname" : "Arial",
					"fontsize" : 10.0,
					"id" : "obj-79",
					"maxclass" : "newobj",
					"numinlets" : 0,
					"numoutlets" : 1,
					"outlettype" : [ "" ],
					"patching_rect" : [ 131.0, 209.0, 56.0, 20.0 ],
					"text" : "r early-hit4",
					"textcolor" : [ 0.0, 0.0, 0.0, 1.0 ]
				}

			}
, 			{
				"box" : 				{
					"bgcolor" : [ 0.742343, 0.880285, 1.0, 1.0 ],
					"fontsize" : 13.0,
					"htricolor" : [ 0.87, 0.82, 0.24, 1.0 ],
					"id" : "obj-85",
					"maxclass" : "number",
					"numinlets" : 1,
					"numoutlets" : 2,
					"outlettype" : [ "", "bang" ],
					"parameter_enable" : 0,
					"patching_rect" : [ 343.0, 259.0, 35.0, 23.0 ],
					"textcolor" : [ 0.0, 0.0, 0.0, 1.0 ],
					"triangle" : 0,
					"tricolor" : [ 0.75, 0.75, 0.75, 1.0 ]
				}

			}
, 			{
				"box" : 				{
					"bgcolor" : [ 0.742343, 0.880285, 1.0, 1.0 ],
					"fontsize" : 13.0,
					"htricolor" : [ 0.87, 0.82, 0.24, 1.0 ],
					"id" : "obj-95",
					"maxclass" : "number",
					"numinlets" : 1,
					"numoutlets" : 2,
					"outlettype" : [ "", "bang" ],
					"parameter_enable" : 0,
					"patching_rect" : [ 227.0, 267.0, 35.0, 23.0 ],
					"textcolor" : [ 0.0, 0.0, 0.0, 1.0 ],
					"triangle" : 0,
					"tricolor" : [ 0.75, 0.75, 0.75, 1.0 ]
				}

			}
, 			{
				"box" : 				{
					"bgcolor" : [ 0.742343, 0.880285, 1.0, 1.0 ],
					"fontsize" : 13.0,
					"htricolor" : [ 0.87, 0.82, 0.24, 1.0 ],
					"id" : "obj-96",
					"maxclass" : "number",
					"numinlets" : 1,
					"numoutlets" : 2,
					"outlettype" : [ "", "bang" ],
					"parameter_enable" : 0,
					"patching_rect" : [ 120.0, 263.0, 35.0, 23.0 ],
					"textcolor" : [ 0.0, 0.0, 0.0, 1.0 ],
					"triangle" : 0,
					"tricolor" : [ 0.75, 0.75, 0.75, 1.0 ]
				}

			}
, 			{
				"box" : 				{
					"bgcolor" : [ 0.817205, 0.805842, 0.828112, 1.0 ],
					"blinkcolor" : [ 0.92549, 0.364706, 0.341176, 1.0 ],
					"id" : "obj-97",
					"maxclass" : "button",
					"numinlets" : 1,
					"numoutlets" : 1,
					"outlettype" : [ "bang" ],
					"outlinecolor" : [ 0.784314, 0.145098, 0.023529, 1.0 ],
					"parameter_enable" : 0,
					"patching_rect" : [ 382.0, 242.0, 19.0, 19.0 ]
				}

			}
, 			{
				"box" : 				{
					"bgcolor" : [ 0.817205, 0.805842, 0.828112, 1.0 ],
					"blinkcolor" : [ 0.92549, 0.364706, 0.341176, 1.0 ],
					"id" : "obj-98",
					"maxclass" : "button",
					"numinlets" : 1,
					"numoutlets" : 1,
					"outlettype" : [ "bang" ],
					"outlinecolor" : [ 0.784314, 0.145098, 0.023529, 1.0 ],
					"parameter_enable" : 0,
					"patching_rect" : [ 266.0, 242.0, 19.0, 19.0 ]
				}

			}
, 			{
				"box" : 				{
					"bgcolor" : [ 0.817205, 0.805842, 0.828112, 1.0 ],
					"blinkcolor" : [ 0.92549, 0.364706, 0.341176, 1.0 ],
					"id" : "obj-99",
					"maxclass" : "button",
					"numinlets" : 1,
					"numoutlets" : 1,
					"outlettype" : [ "bang" ],
					"outlinecolor" : [ 0.784314, 0.145098, 0.023529, 1.0 ],
					"parameter_enable" : 0,
					"patching_rect" : [ 154.0, 242.0, 19.0, 19.0 ]
				}

			}
, 			{
				"box" : 				{
					"id" : "obj-47",
					"maxclass" : "comment",
					"numinlets" : 1,
					"numoutlets" : 0,
					"patching_rect" : [ 480.0, 547.0, 150.0, 21.0 ]
				}

			}
, 			{
				"box" : 				{
					"bgcolor" : [ 0.556862745098039, 0.796078431372549, 0.541176470588235, 1.0 ],
					"bgcolor2" : [ 0.196078431372549, 0.870588235294118, 0.290196078431373, 1.0 ],
					"bgfillcolor_angle" : 270.0,
					"bgfillcolor_autogradient" : 0.0,
					"bgfillcolor_color" : [ 0.556862745098039, 0.796078431372549, 0.541176470588235, 1.0 ],
					"bgfillcolor_color1" : [ 0.556862745098039, 0.796078431372549, 0.541176470588235, 1.0 ],
					"bgfillcolor_color2" : [ 0.196078431372549, 0.870588235294118, 0.290196078431373, 1.0 ],
					"bgfillcolor_proportion" : 0.39,
					"bgfillcolor_type" : "gradient",
					"fontname" : "Arial",
					"fontsize" : 9.0,
					"gradient" : 1,
					"id" : "obj-45",
					"maxclass" : "message",
					"numinlets" : 2,
					"numoutlets" : 1,
					"outlettype" : [ "" ],
					"patching_rect" : [ 872.0, 238.0, 29.5, 19.0 ],
					"text" : "7",
					"textcolor" : [ 0.0, 0.0, 0.0, 1.0 ]
				}

			}
, 			{
				"box" : 				{
					"bgcolor" : [ 0.556862745098039, 0.796078431372549, 0.541176470588235, 1.0 ],
					"bgcolor2" : [ 0.196078431372549, 0.870588235294118, 0.290196078431373, 1.0 ],
					"bgfillcolor_angle" : 270.0,
					"bgfillcolor_autogradient" : 0.0,
					"bgfillcolor_color" : [ 0.556862745098039, 0.796078431372549, 0.541176470588235, 1.0 ],
					"bgfillcolor_color1" : [ 0.556862745098039, 0.796078431372549, 0.541176470588235, 1.0 ],
					"bgfillcolor_color2" : [ 0.196078431372549, 0.870588235294118, 0.290196078431373, 1.0 ],
					"bgfillcolor_proportion" : 0.39,
					"bgfillcolor_type" : "gradient",
					"fontname" : "Arial",
					"fontsize" : 9.0,
					"gradient" : 1,
					"id" : "obj-44",
					"maxclass" : "message",
					"numinlets" : 2,
					"numoutlets" : 1,
					"outlettype" : [ "" ],
					"patching_rect" : [ 765.75, 238.0, 29.5, 19.0 ],
					"text" : "12",
					"textcolor" : [ 0.0, 0.0, 0.0, 1.0 ]
				}

			}
, 			{
				"box" : 				{
					"bgcolor" : [ 0.556862745098039, 0.796078431372549, 0.541176470588235, 1.0 ],
					"bgcolor2" : [ 0.196078431372549, 0.870588235294118, 0.290196078431373, 1.0 ],
					"bgfillcolor_angle" : 270.0,
					"bgfillcolor_autogradient" : 0.0,
					"bgfillcolor_color" : [ 0.556862745098039, 0.796078431372549, 0.541176470588235, 1.0 ],
					"bgfillcolor_color1" : [ 0.556862745098039, 0.796078431372549, 0.541176470588235, 1.0 ],
					"bgfillcolor_color2" : [ 0.196078431372549, 0.870588235294118, 0.290196078431373, 1.0 ],
					"bgfillcolor_proportion" : 0.39,
					"bgfillcolor_type" : "gradient",
					"fontname" : "Arial",
					"fontsize" : 9.0,
					"gradient" : 1,
					"id" : "obj-43",
					"maxclass" : "message",
					"numinlets" : 2,
					"numoutlets" : 1,
					"outlettype" : [ "" ],
					"patching_rect" : [ 1001.75, 238.0, 29.5, 19.0 ],
					"text" : "7",
					"textcolor" : [ 0.0, 0.0, 0.0, 1.0 ]
				}

			}
, 			{
				"box" : 				{
					"bgcolor" : [ 1.0, 1.0, 0.996078, 1.0 ],
					"color" : [ 1.0, 0.286275, 0.247059, 1.0 ],
					"fontname" : "Arial",
					"fontsize" : 11.0,
					"id" : "obj-21",
					"maxclass" : "newobj",
					"numinlets" : 1,
					"numoutlets" : 0,
					"patching_rect" : [ 965.0, 349.0, 83.0, 21.0 ],
					"presentation" : 1,
					"presentation_linecount" : 3,
					"presentation_rect" : [ 110.676994671798752, 674.0, 69.0, 45.0 ],
					"text" : "s DSynR-modu",
					"textcolor" : [ 0.0, 0.0, 0.0, 1.0 ]
				}

			}
, 			{
				"box" : 				{
					"bgcolor" : [ 1.0, 1.0, 0.996078, 1.0 ],
					"color" : [ 1.0, 0.286275, 0.247059, 1.0 ],
					"fontname" : "Arial",
					"fontsize" : 11.0,
					"id" : "obj-42",
					"maxclass" : "newobj",
					"numinlets" : 1,
					"numoutlets" : 0,
					"patching_rect" : [ 857.0, 377.600005626678467, 83.0, 21.0 ],
					"presentation" : 1,
					"presentation_linecount" : 3,
					"presentation_rect" : [ 95.676994671798752, 659.0, 69.0, 45.0 ],
					"text" : "s DSynC-modu",
					"textcolor" : [ 0.0, 0.0, 0.0, 1.0 ]
				}

			}
, 			{
				"box" : 				{
					"bgcolor" : [ 1.0, 1.0, 0.996078, 1.0 ],
					"color" : [ 1.0, 0.286275, 0.247059, 1.0 ],
					"fontname" : "Arial",
					"fontsize" : 11.0,
					"id" : "obj-53",
					"maxclass" : "newobj",
					"numinlets" : 1,
					"numoutlets" : 0,
					"patching_rect" : [ 767.0, 404.800006031990051, 81.0, 21.0 ],
					"presentation" : 1,
					"presentation_linecount" : 3,
					"presentation_rect" : [ 80.676994671798752, 644.0, 69.0, 45.0 ],
					"text" : "s DSynL-modu",
					"textcolor" : [ 0.0, 0.0, 0.0, 1.0 ]
				}

			}
, 			{
				"box" : 				{
					"bgcolor" : [ 1.0, 1.0, 0.996078, 1.0 ],
					"color" : [ 1.0, 0.286275, 0.247059, 1.0 ],
					"fontname" : "Arial",
					"fontsize" : 11.0,
					"id" : "obj-75",
					"maxclass" : "newobj",
					"numinlets" : 1,
					"numoutlets" : 0,
					"patching_rect" : [ 658.40000981092453, 421.066677987575531, 88.0, 21.0 ],
					"presentation" : 1,
					"presentation_linecount" : 3,
					"presentation_rect" : [ 95.676994671798752, 659.0, 69.0, 45.0 ],
					"text" : "s AnSynR-modu",
					"textcolor" : [ 0.0, 0.0, 0.0, 1.0 ]
				}

			}
, 			{
				"box" : 				{
					"bgcolor" : [ 1.0, 1.0, 0.996078, 1.0 ],
					"color" : [ 1.0, 0.286275, 0.247059, 1.0 ],
					"fontname" : "Arial",
					"fontsize" : 11.0,
					"id" : "obj-76",
					"maxclass" : "newobj",
					"numinlets" : 1,
					"numoutlets" : 0,
					"patching_rect" : [ 587.066672086715698, 447.466678380966187, 88.0, 21.0 ],
					"presentation" : 1,
					"presentation_linecount" : 3,
					"presentation_rect" : [ 80.676994671798752, 644.0, 69.0, 45.0 ],
					"text" : "s AnSynC-modu",
					"textcolor" : [ 0.0, 0.0, 0.0, 1.0 ]
				}

			}
, 			{
				"box" : 				{
					"bgcolor" : [ 1.0, 1.0, 0.996078, 1.0 ],
					"color" : [ 1.0, 0.286275, 0.247059, 1.0 ],
					"fontname" : "Arial",
					"fontsize" : 11.0,
					"id" : "obj-77",
					"maxclass" : "newobj",
					"numinlets" : 1,
					"numoutlets" : 0,
					"patching_rect" : [ 539.733337342739105, 474.666678786277771, 86.0, 21.0 ],
					"presentation" : 1,
					"presentation_linecount" : 3,
					"presentation_rect" : [ 65.676994671798752, 629.0, 69.0, 45.0 ],
					"text" : "s AnSynL-modu",
					"textcolor" : [ 0.0, 0.0, 0.0, 1.0 ]
				}

			}
, 			{
				"box" : 				{
					"bgcolor" : [ 1.0, 1.0, 1.0, 1.0 ],
					"bubbleside" : 3,
					"fontsize" : 18.0,
					"id" : "obj-20",
					"maxclass" : "comment",
					"numinlets" : 1,
					"numoutlets" : 0,
					"patching_rect" : [ 91.300007698468221, 12.5, 149.0, 27.0 ],
					"style" : "redness",
					"text" : "stage 2b = 8"
				}

			}
, 			{
				"box" : 				{
					"bgcolor" : [ 1.0, 1.0, 0.411765, 1.0 ],
					"color" : [ 0.501961, 0.4, 0.219608, 1.0 ],
					"fontname" : "Arial",
					"fontsize" : 10.0,
					"id" : "obj-92",
					"maxclass" : "newobj",
					"numinlets" : 0,
					"numoutlets" : 1,
					"outlettype" : [ "" ],
					"patching_rect" : [ 966.75, 6.0, 56.0, 20.0 ],
					"text" : "r early-hit6",
					"textcolor" : [ 0.0, 0.0, 0.0, 1.0 ]
				}

			}
, 			{
				"box" : 				{
					"bgcolor" : [ 1.0, 1.0, 0.411765, 1.0 ],
					"color" : [ 0.501961, 0.4, 0.219608, 1.0 ],
					"fontname" : "Arial",
					"fontsize" : 10.0,
					"id" : "obj-93",
					"maxclass" : "newobj",
					"numinlets" : 0,
					"numoutlets" : 1,
					"outlettype" : [ "" ],
					"patching_rect" : [ 857.0, 6.0, 56.0, 20.0 ],
					"text" : "r early-hit5",
					"textcolor" : [ 0.0, 0.0, 0.0, 1.0 ]
				}

			}
, 			{
				"box" : 				{
					"bgcolor" : [ 1.0, 1.0, 0.411765, 1.0 ],
					"color" : [ 0.501961, 0.4, 0.219608, 1.0 ],
					"fontname" : "Arial",
					"fontsize" : 10.0,
					"id" : "obj-94",
					"maxclass" : "newobj",
					"numinlets" : 0,
					"numoutlets" : 1,
					"outlettype" : [ "" ],
					"patching_rect" : [ 755.0, 6.0, 56.0, 20.0 ],
					"text" : "r early-hit4",
					"textcolor" : [ 0.0, 0.0, 0.0, 1.0 ]
				}

			}
, 			{
				"box" : 				{
					"bgcolor" : [ 0.742343, 0.880285, 1.0, 1.0 ],
					"fontsize" : 13.0,
					"htricolor" : [ 0.87, 0.82, 0.24, 1.0 ],
					"id" : "obj-91",
					"maxclass" : "number",
					"numinlets" : 1,
					"numoutlets" : 2,
					"outlettype" : [ "", "bang" ],
					"parameter_enable" : 0,
					"patching_rect" : [ 966.75, 55.600004971027374, 35.0, 23.0 ],
					"textcolor" : [ 0.0, 0.0, 0.0, 1.0 ],
					"triangle" : 0,
					"tricolor" : [ 0.75, 0.75, 0.75, 1.0 ]
				}

			}
, 			{
				"box" : 				{
					"bgcolor" : [ 0.742343, 0.880285, 1.0, 1.0 ],
					"fontsize" : 13.0,
					"htricolor" : [ 0.87, 0.82, 0.24, 1.0 ],
					"id" : "obj-90",
					"maxclass" : "number",
					"numinlets" : 1,
					"numoutlets" : 2,
					"outlettype" : [ "", "bang" ],
					"parameter_enable" : 0,
					"patching_rect" : [ 851.0, 63.600004971027374, 35.0, 23.0 ],
					"textcolor" : [ 0.0, 0.0, 0.0, 1.0 ],
					"triangle" : 0,
					"tricolor" : [ 0.75, 0.75, 0.75, 1.0 ]
				}

			}
, 			{
				"box" : 				{
					"bgcolor" : [ 0.742343, 0.880285, 1.0, 1.0 ],
					"fontsize" : 13.0,
					"htricolor" : [ 0.87, 0.82, 0.24, 1.0 ],
					"id" : "obj-88",
					"maxclass" : "number",
					"numinlets" : 1,
					"numoutlets" : 2,
					"outlettype" : [ "", "bang" ],
					"parameter_enable" : 0,
					"patching_rect" : [ 744.0, 59.600004971027374, 35.0, 23.0 ],
					"textcolor" : [ 0.0, 0.0, 0.0, 1.0 ],
					"triangle" : 0,
					"tricolor" : [ 0.75, 0.75, 0.75, 1.0 ]
				}

			}
, 			{
				"box" : 				{
					"bgcolor" : [ 0.742343, 0.880285, 1.0, 1.0 ],
					"fontsize" : 13.0,
					"htricolor" : [ 0.87, 0.82, 0.24, 1.0 ],
					"id" : "obj-87",
					"maxclass" : "number",
					"numinlets" : 1,
					"numoutlets" : 2,
					"outlettype" : [ "", "bang" ],
					"parameter_enable" : 0,
					"patching_rect" : [ 658.40000981092453, 60.800000905990601, 35.0, 23.0 ],
					"textcolor" : [ 0.0, 0.0, 0.0, 1.0 ],
					"triangle" : 0,
					"tricolor" : [ 0.75, 0.75, 0.75, 1.0 ]
				}

			}
, 			{
				"box" : 				{
					"bgcolor" : [ 0.742343, 0.880285, 1.0, 1.0 ],
					"fontsize" : 13.0,
					"htricolor" : [ 0.87, 0.82, 0.24, 1.0 ],
					"id" : "obj-86",
					"maxclass" : "number",
					"numinlets" : 1,
					"numoutlets" : 2,
					"outlettype" : [ "", "bang" ],
					"parameter_enable" : 0,
					"patching_rect" : [ 599.200008928775787, 60.800000905990601, 35.0, 23.0 ],
					"textcolor" : [ 0.0, 0.0, 0.0, 1.0 ],
					"triangle" : 0,
					"tricolor" : [ 0.75, 0.75, 0.75, 1.0 ]
				}

			}
, 			{
				"box" : 				{
					"color" : [ 0.439216, 0.74902, 0.254902, 1.0 ],
					"fontsize" : 11.0,
					"id" : "obj-83",
					"maxclass" : "newobj",
					"numinlets" : 3,
					"numoutlets" : 3,
					"outlettype" : [ "bang", "bang", "" ],
					"patching_rect" : [ 996.0, 141.0, 41.0, 21.0 ],
					"text" : "sel 6 0"
				}

			}
, 			{
				"box" : 				{
					"bgcolor" : [ 0.650566, 0.801331, 1.0, 1.0 ],
					"color" : [ 0.0, 0.0, 0.0, 1.0 ],
					"id" : "obj-84",
					"maxclass" : "gswitch2",
					"numinlets" : 2,
					"numoutlets" : 2,
					"outlettype" : [ "", "" ],
					"parameter_enable" : 0,
					"patching_rect" : [ 987.5, 110.600004971027374, 27.5, 20.0 ],
					"style" : "DB-FAVE-11-17a",
					"switchcolor" : [ 0.0, 0.0, 0.0, 1.0 ]
				}

			}
, 			{
				"box" : 				{
					"color" : [ 0.439216, 0.74902, 0.254902, 1.0 ],
					"fontsize" : 11.0,
					"id" : "obj-81",
					"maxclass" : "newobj",
					"numinlets" : 3,
					"numoutlets" : 3,
					"outlettype" : [ "bang", "bang", "" ],
					"patching_rect" : [ 882.0, 140.600004971027374, 41.0, 21.0 ],
					"text" : "sel 5 0"
				}

			}
, 			{
				"box" : 				{
					"bgcolor" : [ 0.650566, 0.801331, 1.0, 1.0 ],
					"color" : [ 0.0, 0.0, 0.0, 1.0 ],
					"id" : "obj-82",
					"maxclass" : "gswitch2",
					"numinlets" : 2,
					"numoutlets" : 2,
					"outlettype" : [ "", "" ],
					"parameter_enable" : 0,
					"patching_rect" : [ 873.0, 110.600004971027374, 27.5, 20.0 ],
					"style" : "DB-FAVE-11-17a",
					"switchcolor" : [ 0.0, 0.0, 0.0, 1.0 ]
				}

			}
, 			{
				"box" : 				{
					"color" : [ 0.439216, 0.74902, 0.254902, 1.0 ],
					"fontsize" : 11.0,
					"id" : "obj-78",
					"maxclass" : "newobj",
					"numinlets" : 3,
					"numoutlets" : 3,
					"outlettype" : [ "bang", "bang", "" ],
					"patching_rect" : [ 765.0, 140.600004971027374, 41.0, 21.0 ],
					"text" : "sel 4 0"
				}

			}
, 			{
				"box" : 				{
					"bgcolor" : [ 0.650566, 0.801331, 1.0, 1.0 ],
					"color" : [ 0.0, 0.0, 0.0, 1.0 ],
					"id" : "obj-80",
					"maxclass" : "gswitch2",
					"numinlets" : 2,
					"numoutlets" : 2,
					"outlettype" : [ "", "" ],
					"parameter_enable" : 0,
					"patching_rect" : [ 757.0, 110.600004971027374, 27.5, 20.0 ],
					"style" : "DB-FAVE-11-17a",
					"switchcolor" : [ 0.0, 0.0, 0.0, 1.0 ]
				}

			}
, 			{
				"box" : 				{
					"color" : [ 0.439216, 0.74902, 0.254902, 1.0 ],
					"fontsize" : 11.0,
					"id" : "obj-72",
					"maxclass" : "newobj",
					"numinlets" : 3,
					"numoutlets" : 3,
					"outlettype" : [ "bang", "bang", "" ],
					"patching_rect" : [ 658.40000981092453, 140.800002098083496, 41.0, 21.0 ],
					"text" : "sel 3 0"
				}

			}
, 			{
				"box" : 				{
					"bgcolor" : [ 0.650566, 0.801331, 1.0, 1.0 ],
					"color" : [ 0.0, 0.0, 0.0, 1.0 ],
					"id" : "obj-74",
					"maxclass" : "gswitch2",
					"numinlets" : 2,
					"numoutlets" : 2,
					"outlettype" : [ "", "" ],
					"parameter_enable" : 0,
					"patching_rect" : [ 649.90000981092453, 111.200001657009125, 27.5, 20.0 ],
					"style" : "DB-FAVE-11-17a",
					"switchcolor" : [ 0.0, 0.0, 0.0, 1.0 ]
				}

			}
, 			{
				"box" : 				{
					"color" : [ 0.439216, 0.74902, 0.254902, 1.0 ],
					"fontsize" : 11.0,
					"id" : "obj-68",
					"maxclass" : "newobj",
					"numinlets" : 3,
					"numoutlets" : 3,
					"outlettype" : [ "bang", "bang", "" ],
					"patching_rect" : [ 588.800008773803711, 140.800002098083496, 41.0, 21.0 ],
					"text" : "sel 2 0"
				}

			}
, 			{
				"box" : 				{
					"bgcolor" : [ 0.650566, 0.801331, 1.0, 1.0 ],
					"color" : [ 0.0, 0.0, 0.0, 1.0 ],
					"id" : "obj-70",
					"maxclass" : "gswitch2",
					"numinlets" : 2,
					"numoutlets" : 2,
					"outlettype" : [ "", "" ],
					"parameter_enable" : 0,
					"patching_rect" : [ 581.60000866651535, 112.000001668930054, 27.5, 20.0 ],
					"style" : "DB-FAVE-11-17a",
					"switchcolor" : [ 0.0, 0.0, 0.0, 1.0 ]
				}

			}
, 			{
				"box" : 				{
					"bgcolor" : [ 0.556862745098039, 0.796078431372549, 0.541176470588235, 1.0 ],
					"bgcolor2" : [ 0.196078431372549, 0.870588235294118, 0.290196078431373, 1.0 ],
					"bgfillcolor_angle" : 270.0,
					"bgfillcolor_autogradient" : 0.0,
					"bgfillcolor_color" : [ 0.556862745098039, 0.796078431372549, 0.541176470588235, 1.0 ],
					"bgfillcolor_color1" : [ 0.556862745098039, 0.796078431372549, 0.541176470588235, 1.0 ],
					"bgfillcolor_color2" : [ 0.196078431372549, 0.870588235294118, 0.290196078431373, 1.0 ],
					"bgfillcolor_proportion" : 0.39,
					"bgfillcolor_type" : "gradient",
					"fontname" : "Arial",
					"fontsize" : 9.0,
					"gradient" : 1,
					"id" : "obj-67",
					"maxclass" : "message",
					"numinlets" : 2,
					"numoutlets" : 1,
					"outlettype" : [ "" ],
					"patching_rect" : [ 1038.0, 238.0, 29.5, 19.0 ],
					"text" : "7",
					"textcolor" : [ 0.0, 0.0, 0.0, 1.0 ]
				}

			}
, 			{
				"box" : 				{
					"bgcolor" : [ 0.556862745098039, 0.796078431372549, 0.541176470588235, 1.0 ],
					"bgcolor2" : [ 0.196078431372549, 0.870588235294118, 0.290196078431373, 1.0 ],
					"bgfillcolor_angle" : 270.0,
					"bgfillcolor_autogradient" : 0.0,
					"bgfillcolor_color" : [ 0.556862745098039, 0.796078431372549, 0.541176470588235, 1.0 ],
					"bgfillcolor_color1" : [ 0.556862745098039, 0.796078431372549, 0.541176470588235, 1.0 ],
					"bgfillcolor_color2" : [ 0.196078431372549, 0.870588235294118, 0.290196078431373, 1.0 ],
					"bgfillcolor_proportion" : 0.39,
					"bgfillcolor_type" : "gradient",
					"fontname" : "Arial",
					"fontsize" : 9.0,
					"gradient" : 1,
					"id" : "obj-66",
					"maxclass" : "message",
					"numinlets" : 2,
					"numoutlets" : 1,
					"outlettype" : [ "" ],
					"patching_rect" : [ 910.5, 238.0, 29.5, 19.0 ],
					"text" : "7",
					"textcolor" : [ 0.0, 0.0, 0.0, 1.0 ]
				}

			}
, 			{
				"box" : 				{
					"bgcolor" : [ 0.556862745098039, 0.796078431372549, 0.541176470588235, 1.0 ],
					"bgcolor2" : [ 0.196078431372549, 0.870588235294118, 0.290196078431373, 1.0 ],
					"bgfillcolor_angle" : 270.0,
					"bgfillcolor_autogradient" : 0.0,
					"bgfillcolor_color" : [ 0.556862745098039, 0.796078431372549, 0.541176470588235, 1.0 ],
					"bgfillcolor_color1" : [ 0.556862745098039, 0.796078431372549, 0.541176470588235, 1.0 ],
					"bgfillcolor_color2" : [ 0.196078431372549, 0.870588235294118, 0.290196078431373, 1.0 ],
					"bgfillcolor_proportion" : 0.39,
					"bgfillcolor_type" : "gradient",
					"fontname" : "Arial",
					"fontsize" : 9.0,
					"gradient" : 1,
					"id" : "obj-65",
					"maxclass" : "message",
					"numinlets" : 2,
					"numoutlets" : 1,
					"outlettype" : [ "" ],
					"patching_rect" : [ 802.0, 238.0, 29.5, 19.0 ],
					"text" : "12",
					"textcolor" : [ 0.0, 0.0, 0.0, 1.0 ]
				}

			}
, 			{
				"box" : 				{
					"id" : "obj-63",
					"maxclass" : "live.dial",
					"numinlets" : 1,
					"numoutlets" : 2,
					"outlettype" : [ "", "float" ],
					"parameter_enable" : 1,
					"patching_rect" : [ 857.0, 291.600004971027374, 27.0, 37.0 ],
					"saved_attribute_attributes" : 					{
						"valueof" : 						{
							"parameter_longname" : "live.dial[4]",
							"parameter_mmax" : 24.0,
							"parameter_modmode" : 4,
							"parameter_shortname" : "live.dial",
							"parameter_type" : 1,
							"parameter_unitstyle" : 0
						}

					}
,
					"showname" : 0,
					"varname" : "live.dial[4]"
				}

			}
, 			{
				"box" : 				{
					"id" : "obj-64",
					"maxclass" : "live.dial",
					"numinlets" : 1,
					"numoutlets" : 2,
					"outlettype" : [ "", "float" ],
					"parameter_enable" : 1,
					"patching_rect" : [ 965.0, 297.0, 27.0, 37.0 ],
					"saved_attribute_attributes" : 					{
						"valueof" : 						{
							"parameter_longname" : "live.dial[5]",
							"parameter_mmax" : 24.0,
							"parameter_modmode" : 4,
							"parameter_shortname" : "live.dial",
							"parameter_type" : 1,
							"parameter_unitstyle" : 0
						}

					}
,
					"showname" : 0,
					"varname" : "live.dial[5]"
				}

			}
, 			{
				"box" : 				{
					"id" : "obj-62",
					"maxclass" : "live.dial",
					"numinlets" : 1,
					"numoutlets" : 2,
					"outlettype" : [ "", "float" ],
					"parameter_enable" : 1,
					"patching_rect" : [ 657.066674172878265, 292.133336782455444, 27.0, 37.0 ],
					"saved_attribute_attributes" : 					{
						"valueof" : 						{
							"parameter_longname" : "live.dial[49]",
							"parameter_mmax" : 19.0,
							"parameter_modmode" : 4,
							"parameter_shortname" : "live.dial",
							"parameter_type" : 1,
							"parameter_unitstyle" : 0
						}

					}
,
					"showname" : 0,
					"varname" : "live.dial[3]"
				}

			}
, 			{
				"box" : 				{
					"id" : "obj-61",
					"maxclass" : "live.dial",
					"numinlets" : 1,
					"numoutlets" : 2,
					"outlettype" : [ "", "float" ],
					"parameter_enable" : 1,
					"patching_rect" : [ 587.066672086715698, 291.466670095920563, 27.0, 37.0 ],
					"saved_attribute_attributes" : 					{
						"valueof" : 						{
							"parameter_longname" : "live.dial[41]",
							"parameter_mmax" : 19.0,
							"parameter_modmode" : 4,
							"parameter_shortname" : "live.dial",
							"parameter_type" : 1,
							"parameter_unitstyle" : 0
						}

					}
,
					"showname" : 0,
					"varname" : "live.dial[2]"
				}

			}
, 			{
				"box" : 				{
					"bgcolor" : [ 0.556862745098039, 0.796078431372549, 0.541176470588235, 1.0 ],
					"bgcolor2" : [ 0.196078431372549, 0.870588235294118, 0.290196078431373, 1.0 ],
					"bgfillcolor_angle" : 270.0,
					"bgfillcolor_autogradient" : 0.0,
					"bgfillcolor_color" : [ 0.556862745098039, 0.796078431372549, 0.541176470588235, 1.0 ],
					"bgfillcolor_color1" : [ 0.556862745098039, 0.796078431372549, 0.541176470588235, 1.0 ],
					"bgfillcolor_color2" : [ 0.196078431372549, 0.870588235294118, 0.290196078431373, 1.0 ],
					"bgfillcolor_proportion" : 0.39,
					"bgfillcolor_type" : "gradient",
					"fontname" : "Arial",
					"fontsize" : 9.0,
					"gradient" : 1,
					"id" : "obj-60",
					"maxclass" : "message",
					"numinlets" : 2,
					"numoutlets" : 1,
					"outlettype" : [ "" ],
					"patching_rect" : [ 684.0, 238.0, 29.5, 19.0 ],
					"text" : "12",
					"textcolor" : [ 0.0, 0.0, 0.0, 1.0 ]
				}

			}
, 			{
				"box" : 				{
					"bgcolor" : [ 0.556862745098039, 0.796078431372549, 0.541176470588235, 1.0 ],
					"bgcolor2" : [ 0.196078431372549, 0.870588235294118, 0.290196078431373, 1.0 ],
					"bgfillcolor_angle" : 270.0,
					"bgfillcolor_autogradient" : 0.0,
					"bgfillcolor_color" : [ 0.556862745098039, 0.796078431372549, 0.541176470588235, 1.0 ],
					"bgfillcolor_color1" : [ 0.556862745098039, 0.796078431372549, 0.541176470588235, 1.0 ],
					"bgfillcolor_color2" : [ 0.196078431372549, 0.870588235294118, 0.290196078431373, 1.0 ],
					"bgfillcolor_proportion" : 0.39,
					"bgfillcolor_type" : "gradient",
					"fontname" : "Arial",
					"fontsize" : 9.0,
					"gradient" : 1,
					"id" : "obj-59",
					"maxclass" : "message",
					"numinlets" : 2,
					"numoutlets" : 1,
					"outlettype" : [ "" ],
					"patching_rect" : [ 607.0, 238.0, 29.5, 19.0 ],
					"text" : "12",
					"textcolor" : [ 0.0, 0.0, 0.0, 1.0 ]
				}

			}
, 			{
				"box" : 				{
					"color" : [ 0.439216, 0.74902, 0.254902, 1.0 ],
					"fontsize" : 11.0,
					"id" : "obj-58",
					"maxclass" : "newobj",
					"numinlets" : 1,
					"numoutlets" : 3,
					"outlettype" : [ "int", "int", "int" ],
					"patching_rect" : [ 473.600007057189941, 55.200000822544098, 40.0, 21.0 ],
					"text" : "t i i i"
				}

			}
, 			{
				"box" : 				{
					"bgcolor" : [ 0.556862745098039, 0.796078431372549, 0.541176470588235, 1.0 ],
					"bgcolor2" : [ 0.196078431372549, 0.870588235294118, 0.290196078431373, 1.0 ],
					"bgfillcolor_angle" : 270.0,
					"bgfillcolor_autogradient" : 0.0,
					"bgfillcolor_color" : [ 0.556862745098039, 0.796078431372549, 0.541176470588235, 1.0 ],
					"bgfillcolor_color1" : [ 0.556862745098039, 0.796078431372549, 0.541176470588235, 1.0 ],
					"bgfillcolor_color2" : [ 0.196078431372549, 0.870588235294118, 0.290196078431373, 1.0 ],
					"bgfillcolor_proportion" : 0.39,
					"bgfillcolor_type" : "gradient",
					"fontname" : "Arial",
					"fontsize" : 9.0,
					"gradient" : 1,
					"id" : "obj-57",
					"maxclass" : "message",
					"numinlets" : 2,
					"numoutlets" : 1,
					"outlettype" : [ "" ],
					"patching_rect" : [ 541.0, 239.0, 29.5, 19.0 ],
					"text" : "12",
					"textcolor" : [ 0.0, 0.0, 0.0, 1.0 ]
				}

			}
, 			{
				"box" : 				{
					"color" : [ 0.439216, 0.74902, 0.254902, 1.0 ],
					"fontsize" : 11.0,
					"id" : "obj-56",
					"maxclass" : "newobj",
					"numinlets" : 3,
					"numoutlets" : 3,
					"outlettype" : [ "bang", "bang", "" ],
					"patching_rect" : [ 530.400007903575897, 140.800002098083496, 41.0, 21.0 ],
					"text" : "sel 1 0"
				}

			}
, 			{
				"box" : 				{
					"bgcolor" : [ 0.742343, 0.880285, 1.0, 1.0 ],
					"fontsize" : 13.0,
					"htricolor" : [ 0.87, 0.82, 0.24, 1.0 ],
					"id" : "obj-55",
					"maxclass" : "number",
					"numinlets" : 1,
					"numoutlets" : 2,
					"outlettype" : [ "", "bang" ],
					"parameter_enable" : 0,
					"patching_rect" : [ 543.20000809431076, 60.000000894069672, 35.0, 23.0 ],
					"textcolor" : [ 0.0, 0.0, 0.0, 1.0 ],
					"triangle" : 0,
					"tricolor" : [ 0.75, 0.75, 0.75, 1.0 ]
				}

			}
, 			{
				"box" : 				{
					"bgcolor" : [ 0.650566, 0.801331, 1.0, 1.0 ],
					"color" : [ 0.0, 0.0, 0.0, 1.0 ],
					"id" : "obj-54",
					"maxclass" : "gswitch2",
					"numinlets" : 2,
					"numoutlets" : 2,
					"outlettype" : [ "", "" ],
					"parameter_enable" : 0,
					"patching_rect" : [ 521.900007903575897, 112.000001668930054, 27.5, 20.0 ],
					"style" : "DB-FAVE-11-17a",
					"switchcolor" : [ 0.0, 0.0, 0.0, 1.0 ]
				}

			}
, 			{
				"box" : 				{
					"bgcolor" : [ 1.0, 1.0, 0.411765, 1.0 ],
					"color" : [ 0.501961, 0.4, 0.219608, 1.0 ],
					"fontname" : "Arial",
					"fontsize" : 10.0,
					"id" : "obj-52",
					"maxclass" : "newobj",
					"numinlets" : 0,
					"numoutlets" : 1,
					"outlettype" : [ "" ],
					"patching_rect" : [ 647.250001072883606, 6.0, 56.0, 20.0 ],
					"text" : "r early-hit3",
					"textcolor" : [ 0.0, 0.0, 0.0, 1.0 ]
				}

			}
, 			{
				"box" : 				{
					"bgcolor" : [ 1.0, 1.0, 0.411765, 1.0 ],
					"color" : [ 0.501961, 0.4, 0.219608, 1.0 ],
					"fontname" : "Arial",
					"fontsize" : 10.0,
					"id" : "obj-51",
					"maxclass" : "newobj",
					"numinlets" : 0,
					"numoutlets" : 1,
					"outlettype" : [ "" ],
					"patching_rect" : [ 588.0, 6.0, 56.0, 20.0 ],
					"text" : "r early-hit2",
					"textcolor" : [ 0.0, 0.0, 0.0, 1.0 ]
				}

			}
, 			{
				"box" : 				{
					"id" : "obj-50",
					"maxclass" : "live.dial",
					"numinlets" : 1,
					"numoutlets" : 2,
					"outlettype" : [ "", "float" ],
					"parameter_enable" : 1,
					"patching_rect" : [ 767.0, 291.600004971027374, 27.0, 37.0 ],
					"saved_attribute_attributes" : 					{
						"valueof" : 						{
							"parameter_longname" : "live.dial[48]",
							"parameter_mmax" : 24.0,
							"parameter_modmode" : 4,
							"parameter_shortname" : "live.dial",
							"parameter_type" : 1,
							"parameter_unitstyle" : 0
						}

					}
,
					"showname" : 0,
					"varname" : "live.dial[1]"
				}

			}
, 			{
				"box" : 				{
					"id" : "obj-48",
					"maxclass" : "live.dial",
					"numinlets" : 1,
					"numoutlets" : 2,
					"outlettype" : [ "", "float" ],
					"parameter_enable" : 1,
					"patching_rect" : [ 539.733337342739105, 291.466670095920563, 27.0, 37.0 ],
					"saved_attribute_attributes" : 					{
						"valueof" : 						{
							"parameter_longname" : "live.dial[42]",
							"parameter_mmax" : 19.0,
							"parameter_modmode" : 4,
							"parameter_shortname" : "live.dial",
							"parameter_type" : 1,
							"parameter_unitstyle" : 0
						}

					}
,
					"showname" : 0,
					"varname" : "live.dial"
				}

			}
, 			{
				"box" : 				{
					"bgcolor" : [ 0.556862745098039, 0.796078431372549, 0.541176470588235, 1.0 ],
					"bgcolor2" : [ 0.196078431372549, 0.870588235294118, 0.290196078431373, 1.0 ],
					"bgfillcolor_angle" : 270.0,
					"bgfillcolor_autogradient" : 0.0,
					"bgfillcolor_color" : [ 0.556862745098039, 0.796078431372549, 0.541176470588235, 1.0 ],
					"bgfillcolor_color1" : [ 0.556862745098039, 0.796078431372549, 0.541176470588235, 1.0 ],
					"bgfillcolor_color2" : [ 0.196078431372549, 0.870588235294118, 0.290196078431373, 1.0 ],
					"bgfillcolor_proportion" : 0.39,
					"bgfillcolor_type" : "gradient",
					"fontname" : "Arial",
					"fontsize" : 9.0,
					"gradient" : 1,
					"id" : "obj-40",
					"maxclass" : "message",
					"numinlets" : 2,
					"numoutlets" : 1,
					"outlettype" : [ "" ],
					"patching_rect" : [ 968.0, 238.0, 29.5, 19.0 ],
					"text" : "10",
					"textcolor" : [ 0.0, 0.0, 0.0, 1.0 ]
				}

			}
, 			{
				"box" : 				{
					"bgcolor" : [ 0.556862745098039, 0.796078431372549, 0.541176470588235, 1.0 ],
					"bgcolor2" : [ 0.196078431372549, 0.870588235294118, 0.290196078431373, 1.0 ],
					"bgfillcolor_angle" : 270.0,
					"bgfillcolor_autogradient" : 0.0,
					"bgfillcolor_color" : [ 0.556862745098039, 0.796078431372549, 0.541176470588235, 1.0 ],
					"bgfillcolor_color1" : [ 0.556862745098039, 0.796078431372549, 0.541176470588235, 1.0 ],
					"bgfillcolor_color2" : [ 0.196078431372549, 0.870588235294118, 0.290196078431373, 1.0 ],
					"bgfillcolor_proportion" : 0.39,
					"bgfillcolor_type" : "gradient",
					"fontname" : "Arial",
					"fontsize" : 9.0,
					"gradient" : 1,
					"id" : "obj-41",
					"maxclass" : "message",
					"numinlets" : 2,
					"numoutlets" : 1,
					"outlettype" : [ "" ],
					"patching_rect" : [ 837.0, 238.0, 29.5, 19.0 ],
					"text" : "5",
					"textcolor" : [ 0.0, 0.0, 0.0, 1.0 ]
				}

			}
, 			{
				"box" : 				{
					"bgcolor" : [ 0.556862745098039, 0.796078431372549, 0.541176470588235, 1.0 ],
					"bgcolor2" : [ 0.196078431372549, 0.870588235294118, 0.290196078431373, 1.0 ],
					"bgfillcolor_angle" : 270.0,
					"bgfillcolor_autogradient" : 0.0,
					"bgfillcolor_color" : [ 0.556862745098039, 0.796078431372549, 0.541176470588235, 1.0 ],
					"bgfillcolor_color1" : [ 0.556862745098039, 0.796078431372549, 0.541176470588235, 1.0 ],
					"bgfillcolor_color2" : [ 0.196078431372549, 0.870588235294118, 0.290196078431373, 1.0 ],
					"bgfillcolor_proportion" : 0.39,
					"bgfillcolor_type" : "gradient",
					"fontname" : "Arial",
					"fontsize" : 9.0,
					"gradient" : 1,
					"id" : "obj-23",
					"maxclass" : "message",
					"numinlets" : 2,
					"numoutlets" : 1,
					"outlettype" : [ "" ],
					"patching_rect" : [ 731.0, 238.0, 29.5, 19.0 ],
					"text" : "10",
					"textcolor" : [ 0.0, 0.0, 0.0, 1.0 ]
				}

			}
, 			{
				"box" : 				{
					"bgcolor" : [ 0.556862745098039, 0.796078431372549, 0.541176470588235, 1.0 ],
					"bgcolor2" : [ 0.196078431372549, 0.870588235294118, 0.290196078431373, 1.0 ],
					"bgfillcolor_angle" : 270.0,
					"bgfillcolor_autogradient" : 0.0,
					"bgfillcolor_color" : [ 0.556862745098039, 0.796078431372549, 0.541176470588235, 1.0 ],
					"bgfillcolor_color1" : [ 0.556862745098039, 0.796078431372549, 0.541176470588235, 1.0 ],
					"bgfillcolor_color2" : [ 0.196078431372549, 0.870588235294118, 0.290196078431373, 1.0 ],
					"bgfillcolor_proportion" : 0.39,
					"bgfillcolor_type" : "gradient",
					"fontname" : "Arial",
					"fontsize" : 9.0,
					"gradient" : 1,
					"id" : "obj-39",
					"maxclass" : "message",
					"numinlets" : 2,
					"numoutlets" : 1,
					"outlettype" : [ "" ],
					"patching_rect" : [ 644.0, 238.0, 29.5, 19.0 ],
					"text" : "10",
					"textcolor" : [ 0.0, 0.0, 0.0, 1.0 ]
				}

			}
, 			{
				"box" : 				{
					"bgcolor" : [ 0.556862745098039, 0.796078431372549, 0.541176470588235, 1.0 ],
					"bgcolor2" : [ 0.196078431372549, 0.870588235294118, 0.290196078431373, 1.0 ],
					"bgfillcolor_angle" : 270.0,
					"bgfillcolor_autogradient" : 0.0,
					"bgfillcolor_color" : [ 0.556862745098039, 0.796078431372549, 0.541176470588235, 1.0 ],
					"bgfillcolor_color1" : [ 0.556862745098039, 0.796078431372549, 0.541176470588235, 1.0 ],
					"bgfillcolor_color2" : [ 0.196078431372549, 0.870588235294118, 0.290196078431373, 1.0 ],
					"bgfillcolor_proportion" : 0.39,
					"bgfillcolor_type" : "gradient",
					"fontname" : "Arial",
					"fontsize" : 9.0,
					"gradient" : 1,
					"id" : "obj-106",
					"maxclass" : "message",
					"numinlets" : 2,
					"numoutlets" : 1,
					"outlettype" : [ "" ],
					"patching_rect" : [ 576.0, 238.0, 29.5, 19.0 ],
					"text" : "10",
					"textcolor" : [ 0.0, 0.0, 0.0, 1.0 ]
				}

			}
, 			{
				"box" : 				{
					"bgcolor" : [ 0.556862745098039, 0.796078431372549, 0.541176470588235, 1.0 ],
					"bgcolor2" : [ 0.196078431372549, 0.870588235294118, 0.290196078431373, 1.0 ],
					"bgfillcolor_angle" : 270.0,
					"bgfillcolor_autogradient" : 0.0,
					"bgfillcolor_color" : [ 0.556862745098039, 0.796078431372549, 0.541176470588235, 1.0 ],
					"bgfillcolor_color1" : [ 0.556862745098039, 0.796078431372549, 0.541176470588235, 1.0 ],
					"bgfillcolor_color2" : [ 0.196078431372549, 0.870588235294118, 0.290196078431373, 1.0 ],
					"bgfillcolor_proportion" : 0.39,
					"bgfillcolor_type" : "gradient",
					"fontname" : "Arial",
					"fontsize" : 9.0,
					"gradient" : 1,
					"id" : "obj-108",
					"maxclass" : "message",
					"numinlets" : 2,
					"numoutlets" : 1,
					"outlettype" : [ "" ],
					"patching_rect" : [ 505.0, 238.0, 29.5, 19.0 ],
					"text" : "10",
					"textcolor" : [ 0.0, 0.0, 0.0, 1.0 ]
				}

			}
, 			{
				"box" : 				{
					"color" : [ 0.439216, 0.74902, 0.254902, 1.0 ],
					"fontsize" : 9.0,
					"id" : "obj-18",
					"maxclass" : "newobj",
					"numinlets" : 2,
					"numoutlets" : 1,
					"outlettype" : [ "bang" ],
					"patching_rect" : [ 948.0, 208.0, 38.0, 19.0 ],
					"text" : "del 600"
				}

			}
, 			{
				"box" : 				{
					"color" : [ 0.439216, 0.74902, 0.254902, 1.0 ],
					"fontsize" : 9.0,
					"id" : "obj-19",
					"maxclass" : "newobj",
					"numinlets" : 2,
					"numoutlets" : 1,
					"outlettype" : [ "bang" ],
					"patching_rect" : [ 825.0, 203.0, 38.0, 19.0 ],
					"text" : "del 600"
				}

			}
, 			{
				"box" : 				{
					"color" : [ 0.439216, 0.74902, 0.254902, 1.0 ],
					"fontsize" : 9.0,
					"id" : "obj-16",
					"maxclass" : "newobj",
					"numinlets" : 2,
					"numoutlets" : 1,
					"outlettype" : [ "bang" ],
					"patching_rect" : [ 714.0, 203.0, 38.0, 19.0 ],
					"text" : "del 600"
				}

			}
, 			{
				"box" : 				{
					"color" : [ 0.439216, 0.74902, 0.254902, 1.0 ],
					"fontsize" : 9.0,
					"id" : "obj-17",
					"maxclass" : "newobj",
					"numinlets" : 2,
					"numoutlets" : 1,
					"outlettype" : [ "bang" ],
					"patching_rect" : [ 625.25000923871994, 203.0, 38.0, 19.0 ],
					"text" : "del 600"
				}

			}
, 			{
				"box" : 				{
					"color" : [ 0.439216, 0.74902, 0.254902, 1.0 ],
					"fontsize" : 9.0,
					"id" : "obj-15",
					"maxclass" : "newobj",
					"numinlets" : 2,
					"numoutlets" : 1,
					"outlettype" : [ "bang" ],
					"patching_rect" : [ 555.0, 203.0, 38.0, 19.0 ],
					"text" : "del 600"
				}

			}
, 			{
				"box" : 				{
					"color" : [ 0.439216, 0.74902, 0.254902, 1.0 ],
					"fontsize" : 9.0,
					"id" : "obj-10",
					"maxclass" : "newobj",
					"numinlets" : 2,
					"numoutlets" : 1,
					"outlettype" : [ "bang" ],
					"patching_rect" : [ 494.0, 208.0, 38.0, 19.0 ],
					"text" : "del 600"
				}

			}
, 			{
				"box" : 				{
					"bgcolor" : [ 0.556862745098039, 0.796078431372549, 0.541176470588235, 1.0 ],
					"bgcolor2" : [ 0.196078431372549, 0.870588235294118, 0.290196078431373, 1.0 ],
					"bgfillcolor_angle" : 270.0,
					"bgfillcolor_autogradient" : 0.0,
					"bgfillcolor_color" : [ 0.556862745098039, 0.796078431372549, 0.541176470588235, 1.0 ],
					"bgfillcolor_color1" : [ 0.556862745098039, 0.796078431372549, 0.541176470588235, 1.0 ],
					"bgfillcolor_color2" : [ 0.196078431372549, 0.870588235294118, 0.290196078431373, 1.0 ],
					"bgfillcolor_proportion" : 0.39,
					"bgfillcolor_type" : "gradient",
					"fontname" : "Arial",
					"fontsize" : 11.0,
					"gradient" : 1,
					"id" : "obj-1",
					"maxclass" : "message",
					"numinlets" : 2,
					"numoutlets" : 1,
					"outlettype" : [ "" ],
					"patching_rect" : [ 155.666666666666686, 113.305496335029602, 29.5, 21.0 ],
					"text" : "0",
					"textcolor" : [ 0.0, 0.0, 0.0, 1.0 ]
				}

			}
, 			{
				"box" : 				{
					"bgcolor" : [ 0.742343, 0.880285, 1.0, 1.0 ],
					"fontsize" : 13.0,
					"htricolor" : [ 0.87, 0.82, 0.24, 1.0 ],
					"id" : "obj-69",
					"maxclass" : "number",
					"numinlets" : 1,
					"numoutlets" : 2,
					"outlettype" : [ "", "bang" ],
					"parameter_enable" : 0,
					"patching_rect" : [ 315.0, 113.494505763053894, 35.0, 23.0 ],
					"textcolor" : [ 0.0, 0.0, 0.0, 1.0 ],
					"triangle" : 0,
					"tricolor" : [ 0.75, 0.75, 0.75, 1.0 ]
				}

			}
, 			{
				"box" : 				{
					"bgcolor" : [ 0.817205, 0.805842, 0.828112, 1.0 ],
					"blinkcolor" : [ 0.92549, 0.364706, 0.341176, 1.0 ],
					"id" : "obj-164",
					"maxclass" : "button",
					"numinlets" : 1,
					"numoutlets" : 1,
					"outlettype" : [ "bang" ],
					"outlinecolor" : [ 0.784314, 0.145098, 0.023529, 1.0 ],
					"parameter_enable" : 0,
					"patching_rect" : [ 1005.75, 38.600004971027374, 19.0, 19.0 ]
				}

			}
, 			{
				"box" : 				{
					"bgcolor" : [ 0.817205, 0.805842, 0.828112, 1.0 ],
					"blinkcolor" : [ 0.92549, 0.364706, 0.341176, 1.0 ],
					"id" : "obj-155",
					"maxclass" : "button",
					"numinlets" : 1,
					"numoutlets" : 1,
					"outlettype" : [ "bang" ],
					"outlinecolor" : [ 0.784314, 0.145098, 0.023529, 1.0 ],
					"parameter_enable" : 0,
					"patching_rect" : [ 890.0, 38.600004971027374, 19.0, 19.0 ]
				}

			}
, 			{
				"box" : 				{
					"bgcolor" : [ 0.817205, 0.805842, 0.828112, 1.0 ],
					"blinkcolor" : [ 0.92549, 0.364706, 0.341176, 1.0 ],
					"id" : "obj-149",
					"maxclass" : "button",
					"numinlets" : 1,
					"numoutlets" : 1,
					"outlettype" : [ "bang" ],
					"outlinecolor" : [ 0.784314, 0.145098, 0.023529, 1.0 ],
					"parameter_enable" : 0,
					"patching_rect" : [ 778.0, 38.600004971027374, 19.0, 19.0 ]
				}

			}
, 			{
				"box" : 				{
					"bgcolor" : [ 0.817205, 0.805842, 0.828112, 1.0 ],
					"blinkcolor" : [ 0.92549, 0.364706, 0.341176, 1.0 ],
					"id" : "obj-150",
					"maxclass" : "button",
					"numinlets" : 1,
					"numoutlets" : 1,
					"outlettype" : [ "bang" ],
					"outlinecolor" : [ 0.784314, 0.145098, 0.023529, 1.0 ],
					"parameter_enable" : 0,
					"patching_rect" : [ 684.800010204315186, 39.200000584125519, 19.0, 19.0 ]
				}

			}
, 			{
				"box" : 				{
					"bgcolor" : [ 0.817205, 0.805842, 0.828112, 1.0 ],
					"blinkcolor" : [ 0.92549, 0.364706, 0.341176, 1.0 ],
					"id" : "obj-148",
					"maxclass" : "button",
					"numinlets" : 1,
					"numoutlets" : 1,
					"outlettype" : [ "bang" ],
					"outlinecolor" : [ 0.784314, 0.145098, 0.023529, 1.0 ],
					"parameter_enable" : 0,
					"patching_rect" : [ 625.25000923871994, 39.200000584125519, 19.0, 19.0 ]
				}

			}
, 			{
				"box" : 				{
					"bgcolor" : [ 0.817205, 0.805842, 0.828112, 1.0 ],
					"blinkcolor" : [ 0.92549, 0.364706, 0.341176, 1.0 ],
					"id" : "obj-139",
					"maxclass" : "button",
					"numinlets" : 1,
					"numoutlets" : 1,
					"outlettype" : [ "bang" ],
					"outlinecolor" : [ 0.784314, 0.145098, 0.023529, 1.0 ],
					"parameter_enable" : 0,
					"patching_rect" : [ 569.600008487701416, 39.200000584125519, 19.0, 19.0 ]
				}

			}
, 			{
				"box" : 				{
					"bgcolor" : [ 1.0, 1.0, 0.411765, 1.0 ],
					"color" : [ 0.501961, 0.4, 0.219608, 1.0 ],
					"fontname" : "Arial",
					"fontsize" : 10.0,
					"id" : "obj-33",
					"maxclass" : "newobj",
					"numinlets" : 0,
					"numoutlets" : 1,
					"outlettype" : [ "" ],
					"patching_rect" : [ 528.749998927116394, 6.0, 56.0, 20.0 ],
					"text" : "r early-hit1",
					"textcolor" : [ 0.0, 0.0, 0.0, 1.0 ]
				}

			}
, 			{
				"box" : 				{
					"bgcolor" : [ 1.0, 1.0, 1.0, 1.0 ],
					"bubble" : 1,
					"bubbleside" : 3,
					"id" : "obj-13",
					"maxclass" : "comment",
					"numinlets" : 1,
					"numoutlets" : 0,
					"patching_rect" : [ 161.666666666666686, 141.305496335029602, 71.0, 25.0 ],
					"style" : "redness",
					"text" : "stage 2"
				}

			}
, 			{
				"box" : 				{
					"bgcolor" : [ 1.0, 1.0, 1.0, 1.0 ],
					"bubbleside" : 3,
					"id" : "obj-71",
					"linecount" : 2,
					"maxclass" : "comment",
					"numinlets" : 1,
					"numoutlets" : 0,
					"patching_rect" : [ 58.666666666666686, 148.305496335029602, 73.799987797872518, 36.0 ],
					"style" : "redness",
					"text" : "entries to stages"
				}

			}
, 			{
				"box" : 				{
					"bgcolor" : [ 1.0, 1.0, 1.0, 1.0 ],
					"blinkcolor" : [ 1.0, 0.090196, 0.090196, 1.0 ],
					"id" : "obj-25",
					"maxclass" : "button",
					"numinlets" : 1,
					"numoutlets" : 1,
					"outlettype" : [ "bang" ],
					"outlinecolor" : [ 0.92549, 0.364706, 0.341176, 1.0 ],
					"parameter_enable" : 0,
					"patching_rect" : [ 228.666666666666686, 136.305496335029602, 29.989011526107788, 29.989011526107788 ]
				}

			}
, 			{
				"box" : 				{
					"color" : [ 0.552941176470588, 0.76078431372549, 0.380392156862745, 1.0 ],
					"fontname" : "Arial",
					"fontsize" : 16.0,
					"id" : "obj-14",
					"maxclass" : "newobj",
					"numinlets" : 13,
					"numoutlets" : 13,
					"outlettype" : [ "bang", "bang", "bang", "bang", "bang", "bang", "bang", "bang", "bang", "bang", "bang", "bang", "" ],
					"patching_rect" : [ 104.0, 57.0, 206.0, 26.0 ],
					"text" : "sel 0 1 2 3 4 5 6 7 8 9 10 11"
				}

			}
, 			{
				"box" : 				{
					"bgcolor" : [ 0.742343, 0.880285, 1.0, 1.0 ],
					"fontsize" : 13.0,
					"htricolor" : [ 0.87, 0.82, 0.24, 1.0 ],
					"id" : "obj-89",
					"maxclass" : "number",
					"numinlets" : 1,
					"numoutlets" : 2,
					"outlettype" : [ "", "bang" ],
					"parameter_enable" : 0,
					"patching_rect" : [ 39.0, 44.5, 35.0, 23.0 ],
					"textcolor" : [ 0.0, 0.0, 0.0, 1.0 ],
					"triangle" : 0,
					"tricolor" : [ 0.75, 0.75, 0.75, 1.0 ]
				}

			}
, 			{
				"box" : 				{
					"bgcolor" : [ 1.0, 1.0, 0.411765, 1.0 ],
					"color" : [ 0.501961, 0.4, 0.219608, 1.0 ],
					"fontname" : "Arial",
					"fontsize" : 13.0,
					"id" : "obj-141",
					"maxclass" : "newobj",
					"numinlets" : 0,
					"numoutlets" : 1,
					"outlettype" : [ "" ],
					"patching_rect" : [ 21.0, 11.5, 58.0, 23.0 ],
					"text" : "r Stage#",
					"textcolor" : [ 0.0, 0.0, 0.0, 1.0 ]
				}

			}
 ],
		"lines" : [ 			{
				"patchline" : 				{
					"destination" : [ "obj-69", 0 ],
					"source" : [ "obj-1", 0 ]
				}

			}
, 			{
				"patchline" : 				{
					"destination" : [ "obj-108", 0 ],
					"source" : [ "obj-10", 0 ]
				}

			}
, 			{
				"patchline" : 				{
					"destination" : [ "obj-117", 0 ],
					"source" : [ "obj-103", 0 ]
				}

			}
, 			{
				"patchline" : 				{
					"destination" : [ "obj-119", 0 ],
					"source" : [ "obj-104", 0 ]
				}

			}
, 			{
				"patchline" : 				{
					"destination" : [ "obj-118", 0 ],
					"source" : [ "obj-105", 0 ]
				}

			}
, 			{
				"patchline" : 				{
					"destination" : [ "obj-61", 0 ],
					"source" : [ "obj-106", 0 ]
				}

			}
, 			{
				"patchline" : 				{
					"destination" : [ "obj-105", 0 ],
					"order" : 0,
					"source" : [ "obj-107", 0 ]
				}

			}
, 			{
				"patchline" : 				{
					"destination" : [ "obj-114", 0 ],
					"source" : [ "obj-107", 1 ]
				}

			}
, 			{
				"patchline" : 				{
					"destination" : [ "obj-123", 0 ],
					"order" : 1,
					"source" : [ "obj-107", 0 ]
				}

			}
, 			{
				"patchline" : 				{
					"destination" : [ "obj-48", 0 ],
					"source" : [ "obj-108", 0 ]
				}

			}
, 			{
				"patchline" : 				{
					"destination" : [ "obj-107", 0 ],
					"source" : [ "obj-109", 1 ]
				}

			}
, 			{
				"patchline" : 				{
					"destination" : [ "obj-103", 0 ],
					"order" : 0,
					"source" : [ "obj-110", 0 ]
				}

			}
, 			{
				"patchline" : 				{
					"destination" : [ "obj-115", 0 ],
					"source" : [ "obj-110", 1 ]
				}

			}
, 			{
				"patchline" : 				{
					"destination" : [ "obj-124", 0 ],
					"order" : 1,
					"source" : [ "obj-110", 0 ]
				}

			}
, 			{
				"patchline" : 				{
					"destination" : [ "obj-110", 0 ],
					"source" : [ "obj-111", 1 ]
				}

			}
, 			{
				"patchline" : 				{
					"destination" : [ "obj-104", 0 ],
					"order" : 0,
					"source" : [ "obj-112", 0 ]
				}

			}
, 			{
				"patchline" : 				{
					"destination" : [ "obj-116", 0 ],
					"source" : [ "obj-112", 1 ]
				}

			}
, 			{
				"patchline" : 				{
					"destination" : [ "obj-125", 0 ],
					"order" : 1,
					"source" : [ "obj-112", 0 ]
				}

			}
, 			{
				"patchline" : 				{
					"destination" : [ "obj-112", 0 ],
					"source" : [ "obj-113", 1 ]
				}

			}
, 			{
				"patchline" : 				{
					"destination" : [ "obj-118", 0 ],
					"source" : [ "obj-114", 0 ]
				}

			}
, 			{
				"patchline" : 				{
					"destination" : [ "obj-117", 0 ],
					"source" : [ "obj-115", 0 ]
				}

			}
, 			{
				"patchline" : 				{
					"destination" : [ "obj-119", 0 ],
					"source" : [ "obj-116", 0 ]
				}

			}
, 			{
				"patchline" : 				{
					"destination" : [ "obj-100", 0 ],
					"source" : [ "obj-117", 0 ]
				}

			}
, 			{
				"patchline" : 				{
					"destination" : [ "obj-100", 0 ],
					"source" : [ "obj-118", 0 ]
				}

			}
, 			{
				"patchline" : 				{
					"destination" : [ "obj-100", 0 ],
					"source" : [ "obj-119", 0 ]
				}

			}
, 			{
				"patchline" : 				{
					"destination" : [ "obj-118", 0 ],
					"source" : [ "obj-120", 0 ]
				}

			}
, 			{
				"patchline" : 				{
					"destination" : [ "obj-117", 0 ],
					"source" : [ "obj-121", 0 ]
				}

			}
, 			{
				"patchline" : 				{
					"destination" : [ "obj-119", 0 ],
					"source" : [ "obj-122", 0 ]
				}

			}
, 			{
				"patchline" : 				{
					"destination" : [ "obj-120", 0 ],
					"source" : [ "obj-123", 0 ]
				}

			}
, 			{
				"patchline" : 				{
					"destination" : [ "obj-121", 0 ],
					"source" : [ "obj-124", 0 ]
				}

			}
, 			{
				"patchline" : 				{
					"destination" : [ "obj-122", 0 ],
					"source" : [ "obj-125", 0 ]
				}

			}
, 			{
				"patchline" : 				{
					"destination" : [ "obj-69", 0 ],
					"source" : [ "obj-126", 0 ]
				}

			}
, 			{
				"patchline" : 				{
					"destination" : [ "obj-1", 0 ],
					"source" : [ "obj-14", 11 ]
				}

			}
, 			{
				"patchline" : 				{
					"destination" : [ "obj-1", 0 ],
					"source" : [ "obj-14", 10 ]
				}

			}
, 			{
				"patchline" : 				{
					"destination" : [ "obj-1", 0 ],
					"source" : [ "obj-14", 9 ]
				}

			}
, 			{
				"patchline" : 				{
					"destination" : [ "obj-1", 0 ],
					"source" : [ "obj-14", 7 ]
				}

			}
, 			{
				"patchline" : 				{
					"destination" : [ "obj-1", 0 ],
					"source" : [ "obj-14", 6 ]
				}

			}
, 			{
				"patchline" : 				{
					"destination" : [ "obj-1", 0 ],
					"source" : [ "obj-14", 5 ]
				}

			}
, 			{
				"patchline" : 				{
					"destination" : [ "obj-1", 0 ],
					"source" : [ "obj-14", 4 ]
				}

			}
, 			{
				"patchline" : 				{
					"destination" : [ "obj-1", 0 ],
					"source" : [ "obj-14", 3 ]
				}

			}
, 			{
				"patchline" : 				{
					"destination" : [ "obj-1", 0 ],
					"source" : [ "obj-14", 2 ]
				}

			}
, 			{
				"patchline" : 				{
					"destination" : [ "obj-1", 0 ],
					"source" : [ "obj-14", 1 ]
				}

			}
, 			{
				"patchline" : 				{
					"destination" : [ "obj-1", 0 ],
					"source" : [ "obj-14", 0 ]
				}

			}
, 			{
				"patchline" : 				{
					"destination" : [ "obj-25", 0 ],
					"source" : [ "obj-14", 8 ]
				}

			}
, 			{
				"patchline" : 				{
					"destination" : [ "obj-14", 0 ],
					"order" : 0,
					"source" : [ "obj-141", 0 ]
				}

			}
, 			{
				"patchline" : 				{
					"destination" : [ "obj-89", 0 ],
					"order" : 1,
					"source" : [ "obj-141", 0 ]
				}

			}
, 			{
				"patchline" : 				{
					"destination" : [ "obj-106", 0 ],
					"source" : [ "obj-15", 0 ]
				}

			}
, 			{
				"patchline" : 				{
					"destination" : [ "obj-23", 0 ],
					"source" : [ "obj-16", 0 ]
				}

			}
, 			{
				"patchline" : 				{
					"destination" : [ "obj-39", 0 ],
					"source" : [ "obj-17", 0 ]
				}

			}
, 			{
				"patchline" : 				{
					"destination" : [ "obj-40", 0 ],
					"source" : [ "obj-18", 0 ]
				}

			}
, 			{
				"patchline" : 				{
					"destination" : [ "obj-41", 0 ],
					"source" : [ "obj-19", 0 ]
				}

			}
, 			{
				"patchline" : 				{
					"destination" : [ "obj-50", 0 ],
					"source" : [ "obj-23", 0 ]
				}

			}
, 			{
				"patchline" : 				{
					"destination" : [ "obj-126", 0 ],
					"source" : [ "obj-25", 0 ]
				}

			}
, 			{
				"patchline" : 				{
					"destination" : [ "obj-139", 0 ],
					"order" : 0,
					"source" : [ "obj-33", 0 ]
				}

			}
, 			{
				"patchline" : 				{
					"destination" : [ "obj-55", 0 ],
					"order" : 1,
					"source" : [ "obj-33", 0 ]
				}

			}
, 			{
				"patchline" : 				{
					"destination" : [ "obj-62", 0 ],
					"source" : [ "obj-39", 0 ]
				}

			}
, 			{
				"patchline" : 				{
					"destination" : [ "obj-64", 0 ],
					"source" : [ "obj-40", 0 ]
				}

			}
, 			{
				"patchline" : 				{
					"destination" : [ "obj-63", 0 ],
					"source" : [ "obj-41", 0 ]
				}

			}
, 			{
				"patchline" : 				{
					"destination" : [ "obj-64", 0 ],
					"source" : [ "obj-43", 0 ]
				}

			}
, 			{
				"patchline" : 				{
					"destination" : [ "obj-50", 0 ],
					"source" : [ "obj-44", 0 ]
				}

			}
, 			{
				"patchline" : 				{
					"destination" : [ "obj-63", 0 ],
					"source" : [ "obj-45", 0 ]
				}

			}
, 			{
				"patchline" : 				{
					"destination" : [ "obj-77", 0 ],
					"source" : [ "obj-48", 0 ]
				}

			}
, 			{
				"patchline" : 				{
					"destination" : [ "obj-85", 0 ],
					"order" : 1,
					"source" : [ "obj-49", 0 ]
				}

			}
, 			{
				"patchline" : 				{
					"destination" : [ "obj-97", 0 ],
					"order" : 0,
					"source" : [ "obj-49", 0 ]
				}

			}
, 			{
				"patchline" : 				{
					"destination" : [ "obj-53", 0 ],
					"source" : [ "obj-50", 0 ]
				}

			}
, 			{
				"patchline" : 				{
					"destination" : [ "obj-148", 0 ],
					"order" : 0,
					"source" : [ "obj-51", 0 ]
				}

			}
, 			{
				"patchline" : 				{
					"destination" : [ "obj-86", 0 ],
					"order" : 1,
					"source" : [ "obj-51", 0 ]
				}

			}
, 			{
				"patchline" : 				{
					"destination" : [ "obj-150", 0 ],
					"order" : 0,
					"source" : [ "obj-52", 0 ]
				}

			}
, 			{
				"patchline" : 				{
					"destination" : [ "obj-87", 0 ],
					"order" : 1,
					"source" : [ "obj-52", 0 ]
				}

			}
, 			{
				"patchline" : 				{
					"destination" : [ "obj-56", 0 ],
					"source" : [ "obj-54", 1 ]
				}

			}
, 			{
				"patchline" : 				{
					"destination" : [ "obj-54", 1 ],
					"source" : [ "obj-55", 0 ]
				}

			}
, 			{
				"patchline" : 				{
					"destination" : [ "obj-10", 0 ],
					"order" : 1,
					"source" : [ "obj-56", 0 ]
				}

			}
, 			{
				"patchline" : 				{
					"destination" : [ "obj-57", 0 ],
					"source" : [ "obj-56", 1 ]
				}

			}
, 			{
				"patchline" : 				{
					"destination" : [ "obj-57", 0 ],
					"order" : 0,
					"source" : [ "obj-56", 0 ]
				}

			}
, 			{
				"patchline" : 				{
					"destination" : [ "obj-48", 0 ],
					"source" : [ "obj-57", 0 ]
				}

			}
, 			{
				"patchline" : 				{
					"destination" : [ "obj-54", 0 ],
					"order" : 1,
					"source" : [ "obj-58", 0 ]
				}

			}
, 			{
				"patchline" : 				{
					"destination" : [ "obj-70", 0 ],
					"order" : 0,
					"source" : [ "obj-58", 0 ]
				}

			}
, 			{
				"patchline" : 				{
					"destination" : [ "obj-74", 0 ],
					"order" : 1,
					"source" : [ "obj-58", 1 ]
				}

			}
, 			{
				"patchline" : 				{
					"destination" : [ "obj-80", 0 ],
					"order" : 0,
					"source" : [ "obj-58", 1 ]
				}

			}
, 			{
				"patchline" : 				{
					"destination" : [ "obj-82", 0 ],
					"order" : 1,
					"source" : [ "obj-58", 2 ]
				}

			}
, 			{
				"patchline" : 				{
					"destination" : [ "obj-84", 0 ],
					"order" : 0,
					"source" : [ "obj-58", 2 ]
				}

			}
, 			{
				"patchline" : 				{
					"destination" : [ "obj-61", 0 ],
					"source" : [ "obj-59", 0 ]
				}

			}
, 			{
				"patchline" : 				{
					"destination" : [ "obj-62", 0 ],
					"source" : [ "obj-60", 0 ]
				}

			}
, 			{
				"patchline" : 				{
					"destination" : [ "obj-76", 0 ],
					"source" : [ "obj-61", 0 ]
				}

			}
, 			{
				"patchline" : 				{
					"destination" : [ "obj-75", 0 ],
					"source" : [ "obj-62", 0 ]
				}

			}
, 			{
				"patchline" : 				{
					"destination" : [ "obj-42", 0 ],
					"source" : [ "obj-63", 0 ]
				}

			}
, 			{
				"patchline" : 				{
					"destination" : [ "obj-21", 0 ],
					"source" : [ "obj-64", 0 ]
				}

			}
, 			{
				"patchline" : 				{
					"destination" : [ "obj-50", 0 ],
					"source" : [ "obj-65", 0 ]
				}

			}
, 			{
				"patchline" : 				{
					"destination" : [ "obj-63", 0 ],
					"source" : [ "obj-66", 0 ]
				}

			}
, 			{
				"patchline" : 				{
					"destination" : [ "obj-64", 0 ],
					"source" : [ "obj-67", 0 ]
				}

			}
, 			{
				"patchline" : 				{
					"destination" : [ "obj-15", 0 ],
					"order" : 1,
					"source" : [ "obj-68", 0 ]
				}

			}
, 			{
				"patchline" : 				{
					"destination" : [ "obj-59", 0 ],
					"source" : [ "obj-68", 1 ]
				}

			}
, 			{
				"patchline" : 				{
					"destination" : [ "obj-59", 0 ],
					"order" : 0,
					"source" : [ "obj-68", 0 ]
				}

			}
, 			{
				"patchline" : 				{
					"destination" : [ "obj-58", 0 ],
					"source" : [ "obj-69", 0 ]
				}

			}
, 			{
				"patchline" : 				{
					"destination" : [ "obj-68", 0 ],
					"source" : [ "obj-70", 1 ]
				}

			}
, 			{
				"patchline" : 				{
					"destination" : [ "obj-17", 0 ],
					"order" : 1,
					"source" : [ "obj-72", 0 ]
				}

			}
, 			{
				"patchline" : 				{
					"destination" : [ "obj-60", 0 ],
					"source" : [ "obj-72", 1 ]
				}

			}
, 			{
				"patchline" : 				{
					"destination" : [ "obj-60", 0 ],
					"order" : 0,
					"source" : [ "obj-72", 0 ]
				}

			}
, 			{
				"patchline" : 				{
					"destination" : [ "obj-95", 0 ],
					"order" : 1,
					"source" : [ "obj-73", 0 ]
				}

			}
, 			{
				"patchline" : 				{
					"destination" : [ "obj-98", 0 ],
					"order" : 0,
					"source" : [ "obj-73", 0 ]
				}

			}
, 			{
				"patchline" : 				{
					"destination" : [ "obj-72", 0 ],
					"source" : [ "obj-74", 1 ]
				}

			}
, 			{
				"patchline" : 				{
					"destination" : [ "obj-16", 0 ],
					"order" : 1,
					"source" : [ "obj-78", 0 ]
				}

			}
, 			{
				"patchline" : 				{
					"destination" : [ "obj-44", 0 ],
					"order" : 0,
					"source" : [ "obj-78", 0 ]
				}

			}
, 			{
				"patchline" : 				{
					"destination" : [ "obj-65", 0 ],
					"source" : [ "obj-78", 1 ]
				}

			}
, 			{
				"patchline" : 				{
					"destination" : [ "obj-96", 0 ],
					"order" : 1,
					"source" : [ "obj-79", 0 ]
				}

			}
, 			{
				"patchline" : 				{
					"destination" : [ "obj-99", 0 ],
					"order" : 0,
					"source" : [ "obj-79", 0 ]
				}

			}
, 			{
				"patchline" : 				{
					"destination" : [ "obj-78", 0 ],
					"source" : [ "obj-80", 1 ]
				}

			}
, 			{
				"patchline" : 				{
					"destination" : [ "obj-19", 0 ],
					"order" : 1,
					"source" : [ "obj-81", 0 ]
				}

			}
, 			{
				"patchline" : 				{
					"destination" : [ "obj-45", 0 ],
					"order" : 0,
					"source" : [ "obj-81", 0 ]
				}

			}
, 			{
				"patchline" : 				{
					"destination" : [ "obj-66", 0 ],
					"source" : [ "obj-81", 1 ]
				}

			}
, 			{
				"patchline" : 				{
					"destination" : [ "obj-81", 0 ],
					"source" : [ "obj-82", 1 ]
				}

			}
, 			{
				"patchline" : 				{
					"destination" : [ "obj-18", 0 ],
					"order" : 1,
					"source" : [ "obj-83", 0 ]
				}

			}
, 			{
				"patchline" : 				{
					"destination" : [ "obj-43", 0 ],
					"order" : 0,
					"source" : [ "obj-83", 0 ]
				}

			}
, 			{
				"patchline" : 				{
					"destination" : [ "obj-67", 0 ],
					"source" : [ "obj-83", 1 ]
				}

			}
, 			{
				"patchline" : 				{
					"destination" : [ "obj-83", 0 ],
					"source" : [ "obj-84", 1 ]
				}

			}
, 			{
				"patchline" : 				{
					"destination" : [ "obj-109", 1 ],
					"source" : [ "obj-85", 0 ]
				}

			}
, 			{
				"patchline" : 				{
					"destination" : [ "obj-70", 1 ],
					"source" : [ "obj-86", 0 ]
				}

			}
, 			{
				"patchline" : 				{
					"destination" : [ "obj-74", 1 ],
					"source" : [ "obj-87", 0 ]
				}

			}
, 			{
				"patchline" : 				{
					"destination" : [ "obj-80", 1 ],
					"source" : [ "obj-88", 0 ]
				}

			}
, 			{
				"patchline" : 				{
					"destination" : [ "obj-82", 1 ],
					"source" : [ "obj-90", 0 ]
				}

			}
, 			{
				"patchline" : 				{
					"destination" : [ "obj-84", 1 ],
					"source" : [ "obj-91", 0 ]
				}

			}
, 			{
				"patchline" : 				{
					"destination" : [ "obj-164", 0 ],
					"order" : 0,
					"source" : [ "obj-92", 0 ]
				}

			}
, 			{
				"patchline" : 				{
					"destination" : [ "obj-91", 0 ],
					"order" : 1,
					"source" : [ "obj-92", 0 ]
				}

			}
, 			{
				"patchline" : 				{
					"destination" : [ "obj-155", 0 ],
					"order" : 0,
					"source" : [ "obj-93", 0 ]
				}

			}
, 			{
				"patchline" : 				{
					"destination" : [ "obj-90", 0 ],
					"order" : 1,
					"source" : [ "obj-93", 0 ]
				}

			}
, 			{
				"patchline" : 				{
					"destination" : [ "obj-149", 0 ],
					"order" : 0,
					"source" : [ "obj-94", 0 ]
				}

			}
, 			{
				"patchline" : 				{
					"destination" : [ "obj-88", 0 ],
					"order" : 1,
					"source" : [ "obj-94", 0 ]
				}

			}
, 			{
				"patchline" : 				{
					"destination" : [ "obj-111", 1 ],
					"source" : [ "obj-95", 0 ]
				}

			}
, 			{
				"patchline" : 				{
					"destination" : [ "obj-113", 1 ],
					"source" : [ "obj-96", 0 ]
				}

			}
 ],
		"styles" : [ 			{
				"name" : "AudioStatus_Menu",
				"default" : 				{
					"bgfillcolor" : 					{
						"angle" : 270.0,
						"autogradient" : 0,
						"color" : [ 0.294118, 0.313726, 0.337255, 1 ],
						"color1" : [ 0.454902, 0.462745, 0.482353, 0.0 ],
						"color2" : [ 0.290196, 0.309804, 0.301961, 1.0 ],
						"proportion" : 0.39,
						"type" : "color"
					}

				}
,
				"parentstyle" : "",
				"multi" : 0
			}
, 			{
				"name" : "DB FAVE 11/17",
				"parentstyle" : "",
				"multi" : 0
			}
, 			{
				"name" : "DB-FAVE-11-17a",
				"default" : 				{
					"clearcolor" : [ 1.0, 1.0, 1.0, 0.0 ]
				}
,
				"parentstyle" : "",
				"multi" : 0
			}
, 			{
				"name" : "DB-Nov18",
				"parentstyle" : "DB-FAVE-11-17a",
				"multi" : 0
			}
, 			{
				"name" : "DB_template",
				"parentstyle" : "DB-FAVE-11-17a",
				"multi" : 0
			}
, 			{
				"name" : "Manuel1",
				"default" : 				{
					"bgfillcolor" : 					{
						"angle" : 270.0,
						"color" : [ 0.290196, 0.309804, 0.301961, 1.0 ],
						"color1" : [ 0.376471, 0.384314, 0.4, 1.0 ],
						"color2" : [ 0.290196, 0.309804, 0.301961, 1.0 ],
						"proportion" : 0.39,
						"type" : "gradient"
					}
,
					"fontface" : [ 0 ],
					"fontname" : [ "Arial Bold" ],
					"fontsize" : [ 10.0 ]
				}
,
				"parentstyle" : "",
				"multi" : 0
			}
, 			{
				"name" : "ksliderWhite",
				"default" : 				{
					"color" : [ 1.0, 1.0, 1.0, 1.0 ]
				}
,
				"parentstyle" : "",
				"multi" : 0
			}
, 			{
				"name" : "newobjBlue-1",
				"default" : 				{
					"accentcolor" : [ 0.317647, 0.654902, 0.976471, 1.0 ]
				}
,
				"parentstyle" : "",
				"multi" : 0
			}
, 			{
				"name" : "newobjBrown-1",
				"default" : 				{
					"accentcolor" : [ 0.654902, 0.572549, 0.376471, 1.0 ]
				}
,
				"parentstyle" : "",
				"multi" : 0
			}
, 			{
				"name" : "newobjGreen-1",
				"default" : 				{
					"accentcolor" : [ 0.0, 0.533333, 0.168627, 1.0 ]
				}
,
				"parentstyle" : "",
				"multi" : 0
			}
, 			{
				"name" : "newobjYellow-1",
				"default" : 				{
					"accentcolor" : [ 0.82517, 0.78181, 0.059545, 1.0 ],
					"fontsize" : [ 12.059008 ]
				}
,
				"parentstyle" : "",
				"multi" : 0
			}
, 			{
				"name" : "numberGold-1",
				"default" : 				{
					"accentcolor" : [ 0.764706, 0.592157, 0.101961, 1.0 ]
				}
,
				"parentstyle" : "",
				"multi" : 0
			}
, 			{
				"name" : "rsliderGold",
				"default" : 				{
					"bgcolor" : [ 0.764706, 0.592157, 0.101961, 1.0 ],
					"color" : [ 0.646639, 0.821777, 0.854593, 1.0 ]
				}
,
				"parentstyle" : "",
				"multi" : 0
			}
 ],
		"bgcolor" : [ 1.0, 1.0, 1.0, 1.0 ]
	}

}
