{
	"patcher" : 	{
		"fileversion" : 1,
		"appversion" : 		{
			"major" : 5,
			"minor" : 1,
			"revision" : 9
		}
,
		"rect" : [ 2257.0, 198.0, 805.0, 744.0 ],
		"bglocked" : 0,
		"defrect" : [ 2257.0, 198.0, 805.0, 744.0 ],
		"openrect" : [ 0.0, 0.0, 0.0, 0.0 ],
		"openinpresentation" : 0,
		"default_fontsize" : 12.0,
		"default_fontface" : 0,
		"default_fontname" : "Arial",
		"gridonopen" : 0,
		"gridsize" : [ 15.0, 15.0 ],
		"gridsnaponopen" : 0,
		"toolbarvisible" : 1,
		"boxanimatetime" : 200,
		"imprint" : 0,
		"enablehscroll" : 1,
		"enablevscroll" : 1,
		"devicewidth" : 0.0,
		"boxes" : [ 			{
				"box" : 				{
					"maxclass" : "newobj",
					"text" : "r NL-rot14+",
					"numinlets" : 0,
					"numoutlets" : 1,
					"fontsize" : 9.0,
					"outlettype" : [ "" ],
					"color" : [ 0.4, 0.4, 0.109804, 1.0 ],
					"bgcolor" : [ 1.0, 1.0, 0.305882, 1.0 ],
					"patching_rect" : [ 499.127563, 96.360626, 56.0, 17.0 ],
					"id" : "obj-25",
					"hidden" : 1,
					"fontname" : "Arial"
				}

			}
, 			{
				"box" : 				{
					"maxclass" : "newobj",
					"text" : "r NL-rot6+",
					"numinlets" : 0,
					"numoutlets" : 1,
					"fontsize" : 9.0,
					"outlettype" : [ "" ],
					"color" : [ 0.4, 0.4, 0.109804, 1.0 ],
					"bgcolor" : [ 1.0, 1.0, 0.305882, 1.0 ],
					"patching_rect" : [ 624.440308, 266.668274, 51.0, 17.0 ],
					"id" : "obj-24",
					"hidden" : 1,
					"fontname" : "Arial"
				}

			}
, 			{
				"box" : 				{
					"maxclass" : "comment",
					"text" : "resonance",
					"numinlets" : 1,
					"numoutlets" : 0,
					"fontsize" : 14.0,
					"patching_rect" : [ 423.012817, 261.769043, 89.046448, 23.0 ],
					"id" : "obj-23",
					"fontname" : "Arial Rounded MT Bold"
				}

			}
, 			{
				"box" : 				{
					"maxclass" : "comment",
					"text" : "14",
					"numinlets" : 1,
					"numoutlets" : 0,
					"fontsize" : 14.0,
					"patching_rect" : [ 425.773315, 239.137543, 25.346449, 23.0 ],
					"id" : "obj-21",
					"fontname" : "Arial Rounded MT Bold"
				}

			}
, 			{
				"box" : 				{
					"maxclass" : "dial",
					"fgcolor" : [ 0.666667, 0.666667, 0.666667, 1.0 ],
					"numinlets" : 1,
					"needlecolor" : [ 0.0, 0.0, 0.0, 1.0 ],
					"numoutlets" : 1,
					"outlettype" : [ "float" ],
					"presentation_rect" : [ 1438.273804, 412.976593, 32.0, 32.0 ],
					"bgcolor" : [ 0.866667, 0.866667, 0.866667, 1.0 ],
					"outlinecolor" : [ 0.882353, 0.882353, 0.882353, 1.0 ],
					"patching_rect" : [ 427.773315, 210.976593, 32.0, 32.0 ],
					"presentation" : 1,
					"id" : "obj-22"
				}

			}
, 			{
				"box" : 				{
					"maxclass" : "comment",
					"text" : "6",
					"numinlets" : 1,
					"numoutlets" : 0,
					"fontsize" : 14.0,
					"patching_rect" : [ 427.712769, 338.894043, 25.346449, 23.0 ],
					"id" : "obj-19",
					"fontname" : "Arial Rounded MT Bold"
				}

			}
, 			{
				"box" : 				{
					"maxclass" : "dial",
					"fgcolor" : [ 0.666667, 0.666667, 0.666667, 1.0 ],
					"numinlets" : 1,
					"needlecolor" : [ 0.0, 0.0, 0.0, 1.0 ],
					"numoutlets" : 1,
					"outlettype" : [ "float" ],
					"presentation_rect" : [ 1394.273804, 411.976593, 32.0, 32.0 ],
					"bgcolor" : [ 0.866667, 0.866667, 0.866667, 1.0 ],
					"outlinecolor" : [ 0.882353, 0.882353, 0.882353, 1.0 ],
					"patching_rect" : [ 424.358276, 306.976593, 32.0, 32.0 ],
					"presentation" : 1,
					"id" : "obj-20"
				}

			}
, 			{
				"box" : 				{
					"maxclass" : "newobj",
					"text" : "scale 0 128 0 22",
					"numinlets" : 6,
					"numoutlets" : 1,
					"fontsize" : 9.0,
					"outlettype" : [ "" ],
					"patching_rect" : [ 559.761475, 392.348846, 86.5, 17.0 ],
					"id" : "obj-18",
					"hidden" : 1,
					"fontname" : "Arial"
				}

			}
, 			{
				"box" : 				{
					"maxclass" : "newobj",
					"text" : "scale 0 128 0 22",
					"numinlets" : 6,
					"numoutlets" : 1,
					"fontsize" : 9.0,
					"outlettype" : [ "" ],
					"patching_rect" : [ 469.761475, 392.348846, 86.5, 17.0 ],
					"id" : "obj-16",
					"hidden" : 1,
					"fontname" : "Arial"
				}

			}
, 			{
				"box" : 				{
					"maxclass" : "newobj",
					"text" : "s Rfilt-reson",
					"numinlets" : 1,
					"numoutlets" : 0,
					"fontsize" : 9.0,
					"color" : [ 1.0, 0.090196, 0.090196, 1.0 ],
					"patching_rect" : [ 468.0, 414.0, 59.0, 17.0 ],
					"id" : "obj-118",
					"fontname" : "Arial"
				}

			}
, 			{
				"box" : 				{
					"maxclass" : "newobj",
					"text" : "s Lfilt-reson",
					"numinlets" : 1,
					"numoutlets" : 0,
					"fontsize" : 9.0,
					"color" : [ 1.0, 0.090196, 0.090196, 1.0 ],
					"patching_rect" : [ 556.620911, 414.379089, 57.0, 17.0 ],
					"id" : "obj-117",
					"fontname" : "Arial"
				}

			}
, 			{
				"box" : 				{
					"maxclass" : "newobj",
					"text" : "scale 0 128 1000 0",
					"numinlets" : 6,
					"numoutlets" : 1,
					"fontsize" : 9.0,
					"outlettype" : [ "" ],
					"patching_rect" : [ 265.409637, 470.767456, 87.0, 17.0 ],
					"id" : "obj-11",
					"hidden" : 1,
					"fontname" : "Arial"
				}

			}
, 			{
				"box" : 				{
					"maxclass" : "newobj",
					"text" : "s filt-tempoR",
					"numinlets" : 1,
					"numoutlets" : 0,
					"fontsize" : 9.0,
					"color" : [ 0.984314, 0.184314, 0.184314, 1.0 ],
					"patching_rect" : [ 279.928009, 497.168701, 61.0, 17.0 ],
					"id" : "obj-12",
					"hidden" : 1,
					"fontname" : "Arial"
				}

			}
, 			{
				"box" : 				{
					"maxclass" : "newobj",
					"text" : "scale 0 128 1000 0",
					"numinlets" : 6,
					"numoutlets" : 1,
					"fontsize" : 9.0,
					"outlettype" : [ "" ],
					"patching_rect" : [ 124.735176, 462.597595, 87.0, 17.0 ],
					"id" : "obj-9",
					"hidden" : 1,
					"fontname" : "Arial"
				}

			}
, 			{
				"box" : 				{
					"maxclass" : "newobj",
					"text" : "s filt-tempoL",
					"numinlets" : 1,
					"numoutlets" : 0,
					"fontsize" : 9.0,
					"color" : [ 0.984314, 0.184314, 0.184314, 1.0 ],
					"patching_rect" : [ 136.5215, 486.266785, 60.0, 17.0 ],
					"id" : "obj-10",
					"hidden" : 1,
					"fontname" : "Arial"
				}

			}
, 			{
				"box" : 				{
					"maxclass" : "newobj",
					"text" : "r filt-tempoL",
					"numinlets" : 0,
					"numoutlets" : 1,
					"fontsize" : 9.0,
					"outlettype" : [ "" ],
					"color" : [ 0.67451, 0.615686, 0.172549, 1.0 ],
					"bgcolor" : [ 1.0, 0.956863, 0.698039, 1.0 ],
					"patching_rect" : [ 41.0, 600.0, 68.0, 17.0 ],
					"id" : "obj-45",
					"fontname" : "Arial"
				}

			}
, 			{
				"box" : 				{
					"maxclass" : "newobj",
					"text" : "s audio2-out",
					"numinlets" : 1,
					"numoutlets" : 0,
					"fontsize" : 9.0,
					"color" : [ 0.984314, 0.184314, 0.184314, 1.0 ],
					"patching_rect" : [ 95.969696, 337.412018, 60.0, 17.0 ],
					"id" : "obj-7",
					"hidden" : 1,
					"fontname" : "Arial"
				}

			}
, 			{
				"box" : 				{
					"maxclass" : "newobj",
					"text" : "s audio1-out",
					"numinlets" : 1,
					"numoutlets" : 0,
					"fontsize" : 9.0,
					"color" : [ 0.984314, 0.184314, 0.184314, 1.0 ],
					"patching_rect" : [ 38.540627, 336.660706, 60.0, 17.0 ],
					"id" : "obj-8",
					"hidden" : 1,
					"fontname" : "Arial"
				}

			}
, 			{
				"box" : 				{
					"maxclass" : "newobj",
					"text" : "s fiddle~in2",
					"numinlets" : 1,
					"numoutlets" : 0,
					"fontsize" : 9.0,
					"color" : [ 0.984314, 0.184314, 0.184314, 1.0 ],
					"patching_rect" : [ 189.432236, 346.112579, 56.0, 17.0 ],
					"id" : "obj-6",
					"hidden" : 1,
					"fontname" : "Arial"
				}

			}
, 			{
				"box" : 				{
					"maxclass" : "newobj",
					"text" : "s fiddle~in1",
					"numinlets" : 1,
					"numoutlets" : 0,
					"fontsize" : 9.0,
					"color" : [ 0.984314, 0.184314, 0.184314, 1.0 ],
					"patching_rect" : [ 146.551346, 360.455841, 56.0, 17.0 ],
					"id" : "obj-5",
					"hidden" : 1,
					"fontname" : "Arial"
				}

			}
, 			{
				"box" : 				{
					"maxclass" : "newobj",
					"text" : "s mf-R",
					"numinlets" : 1,
					"numoutlets" : 0,
					"fontsize" : 9.0,
					"color" : [ 0.984314, 0.184314, 0.184314, 1.0 ],
					"patching_rect" : [ 423.525635, 402.295532, 37.0, 17.0 ],
					"id" : "obj-3",
					"hidden" : 1,
					"fontname" : "Arial"
				}

			}
, 			{
				"box" : 				{
					"maxclass" : "newobj",
					"text" : "scale 0 128 0 10",
					"numinlets" : 6,
					"numoutlets" : 1,
					"fontsize" : 9.0,
					"outlettype" : [ "" ],
					"patching_rect" : [ 331.761475, 418.348846, 86.5, 17.0 ],
					"id" : "obj-1",
					"hidden" : 1,
					"fontname" : "Arial"
				}

			}
, 			{
				"box" : 				{
					"maxclass" : "newobj",
					"text" : "s adder-R",
					"numinlets" : 1,
					"numoutlets" : 0,
					"fontsize" : 9.0,
					"color" : [ 0.984314, 0.184314, 0.184314, 1.0 ],
					"patching_rect" : [ 347.645874, 444.750092, 50.0, 17.0 ],
					"id" : "obj-2",
					"hidden" : 1,
					"fontname" : "Arial"
				}

			}
, 			{
				"box" : 				{
					"maxclass" : "comment",
					"text" : "Ch 1 / Ch 2",
					"numinlets" : 1,
					"numoutlets" : 0,
					"fontsize" : 14.0,
					"patching_rect" : [ 193.226807, 171.636353, 81.0, 23.0 ],
					"id" : "obj-259",
					"fontname" : "Arial Rounded MT Bold"
				}

			}
, 			{
				"box" : 				{
					"maxclass" : "comment",
					"text" : "3",
					"numinlets" : 1,
					"numoutlets" : 0,
					"fontsize" : 14.0,
					"patching_rect" : [ 300.115601, 338.894043, 25.346449, 23.0 ],
					"id" : "obj-393",
					"fontname" : "Arial Rounded MT Bold"
				}

			}
, 			{
				"box" : 				{
					"maxclass" : "newobj",
					"text" : "r NL-rot3+",
					"numinlets" : 0,
					"numoutlets" : 1,
					"fontsize" : 9.0,
					"outlettype" : [ "" ],
					"color" : [ 0.4, 0.4, 0.109804, 1.0 ],
					"bgcolor" : [ 1.0, 1.0, 0.305882, 1.0 ],
					"patching_rect" : [ 68.0, 217.687927, 51.0, 17.0 ],
					"id" : "obj-388",
					"hidden" : 1,
					"fontname" : "Arial"
				}

			}
, 			{
				"box" : 				{
					"maxclass" : "dial",
					"fgcolor" : [ 0.666667, 0.666667, 0.666667, 1.0 ],
					"numinlets" : 1,
					"needlecolor" : [ 0.0, 0.0, 0.0, 1.0 ],
					"numoutlets" : 1,
					"outlettype" : [ "float" ],
					"presentation_rect" : [ 1297.022705, 396.976593, 32.0, 32.0 ],
					"bgcolor" : [ 0.866667, 0.866667, 0.866667, 1.0 ],
					"outlinecolor" : [ 0.882353, 0.882353, 0.882353, 1.0 ],
					"patching_rect" : [ 294.522217, 306.976593, 32.0, 32.0 ],
					"presentation" : 1,
					"id" : "obj-126"
				}

			}
, 			{
				"box" : 				{
					"maxclass" : "comment",
					"text" : "range",
					"numinlets" : 1,
					"numoutlets" : 0,
					"fontsize" : 14.0,
					"patching_rect" : [ 377.012817, 261.769043, 49.046448, 23.0 ],
					"id" : "obj-387",
					"fontname" : "Arial Rounded MT Bold"
				}

			}
, 			{
				"box" : 				{
					"maxclass" : "comment",
					"text" : "adder",
					"numinlets" : 1,
					"numoutlets" : 0,
					"fontsize" : 14.0,
					"patching_rect" : [ 331.071808, 261.860016, 55.046448, 23.0 ],
					"id" : "obj-386",
					"fontname" : "Arial Rounded MT Bold"
				}

			}
, 			{
				"box" : 				{
					"maxclass" : "comment",
					"text" : "tempo",
					"numinlets" : 1,
					"numoutlets" : 0,
					"fontsize" : 14.0,
					"patching_rect" : [ 280.312744, 261.769043, 55.046448, 23.0 ],
					"id" : "obj-385",
					"fontname" : "Arial Rounded MT Bold"
				}

			}
, 			{
				"box" : 				{
					"maxclass" : "newobj",
					"text" : "r NL-rot11+",
					"numinlets" : 0,
					"numoutlets" : 1,
					"fontsize" : 9.0,
					"outlettype" : [ "" ],
					"color" : [ 0.4, 0.4, 0.109804, 1.0 ],
					"bgcolor" : [ 1.0, 1.0, 0.305882, 1.0 ],
					"patching_rect" : [ 442.678467, 47.230316, 56.0, 17.0 ],
					"id" : "obj-384",
					"hidden" : 1,
					"fontname" : "Arial"
				}

			}
, 			{
				"box" : 				{
					"maxclass" : "comment",
					"text" : "11",
					"numinlets" : 1,
					"numoutlets" : 0,
					"fontsize" : 14.0,
					"patching_rect" : [ 295.162872, 239.137543, 25.346449, 23.0 ],
					"id" : "obj-29",
					"fontname" : "Arial Rounded MT Bold"
				}

			}
, 			{
				"box" : 				{
					"maxclass" : "dial",
					"fgcolor" : [ 0.666667, 0.666667, 0.666667, 1.0 ],
					"numinlets" : 1,
					"needlecolor" : [ 0.0, 0.0, 0.0, 1.0 ],
					"numoutlets" : 1,
					"outlettype" : [ "float" ],
					"presentation_rect" : [ 1294.0, 300.697998, 32.0, 32.0 ],
					"bgcolor" : [ 0.866667, 0.866667, 0.866667, 1.0 ],
					"outlinecolor" : [ 0.882353, 0.882353, 0.882353, 1.0 ],
					"patching_rect" : [ 291.499512, 210.697998, 32.0, 32.0 ],
					"presentation" : 1,
					"id" : "obj-342"
				}

			}
, 			{
				"box" : 				{
					"maxclass" : "comment",
					"text" : "to R-filt",
					"numinlets" : 1,
					"numoutlets" : 0,
					"fontsize" : 14.0,
					"presentation_rect" : [ 1324.673218, 375.995453, 70.346451, 23.0 ],
					"patching_rect" : [ 319.172729, 285.995453, 70.346451, 23.0 ],
					"presentation" : 1,
					"id" : "obj-383",
					"fontname" : "Arial Rounded MT Bold"
				}

			}
, 			{
				"box" : 				{
					"maxclass" : "comment",
					"text" : "to L-filt",
					"numinlets" : 1,
					"numoutlets" : 0,
					"fontsize" : 14.0,
					"presentation_rect" : [ 1319.937622, 281.35611, 70.346451, 23.0 ],
					"patching_rect" : [ 317.437134, 191.35611, 70.346451, 23.0 ],
					"presentation" : 1,
					"id" : "obj-382",
					"fontname" : "Arial Rounded MT Bold"
				}

			}
, 			{
				"box" : 				{
					"maxclass" : "newobj",
					"text" : "r NL-rot4+",
					"numinlets" : 0,
					"numoutlets" : 1,
					"fontsize" : 9.0,
					"outlettype" : [ "" ],
					"color" : [ 0.4, 0.4, 0.109804, 1.0 ],
					"bgcolor" : [ 1.0, 1.0, 0.305882, 1.0 ],
					"patching_rect" : [ 584.845703, 230.693298, 51.0, 17.0 ],
					"id" : "obj-380",
					"hidden" : 1,
					"fontname" : "Arial"
				}

			}
, 			{
				"box" : 				{
					"maxclass" : "newobj",
					"text" : "r NL-rot5+",
					"numinlets" : 0,
					"numoutlets" : 1,
					"fontsize" : 9.0,
					"outlettype" : [ "" ],
					"color" : [ 0.4, 0.4, 0.109804, 1.0 ],
					"bgcolor" : [ 1.0, 1.0, 0.305882, 1.0 ],
					"patching_rect" : [ 606.440308, 248.668274, 51.0, 17.0 ],
					"id" : "obj-381",
					"hidden" : 1,
					"fontname" : "Arial"
				}

			}
, 			{
				"box" : 				{
					"maxclass" : "comment",
					"text" : "5",
					"numinlets" : 1,
					"numoutlets" : 0,
					"fontsize" : 14.0,
					"patching_rect" : [ 379.712769, 338.894043, 25.346449, 23.0 ],
					"id" : "obj-373",
					"fontname" : "Arial Rounded MT Bold"
				}

			}
, 			{
				"box" : 				{
					"maxclass" : "comment",
					"text" : "4",
					"numinlets" : 1,
					"numoutlets" : 0,
					"fontsize" : 14.0,
					"patching_rect" : [ 338.70752, 338.894043, 25.346449, 23.0 ],
					"id" : "obj-374",
					"fontname" : "Arial Rounded MT Bold"
				}

			}
, 			{
				"box" : 				{
					"maxclass" : "dial",
					"fgcolor" : [ 0.666667, 0.666667, 0.666667, 1.0 ],
					"numinlets" : 1,
					"needlecolor" : [ 0.0, 0.0, 0.0, 1.0 ],
					"numoutlets" : 1,
					"outlettype" : [ "float" ],
					"presentation_rect" : [ 1379.273804, 396.976593, 32.0, 32.0 ],
					"bgcolor" : [ 0.866667, 0.866667, 0.866667, 1.0 ],
					"outlinecolor" : [ 0.882353, 0.882353, 0.882353, 1.0 ],
					"patching_rect" : [ 376.773315, 306.976593, 32.0, 32.0 ],
					"presentation" : 1,
					"id" : "obj-376"
				}

			}
, 			{
				"box" : 				{
					"maxclass" : "dial",
					"fgcolor" : [ 0.666667, 0.666667, 0.666667, 1.0 ],
					"numinlets" : 1,
					"needlecolor" : [ 0.0, 0.0, 0.0, 1.0 ],
					"numoutlets" : 1,
					"outlettype" : [ "float" ],
					"presentation_rect" : [ 1336.248779, 396.976593, 32.0, 32.0 ],
					"bgcolor" : [ 0.866667, 0.866667, 0.866667, 1.0 ],
					"outlinecolor" : [ 0.882353, 0.882353, 0.882353, 1.0 ],
					"patching_rect" : [ 333.748291, 306.976593, 32.0, 32.0 ],
					"presentation" : 1,
					"id" : "obj-379"
				}

			}
, 			{
				"box" : 				{
					"maxclass" : "comment",
					"text" : "13",
					"numinlets" : 1,
					"numoutlets" : 0,
					"fontsize" : 14.0,
					"patching_rect" : [ 376.987793, 239.137543, 25.346449, 23.0 ],
					"id" : "obj-371",
					"fontname" : "Arial Rounded MT Bold"
				}

			}
, 			{
				"box" : 				{
					"maxclass" : "comment",
					"text" : "12",
					"numinlets" : 1,
					"numoutlets" : 0,
					"fontsize" : 14.0,
					"patching_rect" : [ 334.479858, 239.137543, 25.346449, 23.0 ],
					"id" : "obj-372",
					"fontname" : "Arial Rounded MT Bold"
				}

			}
, 			{
				"box" : 				{
					"maxclass" : "newobj",
					"text" : "s mf-L",
					"numinlets" : 1,
					"numoutlets" : 0,
					"fontsize" : 9.0,
					"color" : [ 0.984314, 0.184314, 0.184314, 1.0 ],
					"patching_rect" : [ 575.525635, 322.295532, 36.0, 17.0 ],
					"id" : "obj-370",
					"hidden" : 1,
					"fontname" : "Arial"
				}

			}
, 			{
				"box" : 				{
					"maxclass" : "newobj",
					"text" : "r NL-rot13+",
					"numinlets" : 0,
					"numoutlets" : 1,
					"fontsize" : 9.0,
					"outlettype" : [ "" ],
					"color" : [ 0.4, 0.4, 0.109804, 1.0 ],
					"bgcolor" : [ 1.0, 1.0, 0.305882, 1.0 ],
					"patching_rect" : [ 481.395508, 80.677612, 56.0, 17.0 ],
					"id" : "obj-369",
					"hidden" : 1,
					"fontname" : "Arial"
				}

			}
, 			{
				"box" : 				{
					"maxclass" : "dial",
					"fgcolor" : [ 0.666667, 0.666667, 0.666667, 1.0 ],
					"numinlets" : 1,
					"needlecolor" : [ 0.0, 0.0, 0.0, 1.0 ],
					"numoutlets" : 1,
					"outlettype" : [ "float" ],
					"presentation_rect" : [ 1378.273804, 301.497986, 32.0, 32.0 ],
					"bgcolor" : [ 0.866667, 0.866667, 0.866667, 1.0 ],
					"outlinecolor" : [ 0.882353, 0.882353, 0.882353, 1.0 ],
					"patching_rect" : [ 375.773315, 211.497986, 32.0, 32.0 ],
					"presentation" : 1,
					"id" : "obj-368"
				}

			}
, 			{
				"box" : 				{
					"maxclass" : "newobj",
					"text" : "scale 0 128 0 10",
					"numinlets" : 6,
					"numoutlets" : 1,
					"fontsize" : 9.0,
					"outlettype" : [ "" ],
					"patching_rect" : [ 189.682587, 422.397888, 86.5, 17.0 ],
					"id" : "obj-367",
					"hidden" : 1,
					"fontname" : "Arial"
				}

			}
, 			{
				"box" : 				{
					"maxclass" : "newobj",
					"text" : "s adder-L",
					"numinlets" : 1,
					"numoutlets" : 0,
					"fontsize" : 9.0,
					"color" : [ 0.984314, 0.184314, 0.184314, 1.0 ],
					"patching_rect" : [ 205.566986, 448.799133, 49.0, 17.0 ],
					"id" : "obj-341",
					"hidden" : 1,
					"fontname" : "Arial"
				}

			}
, 			{
				"box" : 				{
					"maxclass" : "newobj",
					"text" : "r NL-rot12+",
					"numinlets" : 0,
					"numoutlets" : 1,
					"fontsize" : 9.0,
					"outlettype" : [ "" ],
					"color" : [ 0.4, 0.4, 0.109804, 1.0 ],
					"bgcolor" : [ 1.0, 1.0, 0.305882, 1.0 ],
					"patching_rect" : [ 473.401978, 64.976364, 56.0, 17.0 ],
					"id" : "obj-254",
					"hidden" : 1,
					"fontname" : "Arial"
				}

			}
, 			{
				"box" : 				{
					"maxclass" : "dial",
					"fgcolor" : [ 0.666667, 0.666667, 0.666667, 1.0 ],
					"numinlets" : 1,
					"needlecolor" : [ 0.0, 0.0, 0.0, 1.0 ],
					"numoutlets" : 1,
					"outlettype" : [ "float" ],
					"presentation_rect" : [ 1335.248779, 300.44931, 32.0, 32.0 ],
					"bgcolor" : [ 0.866667, 0.866667, 0.866667, 1.0 ],
					"outlinecolor" : [ 0.882353, 0.882353, 0.882353, 1.0 ],
					"patching_rect" : [ 332.748291, 210.44931, 32.0, 32.0 ],
					"presentation" : 1,
					"id" : "obj-39"
				}

			}
, 			{
				"box" : 				{
					"maxclass" : "newobj",
					"text" : "r NL-rot9+",
					"numinlets" : 0,
					"numoutlets" : 1,
					"fontsize" : 9.0,
					"outlettype" : [ "" ],
					"color" : [ 0.4, 0.4, 0.109804, 1.0 ],
					"bgcolor" : [ 1.0, 1.0, 0.305882, 1.0 ],
					"patching_rect" : [ 95.490356, 58.654556, 51.0, 17.0 ],
					"id" : "obj-38",
					"hidden" : 1,
					"fontname" : "Arial"
				}

			}
, 			{
				"box" : 				{
					"maxclass" : "newobj",
					"text" : "r NL-rot1+",
					"numinlets" : 0,
					"numoutlets" : 1,
					"fontsize" : 9.0,
					"outlettype" : [ "" ],
					"color" : [ 0.4, 0.4, 0.109804, 1.0 ],
					"bgcolor" : [ 1.0, 1.0, 0.305882, 1.0 ],
					"patching_rect" : [ 49.490356, 114.654556, 51.0, 17.0 ],
					"id" : "obj-40",
					"hidden" : 1,
					"fontname" : "Arial"
				}

			}
, 			{
				"box" : 				{
					"maxclass" : "newobj",
					"text" : "r NL-rot2+",
					"numinlets" : 0,
					"numoutlets" : 1,
					"fontsize" : 9.0,
					"outlettype" : [ "" ],
					"color" : [ 0.4, 0.4, 0.109804, 1.0 ],
					"bgcolor" : [ 1.0, 1.0, 0.305882, 1.0 ],
					"patching_rect" : [ 84.490356, 129.654541, 51.0, 17.0 ],
					"id" : "obj-42",
					"hidden" : 1,
					"fontname" : "Arial"
				}

			}
, 			{
				"box" : 				{
					"maxclass" : "newobj",
					"text" : "r NL-rot10+",
					"numinlets" : 0,
					"numoutlets" : 1,
					"fontsize" : 9.0,
					"outlettype" : [ "" ],
					"color" : [ 0.4, 0.4, 0.109804, 1.0 ],
					"bgcolor" : [ 1.0, 1.0, 0.305882, 1.0 ],
					"patching_rect" : [ 129.490356, 75.654556, 56.0, 17.0 ],
					"id" : "obj-43",
					"hidden" : 1,
					"fontname" : "Arial"
				}

			}
, 			{
				"box" : 				{
					"maxclass" : "comment",
					"text" : "to fiddle",
					"numinlets" : 1,
					"numoutlets" : 0,
					"fontsize" : 14.0,
					"presentation_rect" : [ 1198.727295, 345.181824, 70.346451, 23.0 ],
					"patching_rect" : [ 196.226807, 264.181824, 70.346451, 23.0 ],
					"presentation" : 1,
					"id" : "obj-37",
					"fontname" : "Arial Rounded MT Bold"
				}

			}
, 			{
				"box" : 				{
					"maxclass" : "comment",
					"text" : "to house",
					"numinlets" : 1,
					"numoutlets" : 0,
					"fontsize" : 14.0,
					"presentation_rect" : [ 1197.727295, 279.636353, 70.346451, 23.0 ],
					"patching_rect" : [ 195.226807, 187.636353, 70.346451, 23.0 ],
					"presentation" : 1,
					"id" : "obj-36",
					"fontname" : "Arial Rounded MT Bold"
				}

			}
, 			{
				"box" : 				{
					"maxclass" : "comment",
					"text" : "10",
					"numinlets" : 1,
					"numoutlets" : 0,
					"fontsize" : 14.0,
					"patching_rect" : [ 239.232742, 239.137543, 25.346449, 23.0 ],
					"id" : "obj-35",
					"fontname" : "Arial Rounded MT Bold"
				}

			}
, 			{
				"box" : 				{
					"maxclass" : "comment",
					"text" : "9",
					"numinlets" : 1,
					"numoutlets" : 0,
					"fontsize" : 14.0,
					"patching_rect" : [ 201.824844, 239.137543, 25.346449, 23.0 ],
					"id" : "obj-34",
					"fontname" : "Arial Rounded MT Bold"
				}

			}
, 			{
				"box" : 				{
					"maxclass" : "comment",
					"text" : "2",
					"numinlets" : 1,
					"numoutlets" : 0,
					"fontsize" : 14.0,
					"patching_rect" : [ 241.954102, 315.181824, 25.346449, 23.0 ],
					"id" : "obj-33",
					"fontname" : "Arial Rounded MT Bold"
				}

			}
, 			{
				"box" : 				{
					"maxclass" : "comment",
					"text" : "1",
					"numinlets" : 1,
					"numoutlets" : 0,
					"fontsize" : 14.0,
					"patching_rect" : [ 200.954102, 315.181824, 25.346449, 23.0 ],
					"id" : "obj-17",
					"fontname" : "Arial Rounded MT Bold"
				}

			}
, 			{
				"box" : 				{
					"maxclass" : "dial",
					"fgcolor" : [ 0.666667, 0.666667, 0.666667, 1.0 ],
					"numinlets" : 1,
					"needlecolor" : [ 0.0, 0.0, 0.0, 1.0 ],
					"numoutlets" : 1,
					"outlettype" : [ "float" ],
					"presentation_rect" : [ 1239.272705, 298.545441, 32.0, 32.0 ],
					"bgcolor" : [ 0.866667, 0.866667, 0.866667, 1.0 ],
					"outlinecolor" : [ 0.882353, 0.882353, 0.882353, 1.0 ],
					"patching_rect" : [ 236.772217, 208.545441, 32.0, 32.0 ],
					"presentation" : 1,
					"id" : "obj-4"
				}

			}
, 			{
				"box" : 				{
					"maxclass" : "dial",
					"fgcolor" : [ 0.666667, 0.666667, 0.666667, 1.0 ],
					"numinlets" : 1,
					"needlecolor" : [ 0.0, 0.0, 0.0, 1.0 ],
					"numoutlets" : 1,
					"outlettype" : [ "float" ],
					"presentation_rect" : [ 1200.272705, 298.545441, 32.0, 32.0 ],
					"bgcolor" : [ 0.866667, 0.866667, 0.866667, 1.0 ],
					"outlinecolor" : [ 0.882353, 0.882353, 0.882353, 1.0 ],
					"patching_rect" : [ 197.772217, 208.545441, 32.0, 32.0 ],
					"presentation" : 1,
					"id" : "obj-13"
				}

			}
, 			{
				"box" : 				{
					"maxclass" : "dial",
					"fgcolor" : [ 0.666667, 0.666667, 0.666667, 1.0 ],
					"numinlets" : 1,
					"needlecolor" : [ 0.0, 0.0, 0.0, 1.0 ],
					"numoutlets" : 1,
					"outlettype" : [ "float" ],
					"presentation_rect" : [ 1238.45459, 364.181824, 32.0, 32.0 ],
					"bgcolor" : [ 0.866667, 0.866667, 0.866667, 1.0 ],
					"outlinecolor" : [ 0.882353, 0.882353, 0.882353, 1.0 ],
					"patching_rect" : [ 235.954102, 283.181824, 32.0, 32.0 ],
					"presentation" : 1,
					"id" : "obj-14"
				}

			}
, 			{
				"box" : 				{
					"maxclass" : "dial",
					"fgcolor" : [ 0.666667, 0.666667, 0.666667, 1.0 ],
					"numinlets" : 1,
					"needlecolor" : [ 0.0, 0.0, 0.0, 1.0 ],
					"numoutlets" : 1,
					"outlettype" : [ "float" ],
					"presentation_rect" : [ 1199.45459, 364.181824, 32.0, 32.0 ],
					"bgcolor" : [ 0.866667, 0.866667, 0.866667, 1.0 ],
					"outlinecolor" : [ 0.882353, 0.882353, 0.882353, 1.0 ],
					"patching_rect" : [ 196.954102, 283.181824, 32.0, 32.0 ],
					"presentation" : 1,
					"id" : "obj-15"
				}

			}
, 			{
				"box" : 				{
					"maxclass" : "panel",
					"numinlets" : 1,
					"numoutlets" : 0,
					"background" : 1,
					"bgcolor" : [ 0.662745, 0.776471, 0.823529, 1.0 ],
					"patching_rect" : [ 279.599487, 188.799988, 230.599991, 170.199997 ],
					"id" : "obj-317"
				}

			}
 ],
		"lines" : [ 			{
				"patchline" : 				{
					"source" : [ "obj-18", 0 ],
					"destination" : [ "obj-117", 0 ],
					"hidden" : 0,
					"midpoints" : [  ]
				}

			}
, 			{
				"patchline" : 				{
					"source" : [ "obj-16", 0 ],
					"destination" : [ "obj-118", 0 ],
					"hidden" : 0,
					"midpoints" : [  ]
				}

			}
, 			{
				"patchline" : 				{
					"source" : [ "obj-13", 0 ],
					"destination" : [ "obj-8", 0 ],
					"hidden" : 1,
					"midpoints" : [  ]
				}

			}
, 			{
				"patchline" : 				{
					"source" : [ "obj-4", 0 ],
					"destination" : [ "obj-7", 0 ],
					"hidden" : 1,
					"midpoints" : [  ]
				}

			}
, 			{
				"patchline" : 				{
					"source" : [ "obj-368", 0 ],
					"destination" : [ "obj-370", 0 ],
					"hidden" : 1,
					"midpoints" : [ 385.273315, 257.0, 519.15686, 257.0, 519.15686, 273.925629, 585.025635, 273.925629 ]
				}

			}
, 			{
				"patchline" : 				{
					"source" : [ "obj-367", 0 ],
					"destination" : [ "obj-341", 0 ],
					"hidden" : 1,
					"midpoints" : [  ]
				}

			}
, 			{
				"patchline" : 				{
					"source" : [ "obj-39", 0 ],
					"destination" : [ "obj-367", 0 ],
					"hidden" : 1,
					"midpoints" : [  ]
				}

			}
, 			{
				"patchline" : 				{
					"source" : [ "obj-379", 0 ],
					"destination" : [ "obj-1", 0 ],
					"hidden" : 1,
					"midpoints" : [  ]
				}

			}
, 			{
				"patchline" : 				{
					"source" : [ "obj-376", 0 ],
					"destination" : [ "obj-3", 0 ],
					"hidden" : 1,
					"midpoints" : [  ]
				}

			}
, 			{
				"patchline" : 				{
					"source" : [ "obj-40", 0 ],
					"destination" : [ "obj-15", 0 ],
					"hidden" : 1,
					"midpoints" : [  ]
				}

			}
, 			{
				"patchline" : 				{
					"source" : [ "obj-42", 0 ],
					"destination" : [ "obj-14", 0 ],
					"hidden" : 1,
					"midpoints" : [  ]
				}

			}
, 			{
				"patchline" : 				{
					"source" : [ "obj-38", 0 ],
					"destination" : [ "obj-13", 0 ],
					"hidden" : 1,
					"midpoints" : [  ]
				}

			}
, 			{
				"patchline" : 				{
					"source" : [ "obj-43", 0 ],
					"destination" : [ "obj-4", 0 ],
					"hidden" : 1,
					"midpoints" : [  ]
				}

			}
, 			{
				"patchline" : 				{
					"source" : [ "obj-388", 0 ],
					"destination" : [ "obj-126", 0 ],
					"hidden" : 1,
					"midpoints" : [  ]
				}

			}
, 			{
				"patchline" : 				{
					"source" : [ "obj-380", 0 ],
					"destination" : [ "obj-379", 0 ],
					"hidden" : 1,
					"midpoints" : [ 594.345703, 294.0, 343.248291, 294.0 ]
				}

			}
, 			{
				"patchline" : 				{
					"source" : [ "obj-381", 0 ],
					"destination" : [ "obj-376", 0 ],
					"hidden" : 1,
					"midpoints" : [ 615.940308, 298.911316, 386.273315, 298.911316 ]
				}

			}
, 			{
				"patchline" : 				{
					"source" : [ "obj-384", 0 ],
					"destination" : [ "obj-342", 0 ],
					"hidden" : 1,
					"midpoints" : [  ]
				}

			}
, 			{
				"patchline" : 				{
					"source" : [ "obj-254", 0 ],
					"destination" : [ "obj-39", 0 ],
					"hidden" : 1,
					"midpoints" : [  ]
				}

			}
, 			{
				"patchline" : 				{
					"source" : [ "obj-369", 0 ],
					"destination" : [ "obj-368", 0 ],
					"hidden" : 1,
					"midpoints" : [  ]
				}

			}
, 			{
				"patchline" : 				{
					"source" : [ "obj-1", 0 ],
					"destination" : [ "obj-2", 0 ],
					"hidden" : 1,
					"midpoints" : [  ]
				}

			}
, 			{
				"patchline" : 				{
					"source" : [ "obj-15", 0 ],
					"destination" : [ "obj-5", 0 ],
					"hidden" : 1,
					"midpoints" : [  ]
				}

			}
, 			{
				"patchline" : 				{
					"source" : [ "obj-14", 0 ],
					"destination" : [ "obj-6", 0 ],
					"hidden" : 1,
					"midpoints" : [  ]
				}

			}
, 			{
				"patchline" : 				{
					"source" : [ "obj-9", 0 ],
					"destination" : [ "obj-10", 0 ],
					"hidden" : 1,
					"midpoints" : [  ]
				}

			}
, 			{
				"patchline" : 				{
					"source" : [ "obj-342", 0 ],
					"destination" : [ "obj-9", 0 ],
					"hidden" : 1,
					"midpoints" : [  ]
				}

			}
, 			{
				"patchline" : 				{
					"source" : [ "obj-11", 0 ],
					"destination" : [ "obj-12", 0 ],
					"hidden" : 1,
					"midpoints" : [  ]
				}

			}
, 			{
				"patchline" : 				{
					"source" : [ "obj-126", 0 ],
					"destination" : [ "obj-11", 0 ],
					"hidden" : 1,
					"midpoints" : [  ]
				}

			}
, 			{
				"patchline" : 				{
					"source" : [ "obj-20", 0 ],
					"destination" : [ "obj-16", 0 ],
					"hidden" : 1,
					"midpoints" : [  ]
				}

			}
, 			{
				"patchline" : 				{
					"source" : [ "obj-22", 0 ],
					"destination" : [ "obj-18", 0 ],
					"hidden" : 1,
					"midpoints" : [  ]
				}

			}
, 			{
				"patchline" : 				{
					"source" : [ "obj-24", 0 ],
					"destination" : [ "obj-20", 0 ],
					"hidden" : 1,
					"midpoints" : [ 633.940308, 301.891907, 433.858276, 301.891907 ]
				}

			}
, 			{
				"patchline" : 				{
					"source" : [ "obj-25", 0 ],
					"destination" : [ "obj-22", 0 ],
					"hidden" : 1,
					"midpoints" : [  ]
				}

			}
 ]
	}

}
