{
	"patcher" : 	{
		"fileversion" : 1,
		"appversion" : 		{
			"major" : 5,
			"minor" : 1,
			"revision" : 9
		}
,
		"rect" : [ 2285.0, 144.0, 958.0, 619.0 ],
		"bglocked" : 0,
		"defrect" : [ 2285.0, 144.0, 958.0, 619.0 ],
		"openrect" : [ 0.0, 0.0, 0.0, 0.0 ],
		"openinpresentation" : 0,
		"default_fontsize" : 12.0,
		"default_fontface" : 0,
		"default_fontname" : "Arial",
		"gridonopen" : 0,
		"gridsize" : [ 15.0, 15.0 ],
		"gridsnaponopen" : 0,
		"toolbarvisible" : 1,
		"boxanimatetime" : 200,
		"imprint" : 0,
		"enablehscroll" : 1,
		"enablevscroll" : 1,
		"devicewidth" : 0.0,
		"boxes" : [ 			{
				"box" : 				{
					"maxclass" : "comment",
					"text" : "inners R",
					"fontname" : "Arial",
					"fontsize" : 14.0,
					"numinlets" : 1,
					"patching_rect" : [ 473.0, 153.0, 67.0, 23.0 ],
					"id" : "obj-58",
					"numoutlets" : 0
				}

			}
, 			{
				"box" : 				{
					"maxclass" : "comment",
					"text" : "inners C",
					"fontname" : "Arial",
					"fontsize" : 14.0,
					"numinlets" : 1,
					"patching_rect" : [ 360.0, 153.0, 67.0, 23.0 ],
					"id" : "obj-57",
					"numoutlets" : 0
				}

			}
, 			{
				"box" : 				{
					"maxclass" : "comment",
					"text" : "inners L",
					"fontname" : "Arial",
					"fontsize" : 14.0,
					"numinlets" : 1,
					"patching_rect" : [ 233.0, 153.0, 67.0, 23.0 ],
					"id" : "obj-56",
					"numoutlets" : 0
				}

			}
, 			{
				"box" : 				{
					"maxclass" : "comment",
					"text" : "FastNotes-R",
					"fontname" : "Arial",
					"fontsize" : 14.0,
					"numinlets" : 1,
					"patching_rect" : [ 575.0, 153.0, 89.0, 23.0 ],
					"id" : "obj-55",
					"numoutlets" : 0
				}

			}
, 			{
				"box" : 				{
					"maxclass" : "newobj",
					"text" : "r ptt5",
					"outlettype" : [ "" ],
					"fontname" : "Arial",
					"fontsize" : 11.0,
					"color" : [ 1.0, 0.890196, 0.090196, 1.0 ],
					"numinlets" : 0,
					"patching_rect" : [ 640.223083, 25.041323, 36.0, 19.0 ],
					"id" : "obj-54",
					"numoutlets" : 1
				}

			}
, 			{
				"box" : 				{
					"maxclass" : "newobj",
					"text" : "r ptt4",
					"outlettype" : [ "" ],
					"fontname" : "Arial",
					"fontsize" : 11.0,
					"color" : [ 1.0, 0.890196, 0.090196, 1.0 ],
					"numinlets" : 0,
					"patching_rect" : [ 535.140442, 25.041323, 36.0, 19.0 ],
					"id" : "obj-53",
					"numoutlets" : 1
				}

			}
, 			{
				"box" : 				{
					"maxclass" : "newobj",
					"text" : "r ptt3",
					"outlettype" : [ "" ],
					"fontname" : "Arial",
					"fontsize" : 11.0,
					"color" : [ 1.0, 0.890196, 0.090196, 1.0 ],
					"numinlets" : 0,
					"patching_rect" : [ 416.834686, 25.041323, 36.0, 19.0 ],
					"id" : "obj-52",
					"numoutlets" : 1
				}

			}
, 			{
				"box" : 				{
					"maxclass" : "newobj",
					"text" : "r ptt2",
					"outlettype" : [ "" ],
					"fontname" : "Arial",
					"fontsize" : 11.0,
					"color" : [ 1.0, 0.890196, 0.090196, 1.0 ],
					"numinlets" : 0,
					"patching_rect" : [ 315.884277, 25.041323, 36.0, 19.0 ],
					"id" : "obj-50",
					"numoutlets" : 1
				}

			}
, 			{
				"box" : 				{
					"maxclass" : "newobj",
					"text" : "r ptt1",
					"outlettype" : [ "" ],
					"fontname" : "Arial",
					"fontsize" : 11.0,
					"color" : [ 1.0, 0.890196, 0.090196, 1.0 ],
					"numinlets" : 0,
					"patching_rect" : [ 231.462799, 25.041323, 36.0, 19.0 ],
					"id" : "obj-49",
					"numoutlets" : 1
				}

			}
, 			{
				"box" : 				{
					"maxclass" : "comment",
					"text" : "to Sect-entry-Pt2",
					"fontname" : "Arial",
					"fontsize" : 11.0,
					"numinlets" : 1,
					"patching_rect" : [ 672.0, 235.0, 120.0, 19.0 ],
					"id" : "obj-1",
					"numoutlets" : 0
				}

			}
, 			{
				"box" : 				{
					"maxclass" : "comment",
					"text" : "Part 1 hits",
					"fontname" : "Arial",
					"fontsize" : 14.0,
					"numinlets" : 1,
					"patching_rect" : [ 62.0, 182.0, 75.0, 23.0 ],
					"id" : "obj-51",
					"numoutlets" : 0
				}

			}
, 			{
				"box" : 				{
					"maxclass" : "number",
					"outlettype" : [ "int", "bang" ],
					"fontname" : "Arial",
					"fontsize" : 12.0,
					"numinlets" : 1,
					"patching_rect" : [ 88.0, 76.0, 50.0, 20.0 ],
					"id" : "obj-2",
					"numoutlets" : 2
				}

			}
, 			{
				"box" : 				{
					"maxclass" : "newobj",
					"text" : "delay 2000",
					"outlettype" : [ "bang" ],
					"fontname" : "Arial",
					"fontsize" : 9.0,
					"numinlets" : 2,
					"patching_rect" : [ 374.0, 237.0, 60.0, 17.0 ],
					"id" : "obj-3",
					"numoutlets" : 1
				}

			}
, 			{
				"box" : 				{
					"maxclass" : "newobj",
					"text" : "loadbang",
					"outlettype" : [ "bang" ],
					"fontname" : "Arial",
					"fontsize" : 9.0,
					"numinlets" : 1,
					"patching_rect" : [ 374.0, 217.0, 51.0, 17.0 ],
					"id" : "obj-4",
					"numoutlets" : 1
				}

			}
, 			{
				"box" : 				{
					"maxclass" : "newobj",
					"text" : "t i i i i i",
					"outlettype" : [ "int", "int", "int", "int", "int" ],
					"fontname" : "Arial",
					"fontsize" : 9.0,
					"numinlets" : 1,
					"patching_rect" : [ 320.0, 63.0, 66.0, 17.0 ],
					"id" : "obj-5",
					"numoutlets" : 5
				}

			}
, 			{
				"box" : 				{
					"maxclass" : "newobj",
					"text" : "r clear-ind'rs",
					"outlettype" : [ "" ],
					"fontname" : "Arial",
					"fontsize" : 11.0,
					"color" : [ 1.0, 0.890196, 0.090196, 1.0 ],
					"numinlets" : 0,
					"patching_rect" : [ 236.0, 304.0, 85.0, 19.0 ],
					"id" : "obj-6",
					"numoutlets" : 1
				}

			}
, 			{
				"box" : 				{
					"maxclass" : "message",
					"text" : "0",
					"outlettype" : [ "" ],
					"fontname" : "Arial",
					"fontsize" : 9.0,
					"numinlets" : 2,
					"patching_rect" : [ 345.0, 344.0, 16.0, 15.0 ],
					"id" : "obj-7",
					"numoutlets" : 1
				}

			}
, 			{
				"box" : 				{
					"maxclass" : "newobj",
					"text" : "gate 5",
					"outlettype" : [ "", "", "", "", "" ],
					"fontname" : "Arial",
					"fontsize" : 9.0,
					"numinlets" : 2,
					"patching_rect" : [ 445.0, 360.0, 66.0, 17.0 ],
					"id" : "obj-8",
					"numoutlets" : 5
				}

			}
, 			{
				"box" : 				{
					"maxclass" : "newobj",
					"text" : "pipe 16",
					"outlettype" : [ "" ],
					"fontname" : "Arial",
					"fontsize" : 9.0,
					"numinlets" : 2,
					"patching_rect" : [ 391.0, 327.0, 42.0, 17.0 ],
					"id" : "obj-9",
					"numoutlets" : 1
				}

			}
, 			{
				"box" : 				{
					"maxclass" : "newobj",
					"text" : "int",
					"outlettype" : [ "int" ],
					"fontname" : "Arial",
					"fontsize" : 9.0,
					"numinlets" : 2,
					"patching_rect" : [ 383.0, 293.0, 27.0, 17.0 ],
					"id" : "obj-10",
					"numoutlets" : 1
				}

			}
, 			{
				"box" : 				{
					"maxclass" : "message",
					"text" : "2",
					"outlettype" : [ "" ],
					"fontname" : "Arial",
					"fontsize" : 9.0,
					"numinlets" : 2,
					"patching_rect" : [ 309.0, 242.0, 16.0, 15.0 ],
					"id" : "obj-11",
					"numoutlets" : 1
				}

			}
, 			{
				"box" : 				{
					"maxclass" : "message",
					"text" : "5",
					"outlettype" : [ "" ],
					"fontname" : "Arial",
					"fontsize" : 9.0,
					"numinlets" : 2,
					"patching_rect" : [ 641.0, 242.0, 16.0, 15.0 ],
					"id" : "obj-12",
					"numoutlets" : 1
				}

			}
, 			{
				"box" : 				{
					"maxclass" : "message",
					"text" : "4",
					"outlettype" : [ "" ],
					"fontname" : "Arial",
					"fontsize" : 9.0,
					"numinlets" : 2,
					"patching_rect" : [ 529.0, 242.0, 16.0, 15.0 ],
					"id" : "obj-13",
					"numoutlets" : 1
				}

			}
, 			{
				"box" : 				{
					"maxclass" : "message",
					"text" : "3",
					"outlettype" : [ "" ],
					"fontname" : "Arial",
					"fontsize" : 9.0,
					"numinlets" : 2,
					"patching_rect" : [ 438.0, 242.0, 16.0, 15.0 ],
					"id" : "obj-14",
					"numoutlets" : 1
				}

			}
, 			{
				"box" : 				{
					"maxclass" : "message",
					"text" : "1",
					"outlettype" : [ "" ],
					"fontname" : "Arial",
					"fontsize" : 9.0,
					"numinlets" : 2,
					"patching_rect" : [ 239.0, 242.0, 16.0, 15.0 ],
					"id" : "obj-15",
					"numoutlets" : 1
				}

			}
, 			{
				"box" : 				{
					"maxclass" : "newobj",
					"text" : "s tmr5-ind'r",
					"fontname" : "Arial",
					"fontsize" : 11.0,
					"color" : [ 1.0, 0.180392, 0.180392, 1.0 ],
					"numinlets" : 1,
					"patching_rect" : [ 606.0, 428.0, 78.0, 19.0 ],
					"id" : "obj-16",
					"numoutlets" : 0
				}

			}
, 			{
				"box" : 				{
					"maxclass" : "newobj",
					"text" : "s tmr4-ind'r",
					"fontname" : "Arial",
					"fontsize" : 11.0,
					"color" : [ 1.0, 0.180392, 0.180392, 1.0 ],
					"numinlets" : 1,
					"patching_rect" : [ 525.0, 428.0, 78.0, 19.0 ],
					"id" : "obj-17",
					"numoutlets" : 0
				}

			}
, 			{
				"box" : 				{
					"maxclass" : "newobj",
					"text" : "s tmr3-ind'r",
					"fontname" : "Arial",
					"fontsize" : 11.0,
					"color" : [ 1.0, 0.180392, 0.180392, 1.0 ],
					"numinlets" : 1,
					"patching_rect" : [ 444.0, 428.0, 78.0, 19.0 ],
					"id" : "obj-18",
					"numoutlets" : 0
				}

			}
, 			{
				"box" : 				{
					"maxclass" : "newobj",
					"text" : "s tmr2-ind'r",
					"fontname" : "Arial",
					"fontsize" : 11.0,
					"color" : [ 1.0, 0.180392, 0.180392, 1.0 ],
					"numinlets" : 1,
					"patching_rect" : [ 363.0, 428.0, 78.0, 19.0 ],
					"id" : "obj-19",
					"numoutlets" : 0
				}

			}
, 			{
				"box" : 				{
					"maxclass" : "newobj",
					"text" : "s tmr1-ind'r",
					"fontname" : "Arial",
					"fontsize" : 11.0,
					"color" : [ 1.0, 0.180392, 0.180392, 1.0 ],
					"numinlets" : 1,
					"patching_rect" : [ 282.0, 428.0, 78.0, 19.0 ],
					"id" : "obj-20",
					"numoutlets" : 0
				}

			}
, 			{
				"box" : 				{
					"maxclass" : "button",
					"outlettype" : [ "bang" ],
					"numinlets" : 1,
					"patching_rect" : [ 653.0, 76.0, 15.0, 15.0 ],
					"id" : "obj-21",
					"numoutlets" : 1
				}

			}
, 			{
				"box" : 				{
					"maxclass" : "outlet",
					"numinlets" : 1,
					"patching_rect" : [ 22.0, 186.0, 15.0, 15.0 ],
					"id" : "obj-22",
					"numoutlets" : 0,
					"comment" : ""
				}

			}
, 			{
				"box" : 				{
					"maxclass" : "comment",
					"text" : "Part 2 hits",
					"fontname" : "Arial",
					"fontsize" : 14.0,
					"numinlets" : 1,
					"patching_rect" : [ 122.0, 214.0, 75.0, 23.0 ],
					"id" : "obj-23",
					"numoutlets" : 0
				}

			}
, 			{
				"box" : 				{
					"maxclass" : "newobj",
					"text" : "s hit#5",
					"fontname" : "Arial",
					"fontsize" : 11.0,
					"color" : [ 1.0, 0.180392, 0.180392, 1.0 ],
					"numinlets" : 1,
					"patching_rect" : [ 664.0, 217.0, 50.0, 19.0 ],
					"id" : "obj-24",
					"numoutlets" : 0
				}

			}
, 			{
				"box" : 				{
					"maxclass" : "newobj",
					"text" : "s hit#4",
					"fontname" : "Arial",
					"fontsize" : 11.0,
					"color" : [ 1.0, 0.180392, 0.180392, 1.0 ],
					"numinlets" : 1,
					"patching_rect" : [ 547.0, 217.0, 50.0, 19.0 ],
					"id" : "obj-25",
					"numoutlets" : 0
				}

			}
, 			{
				"box" : 				{
					"maxclass" : "newobj",
					"text" : "s hit#3",
					"fontname" : "Arial",
					"fontsize" : 11.0,
					"color" : [ 1.0, 0.180392, 0.180392, 1.0 ],
					"numinlets" : 1,
					"patching_rect" : [ 445.0, 217.0, 50.0, 19.0 ],
					"id" : "obj-26",
					"numoutlets" : 0
				}

			}
, 			{
				"box" : 				{
					"maxclass" : "newobj",
					"text" : "s hit#2",
					"fontname" : "Arial",
					"fontsize" : 11.0,
					"color" : [ 1.0, 0.180392, 0.180392, 1.0 ],
					"numinlets" : 1,
					"patching_rect" : [ 324.0, 217.0, 50.0, 19.0 ],
					"id" : "obj-27",
					"numoutlets" : 0
				}

			}
, 			{
				"box" : 				{
					"maxclass" : "newobj",
					"text" : "s hit#1",
					"fontname" : "Arial",
					"fontsize" : 11.0,
					"color" : [ 1.0, 0.180392, 0.180392, 1.0 ],
					"numinlets" : 1,
					"patching_rect" : [ 195.0, 217.0, 50.0, 19.0 ],
					"id" : "obj-28",
					"numoutlets" : 0
				}

			}
, 			{
				"box" : 				{
					"maxclass" : "newobj",
					"text" : "s trytmr1",
					"fontname" : "Arial",
					"fontsize" : 11.0,
					"color" : [ 1.0, 0.180392, 0.180392, 1.0 ],
					"numinlets" : 1,
					"patching_rect" : [ 136.826447, 184.0, 65.0, 19.0 ],
					"id" : "obj-29",
					"numoutlets" : 0
				}

			}
, 			{
				"box" : 				{
					"maxclass" : "newobj",
					"text" : "s trytmr5",
					"fontname" : "Arial",
					"fontsize" : 11.0,
					"color" : [ 1.0, 0.180392, 0.180392, 1.0 ],
					"numinlets" : 1,
					"patching_rect" : [ 584.0, 184.0, 65.0, 19.0 ],
					"id" : "obj-30",
					"numoutlets" : 0
				}

			}
, 			{
				"box" : 				{
					"maxclass" : "newobj",
					"text" : "s trytmr4",
					"fontname" : "Arial",
					"fontsize" : 11.0,
					"color" : [ 1.0, 0.180392, 0.180392, 1.0 ],
					"numinlets" : 1,
					"patching_rect" : [ 475.0, 184.0, 65.0, 19.0 ],
					"id" : "obj-31",
					"numoutlets" : 0
				}

			}
, 			{
				"box" : 				{
					"maxclass" : "newobj",
					"text" : "s trytmr3",
					"fontname" : "Arial",
					"fontsize" : 11.0,
					"color" : [ 1.0, 0.180392, 0.180392, 1.0 ],
					"numinlets" : 1,
					"patching_rect" : [ 365.0, 184.0, 65.0, 19.0 ],
					"id" : "obj-32",
					"numoutlets" : 0
				}

			}
, 			{
				"box" : 				{
					"maxclass" : "newobj",
					"text" : "s trytmr2",
					"fontname" : "Arial",
					"fontsize" : 11.0,
					"color" : [ 1.0, 0.180392, 0.180392, 1.0 ],
					"numinlets" : 1,
					"patching_rect" : [ 241.0, 184.0, 65.0, 19.0 ],
					"id" : "obj-33",
					"numoutlets" : 0
				}

			}
, 			{
				"box" : 				{
					"maxclass" : "inlet",
					"outlettype" : [ "" ],
					"numinlets" : 0,
					"patching_rect" : [ 622.0, 27.0, 15.0, 15.0 ],
					"id" : "obj-34",
					"numoutlets" : 1,
					"comment" : ""
				}

			}
, 			{
				"box" : 				{
					"maxclass" : "inlet",
					"outlettype" : [ "" ],
					"numinlets" : 0,
					"patching_rect" : [ 516.0, 27.0, 15.0, 15.0 ],
					"id" : "obj-35",
					"numoutlets" : 1,
					"comment" : ""
				}

			}
, 			{
				"box" : 				{
					"maxclass" : "newobj",
					"text" : "gate 2",
					"outlettype" : [ "", "" ],
					"fontname" : "Arial",
					"fontsize" : 9.0,
					"numinlets" : 2,
					"patching_rect" : [ 610.0, 108.0, 35.0, 17.0 ],
					"id" : "obj-36",
					"numoutlets" : 2
				}

			}
, 			{
				"box" : 				{
					"maxclass" : "newobj",
					"text" : "gate 2",
					"outlettype" : [ "", "" ],
					"fontname" : "Arial",
					"fontsize" : 9.0,
					"numinlets" : 2,
					"patching_rect" : [ 504.0, 108.0, 35.0, 17.0 ],
					"id" : "obj-37",
					"numoutlets" : 2
				}

			}
, 			{
				"box" : 				{
					"maxclass" : "newobj",
					"text" : "gate 2",
					"outlettype" : [ "", "" ],
					"fontname" : "Arial",
					"fontsize" : 9.0,
					"numinlets" : 2,
					"patching_rect" : [ 388.0, 108.0, 35.0, 17.0 ],
					"id" : "obj-38",
					"numoutlets" : 2
				}

			}
, 			{
				"box" : 				{
					"maxclass" : "newobj",
					"text" : "gate 2",
					"outlettype" : [ "", "" ],
					"fontname" : "Arial",
					"fontsize" : 9.0,
					"numinlets" : 2,
					"patching_rect" : [ 267.0, 108.0, 35.0, 17.0 ],
					"id" : "obj-39",
					"numoutlets" : 2
				}

			}
, 			{
				"box" : 				{
					"maxclass" : "newobj",
					"text" : "gate 2",
					"outlettype" : [ "", "" ],
					"fontname" : "Arial",
					"fontsize" : 9.0,
					"numinlets" : 2,
					"patching_rect" : [ 199.0, 108.0, 35.0, 17.0 ],
					"id" : "obj-40",
					"numoutlets" : 2
				}

			}
, 			{
				"box" : 				{
					"maxclass" : "newobj",
					"text" : "if $i1 <7 then 1 else 2",
					"outlettype" : [ "" ],
					"fontname" : "Arial",
					"fontsize" : 11.0,
					"numinlets" : 1,
					"patching_rect" : [ 54.0, 35.0, 132.0, 19.0 ],
					"id" : "obj-41",
					"numoutlets" : 1
				}

			}
, 			{
				"box" : 				{
					"maxclass" : "newobj",
					"text" : "r section-info",
					"outlettype" : [ "" ],
					"fontname" : "Arial",
					"fontsize" : 11.0,
					"color" : [ 1.0, 0.890196, 0.090196, 1.0 ],
					"numinlets" : 0,
					"patching_rect" : [ 52.826447, 15.0, 83.0, 19.0 ],
					"id" : "obj-42",
					"numoutlets" : 1
				}

			}
, 			{
				"box" : 				{
					"maxclass" : "inlet",
					"outlettype" : [ "" ],
					"numinlets" : 0,
					"patching_rect" : [ 400.0, 28.0, 15.0, 15.0 ],
					"id" : "obj-43",
					"numoutlets" : 1,
					"comment" : ""
				}

			}
, 			{
				"box" : 				{
					"maxclass" : "inlet",
					"outlettype" : [ "" ],
					"numinlets" : 0,
					"patching_rect" : [ 292.0, 29.0, 15.0, 15.0 ],
					"id" : "obj-44",
					"numoutlets" : 1,
					"comment" : ""
				}

			}
, 			{
				"box" : 				{
					"maxclass" : "inlet",
					"outlettype" : [ "" ],
					"numinlets" : 0,
					"patching_rect" : [ 207.0, 29.0, 15.0, 15.0 ],
					"id" : "obj-45",
					"numoutlets" : 1,
					"comment" : ""
				}

			}
, 			{
				"box" : 				{
					"maxclass" : "comment",
					"text" : "to Part 1 inners & fastnotes",
					"linecount" : 2,
					"fontname" : "Arial",
					"fontsize" : 10.0,
					"numinlets" : 1,
					"patching_rect" : [ 55.0, 111.0, 79.0, 29.0 ],
					"id" : "obj-46",
					"numoutlets" : 0
				}

			}
, 			{
				"box" : 				{
					"maxclass" : "comment",
					"text" : "changed \"On\" values of blue shadows to 1, 2, 3, 4, 5",
					"linecount" : 3,
					"fontname" : "Arial",
					"fontsize" : 11.0,
					"numinlets" : 1,
					"patching_rect" : [ 537.0, 275.0, 119.0, 44.0 ],
					"id" : "obj-47",
					"numoutlets" : 0
				}

			}
, 			{
				"box" : 				{
					"maxclass" : "comment",
					"text" : "FastNotes-L",
					"fontname" : "Arial",
					"fontsize" : 14.0,
					"numinlets" : 1,
					"patching_rect" : [ 124.0, 153.0, 89.0, 23.0 ],
					"id" : "obj-48",
					"numoutlets" : 0
				}

			}
 ],
		"lines" : [ 			{
				"patchline" : 				{
					"source" : [ "obj-21", 0 ],
					"destination" : [ "obj-24", 0 ],
					"hidden" : 0,
					"midpoints" : [  ]
				}

			}
, 			{
				"patchline" : 				{
					"source" : [ "obj-36", 1 ],
					"destination" : [ "obj-24", 0 ],
					"hidden" : 0,
					"midpoints" : [  ]
				}

			}
, 			{
				"patchline" : 				{
					"source" : [ "obj-36", 1 ],
					"destination" : [ "obj-12", 0 ],
					"hidden" : 0,
					"midpoints" : [  ]
				}

			}
, 			{
				"patchline" : 				{
					"source" : [ "obj-34", 0 ],
					"destination" : [ "obj-36", 1 ],
					"hidden" : 0,
					"midpoints" : [  ]
				}

			}
, 			{
				"patchline" : 				{
					"source" : [ "obj-5", 4 ],
					"destination" : [ "obj-36", 0 ],
					"hidden" : 0,
					"midpoints" : [  ]
				}

			}
, 			{
				"patchline" : 				{
					"source" : [ "obj-8", 4 ],
					"destination" : [ "obj-16", 0 ],
					"hidden" : 0,
					"midpoints" : [  ]
				}

			}
, 			{
				"patchline" : 				{
					"source" : [ "obj-7", 0 ],
					"destination" : [ "obj-16", 0 ],
					"hidden" : 0,
					"midpoints" : [  ]
				}

			}
, 			{
				"patchline" : 				{
					"source" : [ "obj-36", 0 ],
					"destination" : [ "obj-30", 0 ],
					"hidden" : 0,
					"midpoints" : [  ]
				}

			}
, 			{
				"patchline" : 				{
					"source" : [ "obj-37", 1 ],
					"destination" : [ "obj-25", 0 ],
					"hidden" : 0,
					"midpoints" : [  ]
				}

			}
, 			{
				"patchline" : 				{
					"source" : [ "obj-37", 1 ],
					"destination" : [ "obj-13", 0 ],
					"hidden" : 0,
					"midpoints" : [  ]
				}

			}
, 			{
				"patchline" : 				{
					"source" : [ "obj-35", 0 ],
					"destination" : [ "obj-37", 1 ],
					"hidden" : 0,
					"midpoints" : [  ]
				}

			}
, 			{
				"patchline" : 				{
					"source" : [ "obj-8", 3 ],
					"destination" : [ "obj-17", 0 ],
					"hidden" : 0,
					"midpoints" : [  ]
				}

			}
, 			{
				"patchline" : 				{
					"source" : [ "obj-7", 0 ],
					"destination" : [ "obj-17", 0 ],
					"hidden" : 0,
					"midpoints" : [  ]
				}

			}
, 			{
				"patchline" : 				{
					"source" : [ "obj-5", 3 ],
					"destination" : [ "obj-37", 0 ],
					"hidden" : 0,
					"midpoints" : [  ]
				}

			}
, 			{
				"patchline" : 				{
					"source" : [ "obj-9", 0 ],
					"destination" : [ "obj-8", 1 ],
					"hidden" : 0,
					"midpoints" : [ 400.5, 350.0, 501.5, 350.0 ]
				}

			}
, 			{
				"patchline" : 				{
					"source" : [ "obj-37", 0 ],
					"destination" : [ "obj-31", 0 ],
					"hidden" : 0,
					"midpoints" : [  ]
				}

			}
, 			{
				"patchline" : 				{
					"source" : [ "obj-10", 0 ],
					"destination" : [ "obj-8", 0 ],
					"hidden" : 0,
					"midpoints" : [ 392.5, 320.0, 454.5, 320.0 ]
				}

			}
, 			{
				"patchline" : 				{
					"source" : [ "obj-8", 2 ],
					"destination" : [ "obj-18", 0 ],
					"hidden" : 0,
					"midpoints" : [  ]
				}

			}
, 			{
				"patchline" : 				{
					"source" : [ "obj-7", 0 ],
					"destination" : [ "obj-18", 0 ],
					"hidden" : 0,
					"midpoints" : [  ]
				}

			}
, 			{
				"patchline" : 				{
					"source" : [ "obj-38", 1 ],
					"destination" : [ "obj-26", 0 ],
					"hidden" : 0,
					"midpoints" : [  ]
				}

			}
, 			{
				"patchline" : 				{
					"source" : [ "obj-38", 1 ],
					"destination" : [ "obj-14", 0 ],
					"hidden" : 0,
					"midpoints" : [  ]
				}

			}
, 			{
				"patchline" : 				{
					"source" : [ "obj-43", 0 ],
					"destination" : [ "obj-38", 1 ],
					"hidden" : 0,
					"midpoints" : [  ]
				}

			}
, 			{
				"patchline" : 				{
					"source" : [ "obj-10", 0 ],
					"destination" : [ "obj-9", 0 ],
					"hidden" : 0,
					"midpoints" : [  ]
				}

			}
, 			{
				"patchline" : 				{
					"source" : [ "obj-5", 2 ],
					"destination" : [ "obj-38", 0 ],
					"hidden" : 0,
					"midpoints" : [  ]
				}

			}
, 			{
				"patchline" : 				{
					"source" : [ "obj-12", 0 ],
					"destination" : [ "obj-10", 0 ],
					"hidden" : 0,
					"midpoints" : [  ]
				}

			}
, 			{
				"patchline" : 				{
					"source" : [ "obj-13", 0 ],
					"destination" : [ "obj-10", 0 ],
					"hidden" : 0,
					"midpoints" : [  ]
				}

			}
, 			{
				"patchline" : 				{
					"source" : [ "obj-14", 0 ],
					"destination" : [ "obj-10", 0 ],
					"hidden" : 0,
					"midpoints" : [  ]
				}

			}
, 			{
				"patchline" : 				{
					"source" : [ "obj-11", 0 ],
					"destination" : [ "obj-10", 0 ],
					"hidden" : 0,
					"midpoints" : [  ]
				}

			}
, 			{
				"patchline" : 				{
					"source" : [ "obj-15", 0 ],
					"destination" : [ "obj-10", 0 ],
					"hidden" : 0,
					"midpoints" : [  ]
				}

			}
, 			{
				"patchline" : 				{
					"source" : [ "obj-4", 0 ],
					"destination" : [ "obj-3", 0 ],
					"hidden" : 0,
					"midpoints" : [  ]
				}

			}
, 			{
				"patchline" : 				{
					"source" : [ "obj-8", 1 ],
					"destination" : [ "obj-19", 0 ],
					"hidden" : 0,
					"midpoints" : [  ]
				}

			}
, 			{
				"patchline" : 				{
					"source" : [ "obj-7", 0 ],
					"destination" : [ "obj-19", 0 ],
					"hidden" : 0,
					"midpoints" : [  ]
				}

			}
, 			{
				"patchline" : 				{
					"source" : [ "obj-38", 0 ],
					"destination" : [ "obj-32", 0 ],
					"hidden" : 0,
					"midpoints" : [  ]
				}

			}
, 			{
				"patchline" : 				{
					"source" : [ "obj-6", 0 ],
					"destination" : [ "obj-7", 0 ],
					"hidden" : 0,
					"midpoints" : [  ]
				}

			}
, 			{
				"patchline" : 				{
					"source" : [ "obj-10", 0 ],
					"destination" : [ "obj-7", 0 ],
					"hidden" : 0,
					"midpoints" : [  ]
				}

			}
, 			{
				"patchline" : 				{
					"source" : [ "obj-39", 1 ],
					"destination" : [ "obj-27", 0 ],
					"hidden" : 0,
					"midpoints" : [  ]
				}

			}
, 			{
				"patchline" : 				{
					"source" : [ "obj-41", 0 ],
					"destination" : [ "obj-5", 0 ],
					"hidden" : 0,
					"midpoints" : [ 63.5, 59.0, 329.5, 59.0 ]
				}

			}
, 			{
				"patchline" : 				{
					"source" : [ "obj-39", 1 ],
					"destination" : [ "obj-11", 0 ],
					"hidden" : 0,
					"midpoints" : [  ]
				}

			}
, 			{
				"patchline" : 				{
					"source" : [ "obj-8", 0 ],
					"destination" : [ "obj-20", 0 ],
					"hidden" : 0,
					"midpoints" : [  ]
				}

			}
, 			{
				"patchline" : 				{
					"source" : [ "obj-7", 0 ],
					"destination" : [ "obj-20", 0 ],
					"hidden" : 0,
					"midpoints" : [  ]
				}

			}
, 			{
				"patchline" : 				{
					"source" : [ "obj-44", 0 ],
					"destination" : [ "obj-39", 1 ],
					"hidden" : 0,
					"midpoints" : [  ]
				}

			}
, 			{
				"patchline" : 				{
					"source" : [ "obj-5", 1 ],
					"destination" : [ "obj-39", 0 ],
					"hidden" : 0,
					"midpoints" : [  ]
				}

			}
, 			{
				"patchline" : 				{
					"source" : [ "obj-40", 1 ],
					"destination" : [ "obj-15", 0 ],
					"hidden" : 0,
					"midpoints" : [  ]
				}

			}
, 			{
				"patchline" : 				{
					"source" : [ "obj-39", 0 ],
					"destination" : [ "obj-33", 0 ],
					"hidden" : 0,
					"midpoints" : [  ]
				}

			}
, 			{
				"patchline" : 				{
					"source" : [ "obj-45", 0 ],
					"destination" : [ "obj-40", 1 ],
					"hidden" : 0,
					"midpoints" : [  ]
				}

			}
, 			{
				"patchline" : 				{
					"source" : [ "obj-5", 0 ],
					"destination" : [ "obj-40", 0 ],
					"hidden" : 0,
					"midpoints" : [  ]
				}

			}
, 			{
				"patchline" : 				{
					"source" : [ "obj-40", 1 ],
					"destination" : [ "obj-28", 0 ],
					"hidden" : 0,
					"midpoints" : [  ]
				}

			}
, 			{
				"patchline" : 				{
					"source" : [ "obj-40", 0 ],
					"destination" : [ "obj-29", 0 ],
					"hidden" : 0,
					"midpoints" : [  ]
				}

			}
, 			{
				"patchline" : 				{
					"source" : [ "obj-41", 0 ],
					"destination" : [ "obj-22", 0 ],
					"hidden" : 0,
					"midpoints" : [  ]
				}

			}
, 			{
				"patchline" : 				{
					"source" : [ "obj-42", 0 ],
					"destination" : [ "obj-41", 0 ],
					"hidden" : 0,
					"midpoints" : [  ]
				}

			}
, 			{
				"patchline" : 				{
					"source" : [ "obj-41", 0 ],
					"destination" : [ "obj-2", 0 ],
					"hidden" : 0,
					"midpoints" : [  ]
				}

			}
, 			{
				"patchline" : 				{
					"source" : [ "obj-49", 0 ],
					"destination" : [ "obj-40", 1 ],
					"hidden" : 0,
					"midpoints" : [  ]
				}

			}
, 			{
				"patchline" : 				{
					"source" : [ "obj-50", 0 ],
					"destination" : [ "obj-39", 1 ],
					"hidden" : 0,
					"midpoints" : [  ]
				}

			}
, 			{
				"patchline" : 				{
					"source" : [ "obj-52", 0 ],
					"destination" : [ "obj-38", 1 ],
					"hidden" : 0,
					"midpoints" : [  ]
				}

			}
, 			{
				"patchline" : 				{
					"source" : [ "obj-53", 0 ],
					"destination" : [ "obj-37", 1 ],
					"hidden" : 0,
					"midpoints" : [  ]
				}

			}
, 			{
				"patchline" : 				{
					"source" : [ "obj-54", 0 ],
					"destination" : [ "obj-36", 1 ],
					"hidden" : 0,
					"midpoints" : [  ]
				}

			}
 ]
	}

}
