{
	"patcher" : 	{
		"fileversion" : 1,
		"appversion" : 		{
			"major" : 5,
			"minor" : 1,
			"revision" : 9
		}
,
		"rect" : [ 1538.0, -38.0, 906.0, 474.0 ],
		"bglocked" : 0,
		"defrect" : [ 1538.0, -38.0, 906.0, 474.0 ],
		"openrect" : [ 0.0, 0.0, 0.0, 0.0 ],
		"openinpresentation" : 0,
		"default_fontsize" : 12.0,
		"default_fontface" : 0,
		"default_fontname" : "Arial",
		"gridonopen" : 0,
		"gridsize" : [ 15.0, 15.0 ],
		"gridsnaponopen" : 0,
		"toolbarvisible" : 1,
		"boxanimatetime" : 200,
		"imprint" : 0,
		"enablehscroll" : 1,
		"enablevscroll" : 1,
		"devicewidth" : 0.0,
		"boxes" : [ 			{
				"box" : 				{
					"maxclass" : "ubutton",
					"outlettype" : [ "bang", "bang", "", "int" ],
					"handoff" : "",
					"numinlets" : 1,
					"patching_rect" : [ 320.0, 52.0, 31.0, 28.0 ],
					"id" : "obj-1",
					"numoutlets" : 4,
					"hltcolor" : [ 0.94902, 0.0, 0.0, 0.501961 ]
				}

			}
, 			{
				"box" : 				{
					"maxclass" : "ubutton",
					"outlettype" : [ "bang", "bang", "", "int" ],
					"handoff" : "",
					"numinlets" : 1,
					"patching_rect" : [ 287.0, 52.0, 31.0, 28.0 ],
					"id" : "obj-2",
					"numoutlets" : 4,
					"hltcolor" : [ 0.94902, 0.0, 0.0, 0.501961 ]
				}

			}
, 			{
				"box" : 				{
					"maxclass" : "ubutton",
					"outlettype" : [ "bang", "bang", "", "int" ],
					"handoff" : "",
					"numinlets" : 1,
					"patching_rect" : [ 254.0, 52.0, 31.0, 28.0 ],
					"id" : "obj-3",
					"numoutlets" : 4,
					"hltcolor" : [ 0.94902, 0.0, 0.0, 0.501961 ]
				}

			}
, 			{
				"box" : 				{
					"maxclass" : "ubutton",
					"outlettype" : [ "bang", "bang", "", "int" ],
					"handoff" : "",
					"numinlets" : 1,
					"patching_rect" : [ 220.0, 52.0, 31.0, 28.0 ],
					"id" : "obj-4",
					"numoutlets" : 4,
					"hltcolor" : [ 0.94902, 0.0, 0.0, 0.501961 ]
				}

			}
, 			{
				"box" : 				{
					"maxclass" : "button",
					"outlettype" : [ "bang" ],
					"numinlets" : 1,
					"patching_rect" : [ 319.0, 52.0, 30.0, 30.0 ],
					"id" : "obj-5",
					"numoutlets" : 1
				}

			}
, 			{
				"box" : 				{
					"maxclass" : "comment",
					"text" : "\"summit\"",
					"fontsize" : 9.0,
					"numinlets" : 1,
					"patching_rect" : [ 280.0, 39.0, 46.0, 17.0 ],
					"id" : "obj-6",
					"fontname" : "Arial",
					"numoutlets" : 0
				}

			}
, 			{
				"box" : 				{
					"maxclass" : "button",
					"outlettype" : [ "bang" ],
					"numinlets" : 1,
					"patching_rect" : [ 286.0, 52.0, 30.0, 30.0 ],
					"id" : "obj-7",
					"numoutlets" : 1
				}

			}
, 			{
				"box" : 				{
					"maxclass" : "button",
					"outlettype" : [ "bang" ],
					"numinlets" : 1,
					"patching_rect" : [ 254.0, 52.0, 30.0, 30.0 ],
					"id" : "obj-8",
					"numoutlets" : 1
				}

			}
, 			{
				"box" : 				{
					"maxclass" : "button",
					"outlettype" : [ "bang" ],
					"numinlets" : 1,
					"patching_rect" : [ 222.0, 52.0, 30.0, 30.0 ],
					"id" : "obj-9",
					"numoutlets" : 1
				}

			}
, 			{
				"box" : 				{
					"maxclass" : "newobj",
					"text" : "sel 1 2 3 4",
					"outlettype" : [ "bang", "bang", "bang", "bang", "" ],
					"fontsize" : 9.0,
					"numinlets" : 1,
					"patching_rect" : [ 123.0, 71.0, 66.0, 17.0 ],
					"id" : "obj-10",
					"fontname" : "Arial",
					"numoutlets" : 5
				}

			}
, 			{
				"box" : 				{
					"maxclass" : "newobj",
					"text" : "r tails-B@",
					"outlettype" : [ "" ],
					"fontsize" : 9.0,
					"color" : [ 1.0, 0.890196, 0.090196, 1.0 ],
					"numinlets" : 0,
					"patching_rect" : [ 123.0, 48.0, 57.0, 17.0 ],
					"id" : "obj-11",
					"fontname" : "Arial",
					"numoutlets" : 1
				}

			}
, 			{
				"box" : 				{
					"maxclass" : "newobj",
					"text" : "t b b b b",
					"outlettype" : [ "bang", "bang", "bang", "bang" ],
					"fontsize" : 9.0,
					"numinlets" : 1,
					"patching_rect" : [ 677.0, 118.0, 53.0, 17.0 ],
					"id" : "obj-12",
					"fontname" : "Arial",
					"numoutlets" : 4
				}

			}
, 			{
				"box" : 				{
					"maxclass" : "newobj",
					"text" : "t b b b b",
					"outlettype" : [ "bang", "bang", "bang", "bang" ],
					"fontsize" : 9.0,
					"numinlets" : 1,
					"patching_rect" : [ 489.0, 118.0, 53.0, 17.0 ],
					"id" : "obj-13",
					"fontname" : "Arial",
					"numoutlets" : 4
				}

			}
, 			{
				"box" : 				{
					"maxclass" : "newobj",
					"text" : "t b b b b",
					"outlettype" : [ "bang", "bang", "bang", "bang" ],
					"fontsize" : 9.0,
					"numinlets" : 1,
					"patching_rect" : [ 301.0, 118.0, 53.0, 17.0 ],
					"id" : "obj-14",
					"fontname" : "Arial",
					"numoutlets" : 4
				}

			}
, 			{
				"box" : 				{
					"maxclass" : "newobj",
					"text" : "t b b b b",
					"outlettype" : [ "bang", "bang", "bang", "bang" ],
					"fontsize" : 9.0,
					"numinlets" : 1,
					"patching_rect" : [ 29.0, 118.0, 53.0, 17.0 ],
					"id" : "obj-15",
					"fontname" : "Arial",
					"numoutlets" : 4
				}

			}
, 			{
				"box" : 				{
					"maxclass" : "message",
					"text" : "*D@*C@",
					"outlettype" : [ "" ],
					"fontsize" : 9.0,
					"numinlets" : 2,
					"patching_rect" : [ 372.0, 309.0, 51.0, 15.0 ],
					"id" : "obj-16",
					"fontname" : "Arial",
					"numoutlets" : 1
				}

			}
, 			{
				"box" : 				{
					"maxclass" : "newobj",
					"text" : "delay 400",
					"outlettype" : [ "bang" ],
					"fontsize" : 9.0,
					"numinlets" : 2,
					"patching_rect" : [ 823.0, 206.0, 54.0, 17.0 ],
					"id" : "obj-17",
					"fontname" : "Arial",
					"numoutlets" : 1
				}

			}
, 			{
				"box" : 				{
					"maxclass" : "message",
					"text" : "1",
					"outlettype" : [ "" ],
					"fontsize" : 9.0,
					"numinlets" : 2,
					"patching_rect" : [ 843.0, 230.0, 16.0, 15.0 ],
					"id" : "obj-18",
					"fontname" : "Arial",
					"numoutlets" : 1
				}

			}
, 			{
				"box" : 				{
					"maxclass" : "newobj",
					"text" : "s gliss-rate",
					"fontsize" : 9.0,
					"color" : [ 1.0, 0.219608, 0.219608, 1.0 ],
					"numinlets" : 1,
					"patching_rect" : [ 822.0, 257.0, 62.0, 17.0 ],
					"id" : "obj-19",
					"fontname" : "Arial",
					"numoutlets" : 0
				}

			}
, 			{
				"box" : 				{
					"maxclass" : "message",
					"text" : "4",
					"outlettype" : [ "" ],
					"fontsize" : 9.0,
					"numinlets" : 2,
					"patching_rect" : [ 333.0, 213.0, 16.0, 15.0 ],
					"id" : "obj-20",
					"fontname" : "Arial",
					"numoutlets" : 1
				}

			}
, 			{
				"box" : 				{
					"maxclass" : "newobj",
					"text" : "delay 2000",
					"outlettype" : [ "bang" ],
					"fontsize" : 9.0,
					"numinlets" : 2,
					"patching_rect" : [ 333.0, 182.0, 60.0, 17.0 ],
					"id" : "obj-21",
					"fontname" : "Arial",
					"numoutlets" : 1
				}

			}
, 			{
				"box" : 				{
					"maxclass" : "newobj",
					"text" : "s DSyn2-modu",
					"fontsize" : 9.0,
					"color" : [ 1.0, 0.219608, 0.219608, 1.0 ],
					"numinlets" : 1,
					"patching_rect" : [ 234.0, 269.0, 73.0, 17.0 ],
					"id" : "obj-22",
					"fontname" : "Arial",
					"numoutlets" : 0
				}

			}
, 			{
				"box" : 				{
					"maxclass" : "newobj",
					"text" : "s DSyn1-modu",
					"fontsize" : 9.0,
					"color" : [ 1.0, 0.219608, 0.219608, 1.0 ],
					"numinlets" : 1,
					"patching_rect" : [ 248.0, 249.0, 73.0, 17.0 ],
					"id" : "obj-23",
					"fontname" : "Arial",
					"numoutlets" : 0
				}

			}
, 			{
				"box" : 				{
					"maxclass" : "newobj",
					"text" : "s Raychd-tng-info",
					"fontsize" : 9.0,
					"color" : [ 1.0, 0.219608, 0.219608, 1.0 ],
					"numinlets" : 1,
					"patching_rect" : [ 295.0, 341.0, 89.0, 17.0 ],
					"id" : "obj-24",
					"fontname" : "Arial",
					"numoutlets" : 0
				}

			}
, 			{
				"box" : 				{
					"maxclass" : "message",
					"text" : "4",
					"outlettype" : [ "" ],
					"fontsize" : 9.0,
					"numinlets" : 2,
					"patching_rect" : [ 309.0, 170.0, 16.0, 15.0 ],
					"id" : "obj-25",
					"fontname" : "Arial",
					"numoutlets" : 1
				}

			}
, 			{
				"box" : 				{
					"maxclass" : "message",
					"text" : "9",
					"outlettype" : [ "" ],
					"fontsize" : 9.0,
					"numinlets" : 2,
					"patching_rect" : [ 288.0, 163.0, 16.0, 15.0 ],
					"id" : "obj-26",
					"fontname" : "Arial",
					"numoutlets" : 1
				}

			}
, 			{
				"box" : 				{
					"maxclass" : "message",
					"text" : "*G@dn7",
					"outlettype" : [ "" ],
					"fontsize" : 9.0,
					"numinlets" : 2,
					"patching_rect" : [ 320.0, 314.0, 45.0, 15.0 ],
					"id" : "obj-27",
					"fontname" : "Arial",
					"numoutlets" : 1
				}

			}
, 			{
				"box" : 				{
					"maxclass" : "message",
					"text" : "summit",
					"outlettype" : [ "" ],
					"fontsize" : 9.0,
					"numinlets" : 2,
					"patching_rect" : [ 433.0, 330.0, 42.0, 15.0 ],
					"id" : "obj-28",
					"fontname" : "Arial",
					"numoutlets" : 1
				}

			}
, 			{
				"box" : 				{
					"maxclass" : "newobj",
					"text" : "s popfilt-pams",
					"fontsize" : 9.0,
					"color" : [ 1.0, 0.219608, 0.219608, 1.0 ],
					"numinlets" : 1,
					"patching_rect" : [ 422.0, 354.0, 74.0, 17.0 ],
					"id" : "obj-29",
					"fontname" : "Arial",
					"numoutlets" : 0
				}

			}
, 			{
				"box" : 				{
					"maxclass" : "newobj",
					"text" : "delay 800",
					"outlettype" : [ "bang" ],
					"fontsize" : 9.0,
					"numinlets" : 2,
					"patching_rect" : [ 364.0, 207.0, 54.0, 17.0 ],
					"id" : "obj-30",
					"fontname" : "Arial",
					"numoutlets" : 1
				}

			}
, 			{
				"box" : 				{
					"maxclass" : "message",
					"text" : "9",
					"outlettype" : [ "" ],
					"fontsize" : 9.0,
					"numinlets" : 2,
					"patching_rect" : [ 113.0, 173.0, 16.0, 15.0 ],
					"id" : "obj-31",
					"fontname" : "Arial",
					"numoutlets" : 1
				}

			}
, 			{
				"box" : 				{
					"maxclass" : "message",
					"text" : "9",
					"outlettype" : [ "" ],
					"fontsize" : 9.0,
					"numinlets" : 2,
					"patching_rect" : [ 97.0, 175.0, 16.0, 15.0 ],
					"id" : "obj-32",
					"fontname" : "Arial",
					"numoutlets" : 1
				}

			}
, 			{
				"box" : 				{
					"maxclass" : "newobj",
					"text" : "delay 2000",
					"outlettype" : [ "bang" ],
					"fontsize" : 9.0,
					"numinlets" : 2,
					"patching_rect" : [ 69.0, 148.0, 60.0, 17.0 ],
					"id" : "obj-33",
					"fontname" : "Arial",
					"numoutlets" : 1
				}

			}
, 			{
				"box" : 				{
					"maxclass" : "newobj",
					"text" : "s Raychd-tng-info",
					"fontsize" : 9.0,
					"color" : [ 1.0, 0.219608, 0.219608, 1.0 ],
					"numinlets" : 1,
					"patching_rect" : [ 30.0, 336.0, 89.0, 17.0 ],
					"id" : "obj-34",
					"fontname" : "Arial",
					"numoutlets" : 0
				}

			}
, 			{
				"box" : 				{
					"maxclass" : "message",
					"text" : "*D@",
					"outlettype" : [ "" ],
					"fontsize" : 9.0,
					"numinlets" : 2,
					"patching_rect" : [ 29.0, 315.0, 30.0, 15.0 ],
					"id" : "obj-35",
					"fontname" : "Arial",
					"numoutlets" : 1
				}

			}
, 			{
				"box" : 				{
					"maxclass" : "message",
					"text" : "11",
					"outlettype" : [ "" ],
					"fontsize" : 9.0,
					"numinlets" : 2,
					"patching_rect" : [ 57.0, 179.0, 20.0, 15.0 ],
					"id" : "obj-36",
					"fontname" : "Arial",
					"numoutlets" : 1
				}

			}
, 			{
				"box" : 				{
					"maxclass" : "message",
					"text" : "TNG2N",
					"outlettype" : [ "" ],
					"fontsize" : 9.0,
					"numinlets" : 2,
					"patching_rect" : [ 43.0, 233.0, 39.0, 15.0 ],
					"id" : "obj-37",
					"fontname" : "Arial",
					"numoutlets" : 1
				}

			}
, 			{
				"box" : 				{
					"maxclass" : "newobj",
					"text" : "s DSyn2-tunings",
					"fontsize" : 9.0,
					"color" : [ 1.0, 0.219608, 0.219608, 1.0 ],
					"numinlets" : 1,
					"patching_rect" : [ 49.0, 282.0, 82.0, 17.0 ],
					"id" : "obj-38",
					"fontname" : "Arial",
					"numoutlets" : 0
				}

			}
, 			{
				"box" : 				{
					"maxclass" : "newobj",
					"text" : "s DSyn1-tunings",
					"fontsize" : 9.0,
					"color" : [ 1.0, 0.219608, 0.219608, 1.0 ],
					"numinlets" : 1,
					"patching_rect" : [ 75.0, 260.0, 82.0, 17.0 ],
					"id" : "obj-39",
					"fontname" : "Arial",
					"numoutlets" : 0
				}

			}
, 			{
				"box" : 				{
					"maxclass" : "newobj",
					"text" : "s DSyn2-modu",
					"fontsize" : 9.0,
					"color" : [ 1.0, 0.219608, 0.219608, 1.0 ],
					"numinlets" : 1,
					"patching_rect" : [ 90.0, 227.0, 73.0, 17.0 ],
					"id" : "obj-40",
					"fontname" : "Arial",
					"numoutlets" : 0
				}

			}
, 			{
				"box" : 				{
					"maxclass" : "newobj",
					"text" : "s DSyn1-modu",
					"fontsize" : 9.0,
					"color" : [ 1.0, 0.219608, 0.219608, 1.0 ],
					"numinlets" : 1,
					"patching_rect" : [ 105.0, 206.0, 73.0, 17.0 ],
					"id" : "obj-41",
					"fontname" : "Arial",
					"numoutlets" : 0
				}

			}
, 			{
				"box" : 				{
					"maxclass" : "message",
					"text" : "2",
					"outlettype" : [ "" ],
					"fontsize" : 9.0,
					"numinlets" : 2,
					"patching_rect" : [ 646.0, 169.0, 16.0, 15.0 ],
					"id" : "obj-42",
					"fontname" : "Arial",
					"numoutlets" : 1
				}

			}
, 			{
				"box" : 				{
					"maxclass" : "message",
					"text" : "3",
					"outlettype" : [ "" ],
					"fontsize" : 9.0,
					"numinlets" : 2,
					"patching_rect" : [ 364.0, 230.0, 16.0, 15.0 ],
					"id" : "obj-43",
					"fontname" : "Arial",
					"numoutlets" : 1
				}

			}
, 			{
				"box" : 				{
					"maxclass" : "newobj",
					"text" : "s gliss-rate",
					"fontsize" : 9.0,
					"color" : [ 1.0, 0.219608, 0.219608, 1.0 ],
					"numinlets" : 1,
					"patching_rect" : [ 610.0, 194.0, 62.0, 17.0 ],
					"id" : "obj-44",
					"fontname" : "Arial",
					"numoutlets" : 0
				}

			}
, 			{
				"box" : 				{
					"maxclass" : "newobj",
					"text" : "s gliss-rate",
					"fontsize" : 9.0,
					"color" : [ 1.0, 0.219608, 0.219608, 1.0 ],
					"numinlets" : 1,
					"patching_rect" : [ 346.0, 258.0, 62.0, 17.0 ],
					"id" : "obj-45",
					"fontname" : "Arial",
					"numoutlets" : 0
				}

			}
, 			{
				"box" : 				{
					"maxclass" : "newobj",
					"text" : "delay 100",
					"outlettype" : [ "bang" ],
					"fontsize" : 9.0,
					"numinlets" : 2,
					"patching_rect" : [ 447.0, 275.0, 54.0, 17.0 ],
					"id" : "obj-46",
					"fontname" : "Arial",
					"numoutlets" : 1
				}

			}
, 			{
				"box" : 				{
					"maxclass" : "message",
					"text" : "TNG2LB2",
					"outlettype" : [ "" ],
					"fontsize" : 9.0,
					"numinlets" : 2,
					"patching_rect" : [ 705.0, 180.0, 49.0, 15.0 ],
					"id" : "obj-47",
					"fontname" : "Arial",
					"numoutlets" : 1
				}

			}
, 			{
				"box" : 				{
					"maxclass" : "newobj",
					"text" : "s DSyn2-tunings",
					"fontsize" : 9.0,
					"color" : [ 1.0, 0.219608, 0.219608, 1.0 ],
					"numinlets" : 1,
					"patching_rect" : [ 705.0, 230.0, 82.0, 17.0 ],
					"id" : "obj-48",
					"fontname" : "Arial",
					"numoutlets" : 0
				}

			}
, 			{
				"box" : 				{
					"maxclass" : "newobj",
					"text" : "s DSyn1-tunings",
					"fontsize" : 9.0,
					"color" : [ 1.0, 0.219608, 0.219608, 1.0 ],
					"numinlets" : 1,
					"patching_rect" : [ 729.0, 210.0, 82.0, 17.0 ],
					"id" : "obj-49",
					"fontname" : "Arial",
					"numoutlets" : 0
				}

			}
, 			{
				"box" : 				{
					"maxclass" : "newobj",
					"text" : "s DSyn2-modu",
					"fontsize" : 9.0,
					"color" : [ 1.0, 0.219608, 0.219608, 1.0 ],
					"numinlets" : 1,
					"patching_rect" : [ 718.0, 302.0, 73.0, 17.0 ],
					"id" : "obj-50",
					"fontname" : "Arial",
					"numoutlets" : 0
				}

			}
, 			{
				"box" : 				{
					"maxclass" : "newobj",
					"text" : "s DSyn1-modu",
					"fontsize" : 9.0,
					"color" : [ 1.0, 0.219608, 0.219608, 1.0 ],
					"numinlets" : 1,
					"patching_rect" : [ 742.0, 283.0, 73.0, 17.0 ],
					"id" : "obj-51",
					"fontname" : "Arial",
					"numoutlets" : 0
				}

			}
, 			{
				"box" : 				{
					"maxclass" : "message",
					"text" : "14",
					"outlettype" : [ "" ],
					"fontsize" : 9.0,
					"numinlets" : 2,
					"patching_rect" : [ 718.0, 255.0, 20.0, 15.0 ],
					"id" : "obj-52",
					"fontname" : "Arial",
					"numoutlets" : 1
				}

			}
, 			{
				"box" : 				{
					"maxclass" : "newobj",
					"text" : "delay 100",
					"outlettype" : [ "bang" ],
					"fontsize" : 9.0,
					"numinlets" : 2,
					"patching_rect" : [ 554.0, 272.0, 54.0, 17.0 ],
					"id" : "obj-53",
					"fontname" : "Arial",
					"numoutlets" : 1
				}

			}
, 			{
				"box" : 				{
					"maxclass" : "newobj",
					"text" : "s Raychd-tng-info",
					"fontsize" : 9.0,
					"color" : [ 1.0, 0.219608, 0.219608, 1.0 ],
					"numinlets" : 1,
					"patching_rect" : [ 662.0, 331.0, 89.0, 17.0 ],
					"id" : "obj-54",
					"fontname" : "Arial",
					"numoutlets" : 0
				}

			}
, 			{
				"box" : 				{
					"maxclass" : "message",
					"text" : "*E",
					"outlettype" : [ "" ],
					"fontsize" : 9.0,
					"numinlets" : 2,
					"patching_rect" : [ 662.0, 307.0, 20.0, 15.0 ],
					"id" : "obj-55",
					"fontname" : "Arial",
					"numoutlets" : 1
				}

			}
, 			{
				"box" : 				{
					"maxclass" : "newobj",
					"text" : "s DSyn2-modu",
					"fontsize" : 9.0,
					"color" : [ 1.0, 0.219608, 0.219608, 1.0 ],
					"numinlets" : 1,
					"patching_rect" : [ 513.0, 349.0, 73.0, 17.0 ],
					"id" : "obj-56",
					"fontname" : "Arial",
					"numoutlets" : 0
				}

			}
, 			{
				"box" : 				{
					"maxclass" : "newobj",
					"text" : "s DSyn1-modu",
					"fontsize" : 9.0,
					"color" : [ 1.0, 0.219608, 0.219608, 1.0 ],
					"numinlets" : 1,
					"patching_rect" : [ 524.0, 329.0, 73.0, 17.0 ],
					"id" : "obj-57",
					"fontname" : "Arial",
					"numoutlets" : 0
				}

			}
, 			{
				"box" : 				{
					"maxclass" : "newobj",
					"text" : "s Raychd-tng-info",
					"fontsize" : 9.0,
					"color" : [ 1.0, 0.219608, 0.219608, 1.0 ],
					"numinlets" : 1,
					"patching_rect" : [ 503.0, 395.0, 89.0, 17.0 ],
					"id" : "obj-58",
					"fontname" : "Arial",
					"numoutlets" : 0
				}

			}
, 			{
				"box" : 				{
					"maxclass" : "message",
					"text" : "*C",
					"outlettype" : [ "" ],
					"fontsize" : 9.0,
					"numinlets" : 2,
					"patching_rect" : [ 503.0, 374.0, 21.0, 15.0 ],
					"id" : "obj-59",
					"fontname" : "Arial",
					"numoutlets" : 1
				}

			}
, 			{
				"box" : 				{
					"maxclass" : "message",
					"text" : "34",
					"outlettype" : [ "" ],
					"fontsize" : 9.0,
					"numinlets" : 2,
					"patching_rect" : [ 513.0, 302.0, 20.0, 15.0 ],
					"id" : "obj-60",
					"fontname" : "Arial",
					"numoutlets" : 1
				}

			}
, 			{
				"box" : 				{
					"maxclass" : "newobj",
					"text" : "s crab-metro",
					"fontsize" : 9.0,
					"color" : [ 1.0, 0.219608, 0.219608, 1.0 ],
					"numinlets" : 1,
					"patching_rect" : [ 525.0, 225.0, 68.0, 17.0 ],
					"id" : "obj-61",
					"fontname" : "Arial",
					"numoutlets" : 0
				}

			}
, 			{
				"box" : 				{
					"maxclass" : "message",
					"text" : "0",
					"outlettype" : [ "" ],
					"fontsize" : 9.0,
					"numinlets" : 2,
					"patching_rect" : [ 526.0, 162.0, 16.0, 15.0 ],
					"id" : "obj-62",
					"fontname" : "Arial",
					"numoutlets" : 1
				}

			}
, 			{
				"box" : 				{
					"maxclass" : "newobj",
					"text" : "s fiddle-sw",
					"fontsize" : 9.0,
					"color" : [ 1.0, 0.219608, 0.219608, 1.0 ],
					"numinlets" : 1,
					"patching_rect" : [ 526.0, 201.0, 60.0, 17.0 ],
					"id" : "obj-63",
					"fontname" : "Arial",
					"numoutlets" : 0
				}

			}
, 			{
				"box" : 				{
					"maxclass" : "comment",
					"text" : "progressively constrict pop excursions",
					"linecount" : 3,
					"fontsize" : 9.0,
					"numinlets" : 1,
					"patching_rect" : [ 552.0, 118.0, 97.0, 38.0 ],
					"id" : "obj-64",
					"fontname" : "Arial",
					"numoutlets" : 0
				}

			}
 ],
		"lines" : [ 			{
				"patchline" : 				{
					"source" : [ "obj-17", 0 ],
					"destination" : [ "obj-18", 0 ],
					"hidden" : 0,
					"midpoints" : [  ]
				}

			}
, 			{
				"patchline" : 				{
					"source" : [ "obj-12", 3 ],
					"destination" : [ "obj-17", 0 ],
					"hidden" : 0,
					"midpoints" : [  ]
				}

			}
, 			{
				"patchline" : 				{
					"source" : [ "obj-18", 0 ],
					"destination" : [ "obj-19", 0 ],
					"hidden" : 0,
					"midpoints" : [  ]
				}

			}
, 			{
				"patchline" : 				{
					"source" : [ "obj-52", 0 ],
					"destination" : [ "obj-51", 0 ],
					"hidden" : 0,
					"midpoints" : [  ]
				}

			}
, 			{
				"patchline" : 				{
					"source" : [ "obj-47", 0 ],
					"destination" : [ "obj-49", 0 ],
					"hidden" : 0,
					"midpoints" : [  ]
				}

			}
, 			{
				"patchline" : 				{
					"source" : [ "obj-52", 0 ],
					"destination" : [ "obj-50", 0 ],
					"hidden" : 0,
					"midpoints" : [  ]
				}

			}
, 			{
				"patchline" : 				{
					"source" : [ "obj-12", 1 ],
					"destination" : [ "obj-52", 0 ],
					"hidden" : 0,
					"midpoints" : [ 697.833313, 249.0, 726.0, 249.0 ]
				}

			}
, 			{
				"patchline" : 				{
					"source" : [ "obj-47", 0 ],
					"destination" : [ "obj-48", 0 ],
					"hidden" : 0,
					"midpoints" : [  ]
				}

			}
, 			{
				"patchline" : 				{
					"source" : [ "obj-12", 2 ],
					"destination" : [ "obj-47", 0 ],
					"hidden" : 0,
					"midpoints" : [  ]
				}

			}
, 			{
				"patchline" : 				{
					"source" : [ "obj-1", 1 ],
					"destination" : [ "obj-12", 0 ],
					"hidden" : 1,
					"midpoints" : [ 333.5, 100.0, 686.5, 100.0 ]
				}

			}
, 			{
				"patchline" : 				{
					"source" : [ "obj-10", 3 ],
					"destination" : [ "obj-12", 0 ],
					"hidden" : 0,
					"midpoints" : [ 167.75, 105.0, 686.5, 105.0 ]
				}

			}
, 			{
				"patchline" : 				{
					"source" : [ "obj-55", 0 ],
					"destination" : [ "obj-54", 0 ],
					"hidden" : 0,
					"midpoints" : [  ]
				}

			}
, 			{
				"patchline" : 				{
					"source" : [ "obj-12", 0 ],
					"destination" : [ "obj-55", 0 ],
					"hidden" : 0,
					"midpoints" : [  ]
				}

			}
, 			{
				"patchline" : 				{
					"source" : [ "obj-12", 0 ],
					"destination" : [ "obj-42", 0 ],
					"hidden" : 0,
					"midpoints" : [  ]
				}

			}
, 			{
				"patchline" : 				{
					"source" : [ "obj-42", 0 ],
					"destination" : [ "obj-44", 0 ],
					"hidden" : 0,
					"midpoints" : [  ]
				}

			}
, 			{
				"patchline" : 				{
					"source" : [ "obj-62", 0 ],
					"destination" : [ "obj-63", 0 ],
					"hidden" : 0,
					"midpoints" : [  ]
				}

			}
, 			{
				"patchline" : 				{
					"source" : [ "obj-13", 3 ],
					"destination" : [ "obj-62", 0 ],
					"hidden" : 0,
					"midpoints" : [  ]
				}

			}
, 			{
				"patchline" : 				{
					"source" : [ "obj-60", 0 ],
					"destination" : [ "obj-57", 0 ],
					"hidden" : 0,
					"midpoints" : [  ]
				}

			}
, 			{
				"patchline" : 				{
					"source" : [ "obj-60", 0 ],
					"destination" : [ "obj-56", 0 ],
					"hidden" : 0,
					"midpoints" : [  ]
				}

			}
, 			{
				"patchline" : 				{
					"source" : [ "obj-13", 2 ],
					"destination" : [ "obj-60", 0 ],
					"hidden" : 0,
					"midpoints" : [  ]
				}

			}
, 			{
				"patchline" : 				{
					"source" : [ "obj-53", 0 ],
					"destination" : [ "obj-60", 0 ],
					"hidden" : 0,
					"midpoints" : [  ]
				}

			}
, 			{
				"patchline" : 				{
					"source" : [ "obj-59", 0 ],
					"destination" : [ "obj-58", 0 ],
					"hidden" : 0,
					"midpoints" : [  ]
				}

			}
, 			{
				"patchline" : 				{
					"source" : [ "obj-13", 1 ],
					"destination" : [ "obj-59", 0 ],
					"hidden" : 0,
					"midpoints" : [  ]
				}

			}
, 			{
				"patchline" : 				{
					"source" : [ "obj-2", 1 ],
					"destination" : [ "obj-13", 0 ],
					"hidden" : 1,
					"midpoints" : [ 300.5, 110.0, 498.5, 110.0 ]
				}

			}
, 			{
				"patchline" : 				{
					"source" : [ "obj-10", 2 ],
					"destination" : [ "obj-13", 0 ],
					"hidden" : 0,
					"midpoints" : [ 156.0, 105.0, 498.5, 105.0 ]
				}

			}
, 			{
				"patchline" : 				{
					"source" : [ "obj-13", 0 ],
					"destination" : [ "obj-46", 0 ],
					"hidden" : 0,
					"midpoints" : [  ]
				}

			}
, 			{
				"patchline" : 				{
					"source" : [ "obj-46", 0 ],
					"destination" : [ "obj-28", 0 ],
					"hidden" : 0,
					"midpoints" : [  ]
				}

			}
, 			{
				"patchline" : 				{
					"source" : [ "obj-28", 0 ],
					"destination" : [ "obj-29", 0 ],
					"hidden" : 0,
					"midpoints" : [  ]
				}

			}
, 			{
				"patchline" : 				{
					"source" : [ "obj-30", 0 ],
					"destination" : [ "obj-16", 0 ],
					"hidden" : 0,
					"midpoints" : [ 373.5, 227.0, 415.0, 227.0, 415.0, 279.0, 381.5, 279.0 ]
				}

			}
, 			{
				"patchline" : 				{
					"source" : [ "obj-30", 0 ],
					"destination" : [ "obj-43", 0 ],
					"hidden" : 0,
					"midpoints" : [  ]
				}

			}
, 			{
				"patchline" : 				{
					"source" : [ "obj-21", 0 ],
					"destination" : [ "obj-30", 0 ],
					"hidden" : 0,
					"midpoints" : [  ]
				}

			}
, 			{
				"patchline" : 				{
					"source" : [ "obj-43", 0 ],
					"destination" : [ "obj-45", 0 ],
					"hidden" : 0,
					"midpoints" : [  ]
				}

			}
, 			{
				"patchline" : 				{
					"source" : [ "obj-21", 0 ],
					"destination" : [ "obj-20", 0 ],
					"hidden" : 0,
					"midpoints" : [  ]
				}

			}
, 			{
				"patchline" : 				{
					"source" : [ "obj-14", 3 ],
					"destination" : [ "obj-21", 0 ],
					"hidden" : 0,
					"midpoints" : [  ]
				}

			}
, 			{
				"patchline" : 				{
					"source" : [ "obj-14", 2 ],
					"destination" : [ "obj-27", 0 ],
					"hidden" : 0,
					"midpoints" : [ 325.0, 168.0 ]
				}

			}
, 			{
				"patchline" : 				{
					"source" : [ "obj-10", 3 ],
					"destination" : [ "obj-5", 0 ],
					"hidden" : 1,
					"midpoints" : [  ]
				}

			}
, 			{
				"patchline" : 				{
					"source" : [ "obj-1", 1 ],
					"destination" : [ "obj-5", 0 ],
					"hidden" : 1,
					"midpoints" : [  ]
				}

			}
, 			{
				"patchline" : 				{
					"source" : [ "obj-14", 1 ],
					"destination" : [ "obj-25", 0 ],
					"hidden" : 0,
					"midpoints" : [  ]
				}

			}
, 			{
				"patchline" : 				{
					"source" : [ "obj-3", 1 ],
					"destination" : [ "obj-14", 0 ],
					"hidden" : 1,
					"midpoints" : [ 267.5, 114.0, 310.5, 114.0 ]
				}

			}
, 			{
				"patchline" : 				{
					"source" : [ "obj-10", 1 ],
					"destination" : [ "obj-14", 0 ],
					"hidden" : 0,
					"midpoints" : [ 144.25, 105.0, 310.5, 105.0 ]
				}

			}
, 			{
				"patchline" : 				{
					"source" : [ "obj-16", 0 ],
					"destination" : [ "obj-24", 0 ],
					"hidden" : 0,
					"midpoints" : [ 381.5, 335.0, 304.5, 335.0 ]
				}

			}
, 			{
				"patchline" : 				{
					"source" : [ "obj-27", 0 ],
					"destination" : [ "obj-24", 0 ],
					"hidden" : 0,
					"midpoints" : [  ]
				}

			}
, 			{
				"patchline" : 				{
					"source" : [ "obj-14", 0 ],
					"destination" : [ "obj-26", 0 ],
					"hidden" : 0,
					"midpoints" : [  ]
				}

			}
, 			{
				"patchline" : 				{
					"source" : [ "obj-10", 2 ],
					"destination" : [ "obj-7", 0 ],
					"hidden" : 1,
					"midpoints" : [  ]
				}

			}
, 			{
				"patchline" : 				{
					"source" : [ "obj-2", 1 ],
					"destination" : [ "obj-7", 0 ],
					"hidden" : 1,
					"midpoints" : [  ]
				}

			}
, 			{
				"patchline" : 				{
					"source" : [ "obj-10", 1 ],
					"destination" : [ "obj-8", 0 ],
					"hidden" : 1,
					"midpoints" : [  ]
				}

			}
, 			{
				"patchline" : 				{
					"source" : [ "obj-3", 1 ],
					"destination" : [ "obj-8", 0 ],
					"hidden" : 1,
					"midpoints" : [  ]
				}

			}
, 			{
				"patchline" : 				{
					"source" : [ "obj-25", 0 ],
					"destination" : [ "obj-23", 0 ],
					"hidden" : 0,
					"midpoints" : [  ]
				}

			}
, 			{
				"patchline" : 				{
					"source" : [ "obj-20", 0 ],
					"destination" : [ "obj-22", 0 ],
					"hidden" : 0,
					"midpoints" : [  ]
				}

			}
, 			{
				"patchline" : 				{
					"source" : [ "obj-26", 0 ],
					"destination" : [ "obj-22", 0 ],
					"hidden" : 0,
					"midpoints" : [  ]
				}

			}
, 			{
				"patchline" : 				{
					"source" : [ "obj-4", 1 ],
					"destination" : [ "obj-9", 0 ],
					"hidden" : 1,
					"midpoints" : [  ]
				}

			}
, 			{
				"patchline" : 				{
					"source" : [ "obj-10", 0 ],
					"destination" : [ "obj-9", 0 ],
					"hidden" : 1,
					"midpoints" : [  ]
				}

			}
, 			{
				"patchline" : 				{
					"source" : [ "obj-11", 0 ],
					"destination" : [ "obj-10", 0 ],
					"hidden" : 0,
					"midpoints" : [  ]
				}

			}
, 			{
				"patchline" : 				{
					"source" : [ "obj-33", 0 ],
					"destination" : [ "obj-31", 0 ],
					"hidden" : 0,
					"midpoints" : [  ]
				}

			}
, 			{
				"patchline" : 				{
					"source" : [ "obj-36", 0 ],
					"destination" : [ "obj-41", 0 ],
					"hidden" : 0,
					"midpoints" : [  ]
				}

			}
, 			{
				"patchline" : 				{
					"source" : [ "obj-33", 0 ],
					"destination" : [ "obj-32", 0 ],
					"hidden" : 0,
					"midpoints" : [  ]
				}

			}
, 			{
				"patchline" : 				{
					"source" : [ "obj-36", 0 ],
					"destination" : [ "obj-40", 0 ],
					"hidden" : 0,
					"midpoints" : [  ]
				}

			}
, 			{
				"patchline" : 				{
					"source" : [ "obj-37", 0 ],
					"destination" : [ "obj-39", 0 ],
					"hidden" : 0,
					"midpoints" : [  ]
				}

			}
, 			{
				"patchline" : 				{
					"source" : [ "obj-15", 3 ],
					"destination" : [ "obj-33", 0 ],
					"hidden" : 0,
					"midpoints" : [  ]
				}

			}
, 			{
				"patchline" : 				{
					"source" : [ "obj-15", 2 ],
					"destination" : [ "obj-36", 0 ],
					"hidden" : 0,
					"midpoints" : [  ]
				}

			}
, 			{
				"patchline" : 				{
					"source" : [ "obj-37", 0 ],
					"destination" : [ "obj-38", 0 ],
					"hidden" : 0,
					"midpoints" : [  ]
				}

			}
, 			{
				"patchline" : 				{
					"source" : [ "obj-15", 1 ],
					"destination" : [ "obj-37", 0 ],
					"hidden" : 0,
					"midpoints" : [  ]
				}

			}
, 			{
				"patchline" : 				{
					"source" : [ "obj-35", 0 ],
					"destination" : [ "obj-34", 0 ],
					"hidden" : 0,
					"midpoints" : [  ]
				}

			}
, 			{
				"patchline" : 				{
					"source" : [ "obj-15", 0 ],
					"destination" : [ "obj-35", 0 ],
					"hidden" : 0,
					"midpoints" : [  ]
				}

			}
, 			{
				"patchline" : 				{
					"source" : [ "obj-10", 0 ],
					"destination" : [ "obj-15", 0 ],
					"hidden" : 0,
					"midpoints" : [ 132.5, 105.0, 38.5, 105.0 ]
				}

			}
, 			{
				"patchline" : 				{
					"source" : [ "obj-4", 1 ],
					"destination" : [ "obj-15", 0 ],
					"hidden" : 1,
					"midpoints" : [ 233.5, 114.0, 38.5, 114.0 ]
				}

			}
 ]
	}

}
