{
	"patcher" : 	{
		"fileversion" : 1,
		"appversion" : 		{
			"major" : 5,
			"minor" : 1,
			"revision" : 9
		}
,
		"rect" : [ 1716.0, -173.0, 600.0, 426.0 ],
		"bglocked" : 0,
		"defrect" : [ 1716.0, -173.0, 600.0, 426.0 ],
		"openrect" : [ 0.0, 0.0, 0.0, 0.0 ],
		"openinpresentation" : 0,
		"default_fontsize" : 12.0,
		"default_fontface" : 0,
		"default_fontname" : "Arial",
		"gridonopen" : 0,
		"gridsize" : [ 15.0, 15.0 ],
		"gridsnaponopen" : 0,
		"toolbarvisible" : 1,
		"boxanimatetime" : 200,
		"imprint" : 0,
		"enablehscroll" : 1,
		"enablevscroll" : 1,
		"devicewidth" : 0.0,
		"boxes" : [ 			{
				"box" : 				{
					"maxclass" : "ubutton",
					"outlettype" : [ "bang", "bang", "", "int" ],
					"handoff" : "",
					"numinlets" : 1,
					"patching_rect" : [ 298.0, 45.0, 31.0, 28.0 ],
					"id" : "obj-1",
					"numoutlets" : 4,
					"hltcolor" : [ 1.0, 0.0, 0.0, 0.501961 ]
				}

			}
, 			{
				"box" : 				{
					"maxclass" : "ubutton",
					"outlettype" : [ "bang", "bang", "", "int" ],
					"handoff" : "",
					"numinlets" : 1,
					"patching_rect" : [ 263.0, 45.0, 31.0, 28.0 ],
					"id" : "obj-2",
					"numoutlets" : 4,
					"hltcolor" : [ 1.0, 0.0, 0.0, 0.501961 ]
				}

			}
, 			{
				"box" : 				{
					"maxclass" : "ubutton",
					"outlettype" : [ "bang", "bang", "", "int" ],
					"handoff" : "",
					"numinlets" : 1,
					"patching_rect" : [ 232.0, 46.0, 31.0, 28.0 ],
					"id" : "obj-3",
					"numoutlets" : 4,
					"hltcolor" : [ 1.0, 0.0, 0.0, 0.501961 ]
				}

			}
, 			{
				"box" : 				{
					"maxclass" : "button",
					"outlettype" : [ "bang" ],
					"numinlets" : 1,
					"patching_rect" : [ 301.0, 45.0, 30.0, 30.0 ],
					"id" : "obj-4",
					"numoutlets" : 1
				}

			}
, 			{
				"box" : 				{
					"maxclass" : "button",
					"outlettype" : [ "bang" ],
					"numinlets" : 1,
					"patching_rect" : [ 266.0, 45.0, 30.0, 30.0 ],
					"id" : "obj-5",
					"numoutlets" : 1
				}

			}
, 			{
				"box" : 				{
					"maxclass" : "button",
					"outlettype" : [ "bang" ],
					"numinlets" : 1,
					"patching_rect" : [ 231.0, 45.0, 30.0, 30.0 ],
					"id" : "obj-6",
					"numoutlets" : 1
				}

			}
, 			{
				"box" : 				{
					"maxclass" : "newobj",
					"text" : "t b b",
					"outlettype" : [ "bang", "bang" ],
					"fontsize" : 9.0,
					"numinlets" : 1,
					"patching_rect" : [ 370.0, 103.0, 30.0, 17.0 ],
					"id" : "obj-7",
					"fontname" : "Arial",
					"numoutlets" : 2
				}

			}
, 			{
				"box" : 				{
					"maxclass" : "newobj",
					"text" : "t b b",
					"outlettype" : [ "bang", "bang" ],
					"fontsize" : 9.0,
					"numinlets" : 1,
					"patching_rect" : [ 239.0, 103.0, 30.0, 17.0 ],
					"id" : "obj-8",
					"fontname" : "Arial",
					"numoutlets" : 2
				}

			}
, 			{
				"box" : 				{
					"maxclass" : "newobj",
					"text" : "sel 1 2 3",
					"outlettype" : [ "bang", "bang", "bang", "" ],
					"fontsize" : 9.0,
					"numinlets" : 1,
					"patching_rect" : [ 106.0, 47.0, 53.0, 17.0 ],
					"id" : "obj-9",
					"fontname" : "Arial",
					"numoutlets" : 4
				}

			}
, 			{
				"box" : 				{
					"maxclass" : "newobj",
					"text" : "r tails-E",
					"outlettype" : [ "" ],
					"fontsize" : 9.0,
					"color" : [ 1.0, 0.890196, 0.090196, 1.0 ],
					"numinlets" : 0,
					"patching_rect" : [ 105.0, 25.0, 48.0, 17.0 ],
					"id" : "obj-10",
					"fontname" : "Arial",
					"numoutlets" : 1
				}

			}
, 			{
				"box" : 				{
					"maxclass" : "newobj",
					"text" : "t b b b b",
					"outlettype" : [ "bang", "bang", "bang", "bang" ],
					"fontsize" : 9.0,
					"numinlets" : 1,
					"patching_rect" : [ 39.0, 103.0, 53.0, 17.0 ],
					"id" : "obj-11",
					"fontname" : "Arial",
					"numoutlets" : 4
				}

			}
, 			{
				"box" : 				{
					"maxclass" : "button",
					"outlettype" : [ "bang" ],
					"numinlets" : 1,
					"patching_rect" : [ 401.0, 135.0, 15.0, 15.0 ],
					"id" : "obj-12",
					"numoutlets" : 1
				}

			}
, 			{
				"box" : 				{
					"maxclass" : "newobj",
					"text" : "s popfilt-pams",
					"fontsize" : 9.0,
					"color" : [ 1.0, 0.235294, 0.235294, 1.0 ],
					"numinlets" : 1,
					"patching_rect" : [ 449.0, 201.0, 74.0, 17.0 ],
					"id" : "obj-13",
					"fontname" : "Arial",
					"numoutlets" : 0
				}

			}
, 			{
				"box" : 				{
					"maxclass" : "message",
					"text" : "Etail3",
					"outlettype" : [ "" ],
					"fontsize" : 9.0,
					"numinlets" : 2,
					"patching_rect" : [ 449.0, 180.0, 34.0, 15.0 ],
					"id" : "obj-14",
					"fontname" : "Arial",
					"numoutlets" : 1
				}

			}
, 			{
				"box" : 				{
					"maxclass" : "newobj",
					"text" : "s Raychd-tng-info",
					"fontsize" : 9.0,
					"color" : [ 1.0, 0.235294, 0.235294, 1.0 ],
					"numinlets" : 1,
					"patching_rect" : [ 420.0, 311.0, 89.0, 17.0 ],
					"id" : "obj-15",
					"fontname" : "Arial",
					"numoutlets" : 0
				}

			}
, 			{
				"box" : 				{
					"maxclass" : "message",
					"text" : "*C",
					"outlettype" : [ "" ],
					"fontsize" : 9.0,
					"numinlets" : 2,
					"patching_rect" : [ 420.0, 287.0, 21.0, 15.0 ],
					"id" : "obj-16",
					"fontname" : "Arial",
					"numoutlets" : 1
				}

			}
, 			{
				"box" : 				{
					"maxclass" : "newobj",
					"text" : "s Raychd-tng-info",
					"fontsize" : 9.0,
					"color" : [ 1.0, 0.235294, 0.235294, 1.0 ],
					"numinlets" : 1,
					"patching_rect" : [ 262.0, 316.0, 89.0, 17.0 ],
					"id" : "obj-17",
					"fontname" : "Arial",
					"numoutlets" : 0
				}

			}
, 			{
				"box" : 				{
					"maxclass" : "newobj",
					"text" : "s DSyn2-modu",
					"fontsize" : 9.0,
					"color" : [ 1.0, 0.235294, 0.235294, 1.0 ],
					"numinlets" : 1,
					"patching_rect" : [ 250.0, 187.0, 73.0, 17.0 ],
					"id" : "obj-18",
					"fontname" : "Arial",
					"numoutlets" : 0
				}

			}
, 			{
				"box" : 				{
					"maxclass" : "newobj",
					"text" : "s DSyn1-modu",
					"fontsize" : 9.0,
					"color" : [ 1.0, 0.235294, 0.235294, 1.0 ],
					"numinlets" : 1,
					"patching_rect" : [ 267.0, 168.0, 73.0, 17.0 ],
					"id" : "obj-19",
					"fontname" : "Arial",
					"numoutlets" : 0
				}

			}
, 			{
				"box" : 				{
					"maxclass" : "newobj",
					"text" : "s DSyn2-tunings",
					"fontsize" : 9.0,
					"color" : [ 1.0, 0.235294, 0.235294, 1.0 ],
					"numinlets" : 1,
					"patching_rect" : [ 285.0, 258.0, 82.0, 17.0 ],
					"id" : "obj-20",
					"fontname" : "Arial",
					"numoutlets" : 0
				}

			}
, 			{
				"box" : 				{
					"maxclass" : "newobj",
					"text" : "s DSyn1-tunings",
					"fontsize" : 9.0,
					"color" : [ 1.0, 0.235294, 0.235294, 1.0 ],
					"numinlets" : 1,
					"patching_rect" : [ 300.0, 240.0, 82.0, 17.0 ],
					"id" : "obj-21",
					"fontname" : "Arial",
					"numoutlets" : 0
				}

			}
, 			{
				"box" : 				{
					"maxclass" : "message",
					"text" : "*D7",
					"outlettype" : [ "" ],
					"fontsize" : 9.0,
					"numinlets" : 2,
					"patching_rect" : [ 262.0, 293.0, 27.0, 15.0 ],
					"id" : "obj-22",
					"fontname" : "Arial",
					"numoutlets" : 1
				}

			}
, 			{
				"box" : 				{
					"maxclass" : "message",
					"text" : "TNG1",
					"outlettype" : [ "" ],
					"fontsize" : 9.0,
					"numinlets" : 2,
					"patching_rect" : [ 285.0, 219.0, 33.0, 15.0 ],
					"id" : "obj-23",
					"fontname" : "Arial",
					"numoutlets" : 1
				}

			}
, 			{
				"box" : 				{
					"maxclass" : "message",
					"text" : "17",
					"outlettype" : [ "" ],
					"fontsize" : 9.0,
					"numinlets" : 2,
					"patching_rect" : [ 250.0, 143.0, 20.0, 15.0 ],
					"id" : "obj-24",
					"fontname" : "Arial",
					"numoutlets" : 1
				}

			}
, 			{
				"box" : 				{
					"maxclass" : "newobj",
					"text" : "s DSyn2-modu",
					"fontsize" : 9.0,
					"color" : [ 1.0, 0.235294, 0.235294, 1.0 ],
					"numinlets" : 1,
					"patching_rect" : [ 53.0, 284.0, 73.0, 17.0 ],
					"id" : "obj-25",
					"fontname" : "Arial",
					"numoutlets" : 0
				}

			}
, 			{
				"box" : 				{
					"maxclass" : "newobj",
					"text" : "s DSyn1-modu",
					"fontsize" : 9.0,
					"color" : [ 1.0, 0.235294, 0.235294, 1.0 ],
					"numinlets" : 1,
					"patching_rect" : [ 70.0, 265.0, 73.0, 17.0 ],
					"id" : "obj-26",
					"fontname" : "Arial",
					"numoutlets" : 0
				}

			}
, 			{
				"box" : 				{
					"maxclass" : "newobj",
					"text" : "s Raychd-tng-info",
					"fontsize" : 9.0,
					"color" : [ 1.0, 0.235294, 0.235294, 1.0 ],
					"numinlets" : 1,
					"patching_rect" : [ 63.0, 342.0, 89.0, 17.0 ],
					"id" : "obj-27",
					"fontname" : "Arial",
					"numoutlets" : 0
				}

			}
, 			{
				"box" : 				{
					"maxclass" : "newobj",
					"text" : "s DSyn2-tunings",
					"fontsize" : 9.0,
					"color" : [ 1.0, 0.235294, 0.235294, 1.0 ],
					"numinlets" : 1,
					"patching_rect" : [ 150.0, 284.0, 82.0, 17.0 ],
					"id" : "obj-28",
					"fontname" : "Arial",
					"numoutlets" : 0
				}

			}
, 			{
				"box" : 				{
					"maxclass" : "newobj",
					"text" : "s DSyn1-tunings",
					"fontsize" : 9.0,
					"color" : [ 1.0, 0.235294, 0.235294, 1.0 ],
					"numinlets" : 1,
					"patching_rect" : [ 165.0, 266.0, 82.0, 17.0 ],
					"id" : "obj-29",
					"fontname" : "Arial",
					"numoutlets" : 0
				}

			}
, 			{
				"box" : 				{
					"maxclass" : "message",
					"text" : "*E",
					"outlettype" : [ "" ],
					"fontsize" : 9.0,
					"numinlets" : 2,
					"patching_rect" : [ 63.0, 321.0, 20.0, 15.0 ],
					"id" : "obj-30",
					"fontname" : "Arial",
					"numoutlets" : 1
				}

			}
, 			{
				"box" : 				{
					"maxclass" : "message",
					"text" : "TNG5A",
					"outlettype" : [ "" ],
					"fontsize" : 9.0,
					"numinlets" : 2,
					"patching_rect" : [ 150.0, 245.0, 39.0, 15.0 ],
					"id" : "obj-31",
					"fontname" : "Arial",
					"numoutlets" : 1
				}

			}
, 			{
				"box" : 				{
					"maxclass" : "message",
					"text" : "12",
					"outlettype" : [ "" ],
					"fontsize" : 9.0,
					"numinlets" : 2,
					"patching_rect" : [ 53.0, 240.0, 20.0, 15.0 ],
					"id" : "obj-32",
					"fontname" : "Arial",
					"numoutlets" : 1
				}

			}
, 			{
				"box" : 				{
					"maxclass" : "newobj",
					"text" : "s crab-metro",
					"fontsize" : 9.0,
					"color" : [ 1.0, 0.235294, 0.235294, 1.0 ],
					"numinlets" : 1,
					"patching_rect" : [ 67.0, 215.0, 68.0, 17.0 ],
					"id" : "obj-33",
					"fontname" : "Arial",
					"numoutlets" : 0
				}

			}
, 			{
				"box" : 				{
					"maxclass" : "newobj",
					"text" : "s Shelv-indr",
					"fontsize" : 9.0,
					"color" : [ 1.0, 0.235294, 0.235294, 1.0 ],
					"numinlets" : 1,
					"patching_rect" : [ 67.0, 194.0, 64.0, 17.0 ],
					"id" : "obj-34",
					"fontname" : "Arial",
					"numoutlets" : 0
				}

			}
, 			{
				"box" : 				{
					"maxclass" : "message",
					"text" : "0",
					"outlettype" : [ "" ],
					"fontsize" : 9.0,
					"numinlets" : 2,
					"patching_rect" : [ 65.0, 149.0, 16.0, 15.0 ],
					"id" : "obj-35",
					"fontname" : "Arial",
					"numoutlets" : 1
				}

			}
, 			{
				"box" : 				{
					"maxclass" : "inlet",
					"outlettype" : [ "" ],
					"numinlets" : 0,
					"patching_rect" : [ 420.0, 112.0, 15.0, 15.0 ],
					"id" : "obj-36",
					"numoutlets" : 1,
					"comment" : ""
				}

			}
, 			{
				"box" : 				{
					"maxclass" : "newobj",
					"text" : "s sensing",
					"fontsize" : 9.0,
					"color" : [ 1.0, 0.235294, 0.235294, 1.0 ],
					"numinlets" : 1,
					"patching_rect" : [ 65.0, 172.0, 49.0, 17.0 ],
					"id" : "obj-37",
					"fontname" : "Arial",
					"numoutlets" : 0
				}

			}
 ],
		"lines" : [ 			{
				"patchline" : 				{
					"source" : [ "obj-14", 0 ],
					"destination" : [ "obj-13", 0 ],
					"hidden" : 0,
					"midpoints" : [  ]
				}

			}
, 			{
				"patchline" : 				{
					"source" : [ "obj-7", 1 ],
					"destination" : [ "obj-14", 0 ],
					"hidden" : 0,
					"midpoints" : [  ]
				}

			}
, 			{
				"patchline" : 				{
					"source" : [ "obj-12", 0 ],
					"destination" : [ "obj-14", 0 ],
					"hidden" : 0,
					"midpoints" : [  ]
				}

			}
, 			{
				"patchline" : 				{
					"source" : [ "obj-36", 0 ],
					"destination" : [ "obj-14", 0 ],
					"hidden" : 0,
					"midpoints" : [  ]
				}

			}
, 			{
				"patchline" : 				{
					"source" : [ "obj-16", 0 ],
					"destination" : [ "obj-15", 0 ],
					"hidden" : 0,
					"midpoints" : [  ]
				}

			}
, 			{
				"patchline" : 				{
					"source" : [ "obj-36", 0 ],
					"destination" : [ "obj-16", 0 ],
					"hidden" : 0,
					"midpoints" : [  ]
				}

			}
, 			{
				"patchline" : 				{
					"source" : [ "obj-7", 0 ],
					"destination" : [ "obj-16", 0 ],
					"hidden" : 0,
					"midpoints" : [  ]
				}

			}
, 			{
				"patchline" : 				{
					"source" : [ "obj-12", 0 ],
					"destination" : [ "obj-16", 0 ],
					"hidden" : 0,
					"midpoints" : [  ]
				}

			}
, 			{
				"patchline" : 				{
					"source" : [ "obj-1", 1 ],
					"destination" : [ "obj-7", 0 ],
					"hidden" : 1,
					"midpoints" : [  ]
				}

			}
, 			{
				"patchline" : 				{
					"source" : [ "obj-9", 2 ],
					"destination" : [ "obj-7", 0 ],
					"hidden" : 0,
					"midpoints" : [ 138.166672, 96.0, 379.5, 96.0 ]
				}

			}
, 			{
				"patchline" : 				{
					"source" : [ "obj-1", 1 ],
					"destination" : [ "obj-4", 0 ],
					"hidden" : 1,
					"midpoints" : [  ]
				}

			}
, 			{
				"patchline" : 				{
					"source" : [ "obj-9", 2 ],
					"destination" : [ "obj-4", 0 ],
					"hidden" : 1,
					"midpoints" : [  ]
				}

			}
, 			{
				"patchline" : 				{
					"source" : [ "obj-23", 0 ],
					"destination" : [ "obj-21", 0 ],
					"hidden" : 0,
					"midpoints" : [  ]
				}

			}
, 			{
				"patchline" : 				{
					"source" : [ "obj-23", 0 ],
					"destination" : [ "obj-20", 0 ],
					"hidden" : 0,
					"midpoints" : [  ]
				}

			}
, 			{
				"patchline" : 				{
					"source" : [ "obj-24", 0 ],
					"destination" : [ "obj-19", 0 ],
					"hidden" : 0,
					"midpoints" : [  ]
				}

			}
, 			{
				"patchline" : 				{
					"source" : [ "obj-2", 1 ],
					"destination" : [ "obj-5", 0 ],
					"hidden" : 1,
					"midpoints" : [  ]
				}

			}
, 			{
				"patchline" : 				{
					"source" : [ "obj-9", 1 ],
					"destination" : [ "obj-5", 0 ],
					"hidden" : 1,
					"midpoints" : [  ]
				}

			}
, 			{
				"patchline" : 				{
					"source" : [ "obj-22", 0 ],
					"destination" : [ "obj-17", 0 ],
					"hidden" : 0,
					"midpoints" : [  ]
				}

			}
, 			{
				"patchline" : 				{
					"source" : [ "obj-8", 0 ],
					"destination" : [ "obj-22", 0 ],
					"hidden" : 0,
					"midpoints" : [ 248.5, 228.0, 271.5, 228.0 ]
				}

			}
, 			{
				"patchline" : 				{
					"source" : [ "obj-24", 0 ],
					"destination" : [ "obj-18", 0 ],
					"hidden" : 0,
					"midpoints" : [  ]
				}

			}
, 			{
				"patchline" : 				{
					"source" : [ "obj-8", 1 ],
					"destination" : [ "obj-24", 0 ],
					"hidden" : 0,
					"midpoints" : [ 259.5, 131.0, 258.0, 131.0 ]
				}

			}
, 			{
				"patchline" : 				{
					"source" : [ "obj-2", 1 ],
					"destination" : [ "obj-8", 0 ],
					"hidden" : 1,
					"midpoints" : [  ]
				}

			}
, 			{
				"patchline" : 				{
					"source" : [ "obj-9", 1 ],
					"destination" : [ "obj-8", 0 ],
					"hidden" : 0,
					"midpoints" : [ 126.833336, 96.0, 248.5, 96.0 ]
				}

			}
, 			{
				"patchline" : 				{
					"source" : [ "obj-3", 1 ],
					"destination" : [ "obj-6", 0 ],
					"hidden" : 1,
					"midpoints" : [  ]
				}

			}
, 			{
				"patchline" : 				{
					"source" : [ "obj-9", 0 ],
					"destination" : [ "obj-6", 0 ],
					"hidden" : 1,
					"midpoints" : [  ]
				}

			}
, 			{
				"patchline" : 				{
					"source" : [ "obj-31", 0 ],
					"destination" : [ "obj-29", 0 ],
					"hidden" : 0,
					"midpoints" : [  ]
				}

			}
, 			{
				"patchline" : 				{
					"source" : [ "obj-31", 0 ],
					"destination" : [ "obj-28", 0 ],
					"hidden" : 0,
					"midpoints" : [  ]
				}

			}
, 			{
				"patchline" : 				{
					"source" : [ "obj-11", 3 ],
					"destination" : [ "obj-31", 0 ],
					"hidden" : 0,
					"midpoints" : [ 82.5, 124.0, 159.5, 124.0 ]
				}

			}
, 			{
				"patchline" : 				{
					"source" : [ "obj-10", 0 ],
					"destination" : [ "obj-9", 0 ],
					"hidden" : 0,
					"midpoints" : [  ]
				}

			}
, 			{
				"patchline" : 				{
					"source" : [ "obj-32", 0 ],
					"destination" : [ "obj-26", 0 ],
					"hidden" : 0,
					"midpoints" : [  ]
				}

			}
, 			{
				"patchline" : 				{
					"source" : [ "obj-35", 0 ],
					"destination" : [ "obj-33", 0 ],
					"hidden" : 0,
					"midpoints" : [ 55.0, 164.0, 55.0, 212.0, 76.5, 212.0 ]
				}

			}
, 			{
				"patchline" : 				{
					"source" : [ "obj-35", 0 ],
					"destination" : [ "obj-34", 0 ],
					"hidden" : 0,
					"midpoints" : [ 55.0, 164.0, 55.0, 192.0, 76.5, 192.0 ]
				}

			}
, 			{
				"patchline" : 				{
					"source" : [ "obj-35", 0 ],
					"destination" : [ "obj-37", 0 ],
					"hidden" : 0,
					"midpoints" : [  ]
				}

			}
, 			{
				"patchline" : 				{
					"source" : [ "obj-11", 2 ],
					"destination" : [ "obj-35", 0 ],
					"hidden" : 0,
					"midpoints" : [ 71.166664, 134.0, 71.0, 134.0 ]
				}

			}
, 			{
				"patchline" : 				{
					"source" : [ "obj-30", 0 ],
					"destination" : [ "obj-27", 0 ],
					"hidden" : 0,
					"midpoints" : [  ]
				}

			}
, 			{
				"patchline" : 				{
					"source" : [ "obj-11", 0 ],
					"destination" : [ "obj-30", 0 ],
					"hidden" : 0,
					"midpoints" : [ 48.5, 314.0, 71.0, 314.0 ]
				}

			}
, 			{
				"patchline" : 				{
					"source" : [ "obj-32", 0 ],
					"destination" : [ "obj-25", 0 ],
					"hidden" : 0,
					"midpoints" : [  ]
				}

			}
, 			{
				"patchline" : 				{
					"source" : [ "obj-11", 1 ],
					"destination" : [ "obj-32", 0 ],
					"hidden" : 0,
					"midpoints" : [ 59.833332, 127.0, 47.0, 127.0, 47.0, 238.0, 61.0, 238.0 ]
				}

			}
, 			{
				"patchline" : 				{
					"source" : [ "obj-3", 1 ],
					"destination" : [ "obj-11", 0 ],
					"hidden" : 1,
					"midpoints" : [  ]
				}

			}
, 			{
				"patchline" : 				{
					"source" : [ "obj-9", 0 ],
					"destination" : [ "obj-11", 0 ],
					"hidden" : 0,
					"midpoints" : [ 115.5, 96.0, 48.5, 96.0 ]
				}

			}
 ]
	}

}
