{
	"patcher" : 	{
		"fileversion" : 1,
		"appversion" : 		{
			"major" : 5,
			"minor" : 1,
			"revision" : 9
		}
,
		"rect" : [ 903.0, 129.0, 479.0, 502.0 ],
		"bglocked" : 0,
		"defrect" : [ 903.0, 129.0, 479.0, 502.0 ],
		"openrect" : [ 0.0, 0.0, 0.0, 0.0 ],
		"openinpresentation" : 0,
		"default_fontsize" : 12.0,
		"default_fontface" : 0,
		"default_fontname" : "Arial",
		"gridonopen" : 0,
		"gridsize" : [ 15.0, 15.0 ],
		"gridsnaponopen" : 0,
		"toolbarvisible" : 1,
		"boxanimatetime" : 200,
		"imprint" : 0,
		"enablehscroll" : 1,
		"enablevscroll" : 1,
		"devicewidth" : 0.0,
		"boxes" : [ 			{
				"box" : 				{
					"maxclass" : "comment",
					"text" : "to poly~inner3bnks-lite-Pt1M",
					"fontsize" : 12.0,
					"numinlets" : 1,
					"patching_rect" : [ 129.0, 377.0, 167.0, 20.0 ],
					"numoutlets" : 0,
					"id" : "obj-6",
					"fontname" : "Arial"
				}

			}
, 			{
				"box" : 				{
					"maxclass" : "newobj",
					"text" : "int",
					"fontsize" : 9.0,
					"numinlets" : 2,
					"patching_rect" : [ 70.0, 160.0, 27.0, 17.0 ],
					"numoutlets" : 1,
					"id" : "obj-5",
					"fontname" : "Arial",
					"outlettype" : [ "int" ]
				}

			}
, 			{
				"box" : 				{
					"maxclass" : "number",
					"fontsize" : 9.0,
					"triscale" : 0.9,
					"numinlets" : 1,
					"patching_rect" : [ 131.0, 72.0, 35.0, 17.0 ],
					"numoutlets" : 2,
					"id" : "obj-34",
					"fontname" : "Arial",
					"htextcolor" : [ 0.870588, 0.870588, 0.870588, 1.0 ],
					"outlettype" : [ "int", "bang" ],
					"bgcolor" : [ 0.866667, 0.866667, 0.866667, 1.0 ]
				}

			}
, 			{
				"box" : 				{
					"maxclass" : "newobj",
					"text" : "r inners-hi",
					"fontsize" : 9.0,
					"numinlets" : 0,
					"patching_rect" : [ 118.0, 33.0, 51.0, 17.0 ],
					"numoutlets" : 1,
					"color" : [ 0.443137, 0.403922, 0.12549, 1.0 ],
					"id" : "obj-33",
					"fontname" : "Arial",
					"outlettype" : [ "" ],
					"bgcolor" : [ 1.0, 1.0, 0.2, 1.0 ]
				}

			}
, 			{
				"box" : 				{
					"maxclass" : "newobj",
					"text" : "r inners-low",
					"fontsize" : 9.0,
					"numinlets" : 0,
					"patching_rect" : [ 41.0, 33.0, 65.0, 17.0 ],
					"numoutlets" : 1,
					"color" : [ 0.443137, 0.403922, 0.12549, 1.0 ],
					"id" : "obj-4",
					"fontname" : "Arial",
					"outlettype" : [ "" ],
					"bgcolor" : [ 1.0, 1.0, 0.2, 1.0 ]
				}

			}
, 			{
				"box" : 				{
					"maxclass" : "newobj",
					"text" : "s tmr3-gate",
					"fontsize" : 10.0,
					"numinlets" : 1,
					"patching_rect" : [ 350.0, 313.0, 70.0, 18.0 ],
					"numoutlets" : 0,
					"color" : [ 1.0, 0.247059, 0.247059, 1.0 ],
					"id" : "obj-1",
					"fontname" : "Arial"
				}

			}
, 			{
				"box" : 				{
					"maxclass" : "outlet",
					"numinlets" : 1,
					"patching_rect" : [ 322.0, 344.0, 15.0, 15.0 ],
					"numoutlets" : 0,
					"id" : "obj-2",
					"comment" : ""
				}

			}
, 			{
				"box" : 				{
					"maxclass" : "newobj",
					"text" : "send~ amp-innersC",
					"fontsize" : 9.0,
					"numinlets" : 1,
					"patching_rect" : [ 31.0, 379.0, 95.0, 17.0 ],
					"numoutlets" : 0,
					"color" : [ 1.0, 0.247059, 0.247059, 1.0 ],
					"id" : "obj-3",
					"fontname" : "Arial"
				}

			}
, 			{
				"box" : 				{
					"maxclass" : "newobj",
					"text" : "/ 240.",
					"fontsize" : 10.0,
					"numinlets" : 2,
					"patching_rect" : [ 31.0, 246.0, 45.0, 16.0 ],
					"numoutlets" : 1,
					"id" : "obj-7",
					"fontname" : "Courier",
					"outlettype" : [ "float" ]
				}

			}
, 			{
				"box" : 				{
					"maxclass" : "newobj",
					"text" : "line~",
					"fontsize" : 10.0,
					"numinlets" : 2,
					"patching_rect" : [ 31.0, 308.0, 39.0, 16.0 ],
					"numoutlets" : 2,
					"id" : "obj-8",
					"fontname" : "Courier",
					"outlettype" : [ "signal", "bang" ]
				}

			}
, 			{
				"box" : 				{
					"maxclass" : "message",
					"text" : "$1 50",
					"fontsize" : 10.0,
					"numinlets" : 2,
					"patching_rect" : [ 31.0, 288.0, 39.0, 14.0 ],
					"numoutlets" : 1,
					"id" : "obj-9",
					"fontname" : "Courier",
					"outlettype" : [ "" ]
				}

			}
, 			{
				"box" : 				{
					"maxclass" : "newobj",
					"text" : "* 0.5",
					"fontsize" : 10.0,
					"numinlets" : 2,
					"patching_rect" : [ 31.0, 267.0, 39.0, 16.0 ],
					"numoutlets" : 1,
					"id" : "obj-10",
					"fontname" : "Courier",
					"outlettype" : [ "float" ]
				}

			}
, 			{
				"box" : 				{
					"maxclass" : "newobj",
					"text" : "int",
					"fontsize" : 9.0,
					"numinlets" : 2,
					"patching_rect" : [ 31.0, 197.0, 27.0, 17.0 ],
					"numoutlets" : 1,
					"id" : "obj-11",
					"fontname" : "Arial",
					"outlettype" : [ "int" ]
				}

			}
, 			{
				"box" : 				{
					"maxclass" : "message",
					"text" : "0",
					"fontsize" : 9.0,
					"numinlets" : 2,
					"patching_rect" : [ 243.0, 288.0, 16.0, 15.0 ],
					"numoutlets" : 1,
					"id" : "obj-12",
					"fontname" : "Arial",
					"outlettype" : [ "" ]
				}

			}
, 			{
				"box" : 				{
					"maxclass" : "message",
					"text" : "3",
					"fontsize" : 9.0,
					"numinlets" : 2,
					"patching_rect" : [ 223.0, 288.0, 16.0, 15.0 ],
					"numoutlets" : 1,
					"id" : "obj-13",
					"fontname" : "Arial",
					"outlettype" : [ "" ]
				}

			}
, 			{
				"box" : 				{
					"maxclass" : "newobj",
					"text" : "s tmr3-ind'r",
					"fontsize" : 10.0,
					"numinlets" : 1,
					"patching_rect" : [ 235.0, 318.0, 74.0, 18.0 ],
					"numoutlets" : 0,
					"color" : [ 1.0, 0.247059, 0.247059, 1.0 ],
					"id" : "obj-14",
					"fontname" : "Arial"
				}

			}
, 			{
				"box" : 				{
					"maxclass" : "comment",
					"text" : "to IS-perf-scrn",
					"fontsize" : 9.0,
					"numinlets" : 1,
					"patching_rect" : [ 234.0, 339.0, 80.0, 17.0 ],
					"numoutlets" : 0,
					"id" : "obj-15",
					"fontname" : "Arial"
				}

			}
, 			{
				"box" : 				{
					"maxclass" : "message",
					"text" : "0",
					"fontsize" : 9.0,
					"numinlets" : 2,
					"patching_rect" : [ 332.0, 259.0, 16.0, 15.0 ],
					"numoutlets" : 1,
					"id" : "obj-16",
					"fontname" : "Arial",
					"outlettype" : [ "" ]
				}

			}
, 			{
				"box" : 				{
					"maxclass" : "message",
					"text" : "1",
					"fontsize" : 9.0,
					"numinlets" : 2,
					"patching_rect" : [ 312.0, 259.0, 16.0, 15.0 ],
					"numoutlets" : 1,
					"id" : "obj-17",
					"fontname" : "Arial",
					"outlettype" : [ "" ]
				}

			}
, 			{
				"box" : 				{
					"maxclass" : "toggle",
					"numinlets" : 1,
					"patching_rect" : [ 322.0, 283.0, 21.0, 21.0 ],
					"numoutlets" : 1,
					"id" : "obj-18",
					"outlettype" : [ "int" ]
				}

			}
, 			{
				"box" : 				{
					"maxclass" : "number",
					"fontsize" : 9.0,
					"triscale" : 0.9,
					"numinlets" : 1,
					"patching_rect" : [ 276.0, 204.0, 97.0, 17.0 ],
					"numoutlets" : 2,
					"id" : "obj-19",
					"fontname" : "Arial",
					"htextcolor" : [ 0.870588, 0.870588, 0.870588, 1.0 ],
					"outlettype" : [ "int", "bang" ],
					"bgcolor" : [ 0.866667, 0.866667, 0.866667, 1.0 ]
				}

			}
, 			{
				"box" : 				{
					"maxclass" : "newobj",
					"text" : "scale 30 380 1000 9000",
					"fontsize" : 9.0,
					"numinlets" : 6,
					"patching_rect" : [ 256.0, 178.0, 122.0, 17.0 ],
					"numoutlets" : 1,
					"id" : "obj-20",
					"fontname" : "Arial",
					"outlettype" : [ "" ]
				}

			}
, 			{
				"box" : 				{
					"maxclass" : "button",
					"numinlets" : 1,
					"patching_rect" : [ 117.0, 131.0, 15.0, 15.0 ],
					"numoutlets" : 1,
					"id" : "obj-21",
					"outlettype" : [ "bang" ]
				}

			}
, 			{
				"box" : 				{
					"maxclass" : "button",
					"numinlets" : 1,
					"patching_rect" : [ 127.0, 229.0, 15.0, 15.0 ],
					"numoutlets" : 1,
					"id" : "obj-22",
					"outlettype" : [ "bang" ]
				}

			}
, 			{
				"box" : 				{
					"maxclass" : "newobj",
					"text" : "delay 2000",
					"fontsize" : 9.0,
					"numinlets" : 2,
					"patching_rect" : [ 112.0, 206.0, 60.0, 17.0 ],
					"numoutlets" : 1,
					"id" : "obj-23",
					"fontname" : "Arial",
					"outlettype" : [ "bang" ]
				}

			}
, 			{
				"box" : 				{
					"maxclass" : "number",
					"fontsize" : 9.0,
					"triscale" : 0.9,
					"numinlets" : 1,
					"patching_rect" : [ 329.0, 157.0, 35.0, 17.0 ],
					"numoutlets" : 2,
					"id" : "obj-24",
					"fontname" : "Arial",
					"htextcolor" : [ 0.870588, 0.870588, 0.870588, 1.0 ],
					"outlettype" : [ "int", "bang" ],
					"bgcolor" : [ 0.866667, 0.866667, 0.866667, 1.0 ]
				}

			}
, 			{
				"box" : 				{
					"maxclass" : "newobj",
					"text" : "int",
					"fontsize" : 9.0,
					"numinlets" : 2,
					"patching_rect" : [ 314.0, 130.0, 27.0, 17.0 ],
					"numoutlets" : 1,
					"id" : "obj-25",
					"fontname" : "Arial",
					"outlettype" : [ "int" ]
				}

			}
, 			{
				"box" : 				{
					"maxclass" : "inlet",
					"numinlets" : 0,
					"patching_rect" : [ 314.0, 90.0, 15.0, 15.0 ],
					"numoutlets" : 1,
					"id" : "obj-27",
					"outlettype" : [ "" ],
					"comment" : ""
				}

			}
, 			{
				"box" : 				{
					"maxclass" : "comment",
					"text" : "in from pitch trigger 3",
					"linecount" : 3,
					"fontsize" : 10.0,
					"numinlets" : 1,
					"patching_rect" : [ 191.0, 65.0, 58.0, 41.0 ],
					"numoutlets" : 0,
					"id" : "obj-28",
					"fontname" : "Arial"
				}

			}
, 			{
				"box" : 				{
					"maxclass" : "inlet",
					"numinlets" : 0,
					"patching_rect" : [ 247.0, 90.0, 15.0, 15.0 ],
					"numoutlets" : 1,
					"id" : "obj-29",
					"outlettype" : [ "" ],
					"comment" : ""
				}

			}
, 			{
				"box" : 				{
					"maxclass" : "comment",
					"text" : "in from timer adj fader",
					"linecount" : 3,
					"fontsize" : 10.0,
					"numinlets" : 1,
					"patching_rect" : [ 331.0, 73.0, 50.0, 41.0 ],
					"numoutlets" : 0,
					"id" : "obj-30",
					"fontname" : "Arial"
				}

			}
, 			{
				"box" : 				{
					"maxclass" : "number",
					"fontsize" : 9.0,
					"triscale" : 0.9,
					"numinlets" : 1,
					"patching_rect" : [ 62.0, 77.0, 35.0, 17.0 ],
					"numoutlets" : 2,
					"id" : "obj-31",
					"fontname" : "Arial",
					"htextcolor" : [ 0.870588, 0.870588, 0.870588, 1.0 ],
					"outlettype" : [ "int", "bang" ],
					"bgcolor" : [ 0.866667, 0.866667, 0.866667, 1.0 ]
				}

			}
 ],
		"lines" : [ 			{
				"patchline" : 				{
					"source" : [ "obj-18", 0 ],
					"destination" : [ "obj-1", 0 ],
					"hidden" : 0,
					"midpoints" : [  ]
				}

			}
, 			{
				"patchline" : 				{
					"source" : [ "obj-22", 0 ],
					"destination" : [ "obj-16", 0 ],
					"hidden" : 0,
					"midpoints" : [ 136.0, 249.0, 338.0, 249.0 ]
				}

			}
, 			{
				"patchline" : 				{
					"source" : [ "obj-25", 0 ],
					"destination" : [ "obj-24", 0 ],
					"hidden" : 0,
					"midpoints" : [  ]
				}

			}
, 			{
				"patchline" : 				{
					"source" : [ "obj-18", 0 ],
					"destination" : [ "obj-2", 0 ],
					"hidden" : 0,
					"midpoints" : [  ]
				}

			}
, 			{
				"patchline" : 				{
					"source" : [ "obj-16", 0 ],
					"destination" : [ "obj-18", 0 ],
					"hidden" : 0,
					"midpoints" : [  ]
				}

			}
, 			{
				"patchline" : 				{
					"source" : [ "obj-17", 0 ],
					"destination" : [ "obj-18", 0 ],
					"hidden" : 0,
					"midpoints" : [  ]
				}

			}
, 			{
				"patchline" : 				{
					"source" : [ "obj-27", 0 ],
					"destination" : [ "obj-25", 0 ],
					"hidden" : 0,
					"midpoints" : [  ]
				}

			}
, 			{
				"patchline" : 				{
					"source" : [ "obj-21", 0 ],
					"destination" : [ "obj-17", 0 ],
					"hidden" : 0,
					"midpoints" : [ 108.0, 205.0, 108.0, 252.0, 318.0, 252.0 ]
				}

			}
, 			{
				"patchline" : 				{
					"source" : [ "obj-20", 0 ],
					"destination" : [ "obj-19", 0 ],
					"hidden" : 0,
					"midpoints" : [  ]
				}

			}
, 			{
				"patchline" : 				{
					"source" : [ "obj-25", 0 ],
					"destination" : [ "obj-20", 0 ],
					"hidden" : 0,
					"midpoints" : [  ]
				}

			}
, 			{
				"patchline" : 				{
					"source" : [ "obj-22", 0 ],
					"destination" : [ "obj-12", 0 ],
					"hidden" : 0,
					"midpoints" : [ 136.0, 256.0, 249.0, 256.0 ]
				}

			}
, 			{
				"patchline" : 				{
					"source" : [ "obj-13", 0 ],
					"destination" : [ "obj-14", 0 ],
					"hidden" : 0,
					"midpoints" : [  ]
				}

			}
, 			{
				"patchline" : 				{
					"source" : [ "obj-12", 0 ],
					"destination" : [ "obj-14", 0 ],
					"hidden" : 0,
					"midpoints" : [  ]
				}

			}
, 			{
				"patchline" : 				{
					"source" : [ "obj-21", 0 ],
					"destination" : [ "obj-13", 0 ],
					"hidden" : 0,
					"midpoints" : [ 105.0, 207.0, 105.0, 260.0, 229.0, 260.0 ]
				}

			}
, 			{
				"patchline" : 				{
					"source" : [ "obj-20", 0 ],
					"destination" : [ "obj-23", 1 ],
					"hidden" : 0,
					"midpoints" : [ 265.5, 201.0, 162.5, 201.0 ]
				}

			}
, 			{
				"patchline" : 				{
					"source" : [ "obj-23", 0 ],
					"destination" : [ "obj-22", 0 ],
					"hidden" : 0,
					"midpoints" : [  ]
				}

			}
, 			{
				"patchline" : 				{
					"source" : [ "obj-21", 0 ],
					"destination" : [ "obj-23", 0 ],
					"hidden" : 0,
					"midpoints" : [  ]
				}

			}
, 			{
				"patchline" : 				{
					"source" : [ "obj-29", 0 ],
					"destination" : [ "obj-21", 0 ],
					"hidden" : 0,
					"midpoints" : [  ]
				}

			}
, 			{
				"patchline" : 				{
					"source" : [ "obj-8", 0 ],
					"destination" : [ "obj-3", 0 ],
					"hidden" : 0,
					"midpoints" : [  ]
				}

			}
, 			{
				"patchline" : 				{
					"source" : [ "obj-9", 0 ],
					"destination" : [ "obj-8", 0 ],
					"hidden" : 0,
					"midpoints" : [  ]
				}

			}
, 			{
				"patchline" : 				{
					"source" : [ "obj-10", 0 ],
					"destination" : [ "obj-9", 0 ],
					"hidden" : 0,
					"midpoints" : [  ]
				}

			}
, 			{
				"patchline" : 				{
					"source" : [ "obj-7", 0 ],
					"destination" : [ "obj-10", 0 ],
					"hidden" : 0,
					"midpoints" : [  ]
				}

			}
, 			{
				"patchline" : 				{
					"source" : [ "obj-11", 0 ],
					"destination" : [ "obj-7", 0 ],
					"hidden" : 0,
					"midpoints" : [  ]
				}

			}
, 			{
				"patchline" : 				{
					"source" : [ "obj-22", 0 ],
					"destination" : [ "obj-11", 0 ],
					"hidden" : 0,
					"midpoints" : [ 136.0, 247.0, 86.0, 247.0, 86.0, 192.0, 40.5, 192.0 ]
				}

			}
, 			{
				"patchline" : 				{
					"source" : [ "obj-33", 0 ],
					"destination" : [ "obj-34", 0 ],
					"hidden" : 0,
					"midpoints" : [  ]
				}

			}
, 			{
				"patchline" : 				{
					"source" : [ "obj-4", 0 ],
					"destination" : [ "obj-31", 0 ],
					"hidden" : 0,
					"midpoints" : [  ]
				}

			}
, 			{
				"patchline" : 				{
					"source" : [ "obj-4", 0 ],
					"destination" : [ "obj-11", 1 ],
					"hidden" : 0,
					"midpoints" : [  ]
				}

			}
, 			{
				"patchline" : 				{
					"source" : [ "obj-4", 0 ],
					"destination" : [ "obj-7", 0 ],
					"hidden" : 0,
					"midpoints" : [ 22.0, 107.0, 22.0, 239.0, 40.5, 239.0 ]
				}

			}
, 			{
				"patchline" : 				{
					"source" : [ "obj-33", 0 ],
					"destination" : [ "obj-5", 1 ],
					"hidden" : 0,
					"midpoints" : [  ]
				}

			}
, 			{
				"patchline" : 				{
					"source" : [ "obj-21", 0 ],
					"destination" : [ "obj-5", 0 ],
					"hidden" : 0,
					"midpoints" : [ 126.0, 154.0, 79.5, 154.0 ]
				}

			}
, 			{
				"patchline" : 				{
					"source" : [ "obj-5", 0 ],
					"destination" : [ "obj-7", 0 ],
					"hidden" : 0,
					"midpoints" : [  ]
				}

			}
 ]
	}

}
