{
	"patcher" : 	{
		"fileversion" : 1,
		"appversion" : 		{
			"major" : 5,
			"minor" : 1,
			"revision" : 9
		}
,
		"rect" : [ 391.0, 56.0, 640.0, 480.0 ],
		"bglocked" : 0,
		"defrect" : [ 391.0, 56.0, 640.0, 480.0 ],
		"openrect" : [ 0.0, 0.0, 0.0, 0.0 ],
		"openinpresentation" : 0,
		"default_fontsize" : 12.0,
		"default_fontface" : 0,
		"default_fontname" : "Arial",
		"gridonopen" : 0,
		"gridsize" : [ 12.0, 12.0 ],
		"gridsnaponopen" : 0,
		"toolbarvisible" : 1,
		"boxanimatetime" : 200,
		"imprint" : 0,
		"enablehscroll" : 1,
		"enablevscroll" : 1,
		"devicewidth" : 0.0,
		"boxes" : [ 			{
				"box" : 				{
					"maxclass" : "meter~",
					"bgcolor" : [ 0.403922, 0.403922, 0.403922, 1.0 ],
					"numleds" : 16,
					"patching_rect" : [ 462.000061, 244.0, 15.0, 83.0 ],
					"coldcolor" : [ 0.0, 0.658824, 0.0, 1.0 ],
					"id" : "obj-11",
					"numinlets" : 1,
					"tepidcolor" : [ 0.6, 0.729412, 0.0, 1.0 ],
					"numoutlets" : 1,
					"warmcolor" : [ 0.85098, 0.85098, 0.0, 1.0 ],
					"outlettype" : [ "float" ]
				}

			}
, 			{
				"box" : 				{
					"maxclass" : "meter~",
					"bgcolor" : [ 0.403922, 0.403922, 0.403922, 1.0 ],
					"numleds" : 16,
					"patching_rect" : [ 373.000061, 243.0, 15.0, 83.0 ],
					"coldcolor" : [ 0.0, 0.658824, 0.0, 1.0 ],
					"id" : "obj-12",
					"numinlets" : 1,
					"tepidcolor" : [ 0.6, 0.729412, 0.0, 1.0 ],
					"numoutlets" : 1,
					"warmcolor" : [ 0.85098, 0.85098, 0.0, 1.0 ],
					"outlettype" : [ "float" ]
				}

			}
, 			{
				"box" : 				{
					"maxclass" : "gain~",
					"interp" : 275.0,
					"patching_rect" : [ 427.0, 132.0, 19.0, 89.0 ],
					"id" : "obj-10",
					"numinlets" : 2,
					"orientation" : 2,
					"numoutlets" : 2,
					"outlettype" : [ "signal", "int" ]
				}

			}
, 			{
				"box" : 				{
					"maxclass" : "gain~",
					"interp" : 275.0,
					"patching_rect" : [ 389.0, 134.0, 19.0, 89.0 ],
					"id" : "obj-21",
					"numinlets" : 2,
					"orientation" : 2,
					"numoutlets" : 2,
					"outlettype" : [ "signal", "int" ]
				}

			}
, 			{
				"box" : 				{
					"maxclass" : "newobj",
					"text" : "loadmess 0",
					"patching_rect" : [ 478.0, 68.0, 72.0, 20.0 ],
					"id" : "obj-9",
					"fontname" : "Arial",
					"numinlets" : 1,
					"numoutlets" : 1,
					"fontsize" : 12.0,
					"outlettype" : [ "" ]
				}

			}
, 			{
				"box" : 				{
					"maxclass" : "newobj",
					"text" : "dac~ 1 2",
					"patching_rect" : [ 402.0, 286.0, 57.0, 20.0 ],
					"id" : "obj-8",
					"fontname" : "Arial",
					"numinlets" : 2,
					"numoutlets" : 0,
					"fontsize" : 12.0
				}

			}
, 			{
				"box" : 				{
					"maxclass" : "newobj",
					"text" : "adc~ 1 2",
					"patching_rect" : [ 392.0, 29.0, 57.0, 20.0 ],
					"id" : "obj-6",
					"fontname" : "Arial",
					"numinlets" : 1,
					"numoutlets" : 2,
					"fontsize" : 12.0,
					"outlettype" : [ "signal", "signal" ]
				}

			}
, 			{
				"box" : 				{
					"maxclass" : "ezdac~",
					"patching_rect" : [ 129.0, 357.0, 69.0, 69.0 ],
					"id" : "obj-5",
					"numinlets" : 2,
					"numoutlets" : 0,
					"ongradcolor1" : [ 0.909804, 0.317647, 0.121569, 1.0 ],
					"ongradcolor2" : [ 0.776471, 0.92549, 0.32549, 1.0 ]
				}

			}
, 			{
				"box" : 				{
					"maxclass" : "meter~",
					"bgcolor" : [ 0.403922, 0.403922, 0.403922, 1.0 ],
					"numleds" : 16,
					"patching_rect" : [ 152.000061, 224.0, 13.0, 62.0 ],
					"coldcolor" : [ 0.0, 0.658824, 0.0, 1.0 ],
					"id" : "obj-1",
					"numinlets" : 1,
					"tepidcolor" : [ 0.6, 0.729412, 0.0, 1.0 ],
					"numoutlets" : 1,
					"warmcolor" : [ 0.85098, 0.85098, 0.0, 1.0 ],
					"outlettype" : [ "float" ]
				}

			}
, 			{
				"box" : 				{
					"maxclass" : "meter~",
					"bgcolor" : [ 0.403922, 0.403922, 0.403922, 1.0 ],
					"numleds" : 16,
					"patching_rect" : [ 136.000061, 224.0, 13.0, 62.0 ],
					"coldcolor" : [ 0.0, 0.658824, 0.0, 1.0 ],
					"id" : "obj-2",
					"numinlets" : 1,
					"tepidcolor" : [ 0.6, 0.729412, 0.0, 1.0 ],
					"numoutlets" : 1,
					"warmcolor" : [ 0.85098, 0.85098, 0.0, 1.0 ],
					"outlettype" : [ "float" ]
				}

			}
, 			{
				"box" : 				{
					"maxclass" : "meter~",
					"bgcolor" : [ 0.403922, 0.403922, 0.403922, 1.0 ],
					"numleds" : 16,
					"patching_rect" : [ 209.000061, 225.0, 13.0, 62.0 ],
					"coldcolor" : [ 0.0, 0.658824, 0.0, 1.0 ],
					"id" : "obj-3",
					"numinlets" : 1,
					"tepidcolor" : [ 0.6, 0.729412, 0.0, 1.0 ],
					"numoutlets" : 1,
					"warmcolor" : [ 0.85098, 0.85098, 0.0, 1.0 ],
					"outlettype" : [ "float" ]
				}

			}
, 			{
				"box" : 				{
					"maxclass" : "meter~",
					"bgcolor" : [ 0.403922, 0.403922, 0.403922, 1.0 ],
					"numleds" : 16,
					"patching_rect" : [ 193.000061, 225.0, 13.0, 62.0 ],
					"coldcolor" : [ 0.0, 0.658824, 0.0, 1.0 ],
					"id" : "obj-4",
					"numinlets" : 1,
					"tepidcolor" : [ 0.6, 0.729412, 0.0, 1.0 ],
					"numoutlets" : 1,
					"warmcolor" : [ 0.85098, 0.85098, 0.0, 1.0 ],
					"outlettype" : [ "float" ]
				}

			}
, 			{
				"box" : 				{
					"maxclass" : "toggle",
					"patching_rect" : [ 283.000061, 117.0, 15.0, 15.0 ],
					"id" : "obj-23",
					"numinlets" : 1,
					"numoutlets" : 1,
					"outlettype" : [ "int" ]
				}

			}
, 			{
				"box" : 				{
					"maxclass" : "newobj",
					"text" : "gate~",
					"patching_rect" : [ 244.000061, 162.0, 35.0, 17.0 ],
					"id" : "obj-24",
					"fontname" : "Arial",
					"numinlets" : 2,
					"numoutlets" : 1,
					"fontsize" : 9.0,
					"outlettype" : [ "signal" ]
				}

			}
, 			{
				"box" : 				{
					"maxclass" : "toggle",
					"patching_rect" : [ 201.000061, 117.0, 15.0, 15.0 ],
					"id" : "obj-25",
					"numinlets" : 1,
					"numoutlets" : 1,
					"outlettype" : [ "int" ]
				}

			}
, 			{
				"box" : 				{
					"maxclass" : "newobj",
					"text" : "gate~",
					"patching_rect" : [ 201.000061, 162.0, 35.0, 17.0 ],
					"id" : "obj-26",
					"fontname" : "Arial",
					"numinlets" : 2,
					"numoutlets" : 1,
					"fontsize" : 9.0,
					"outlettype" : [ "signal" ]
				}

			}
, 			{
				"box" : 				{
					"maxclass" : "inlet",
					"patching_rect" : [ 228.000061, 34.0, 18.0, 18.0 ],
					"id" : "obj-27",
					"numinlets" : 0,
					"numoutlets" : 1,
					"outlettype" : [ "" ],
					"comment" : ""
				}

			}
, 			{
				"box" : 				{
					"maxclass" : "inlet",
					"patching_rect" : [ 195.000061, 34.0, 18.0, 18.0 ],
					"id" : "obj-28",
					"numinlets" : 0,
					"numoutlets" : 1,
					"outlettype" : [ "" ],
					"comment" : ""
				}

			}
, 			{
				"box" : 				{
					"maxclass" : "inlet",
					"patching_rect" : [ 160.000061, 34.0, 18.0, 18.0 ],
					"id" : "obj-29",
					"numinlets" : 0,
					"numoutlets" : 1,
					"outlettype" : [ "" ],
					"comment" : ""
				}

			}
, 			{
				"box" : 				{
					"maxclass" : "inlet",
					"patching_rect" : [ 127.000061, 34.0, 18.0, 18.0 ],
					"id" : "obj-30",
					"numinlets" : 0,
					"numoutlets" : 1,
					"outlettype" : [ "" ],
					"comment" : ""
				}

			}
, 			{
				"box" : 				{
					"maxclass" : "comment",
					"text" : "audio test",
					"patching_rect" : [ 99.000061, 74.0, 59.0, 18.0 ],
					"id" : "obj-31",
					"fontname" : "Arial",
					"numinlets" : 1,
					"numoutlets" : 0,
					"fontsize" : 10.0
				}

			}
, 			{
				"box" : 				{
					"maxclass" : "toggle",
					"patching_rect" : [ 177.000061, 117.0, 15.0, 15.0 ],
					"id" : "obj-32",
					"numinlets" : 1,
					"numoutlets" : 1,
					"outlettype" : [ "int" ]
				}

			}
, 			{
				"box" : 				{
					"maxclass" : "newobj",
					"text" : "gate~",
					"patching_rect" : [ 138.000061, 161.0, 35.0, 17.0 ],
					"id" : "obj-33",
					"fontname" : "Arial",
					"numinlets" : 2,
					"numoutlets" : 1,
					"fontsize" : 9.0,
					"outlettype" : [ "signal" ]
				}

			}
, 			{
				"box" : 				{
					"maxclass" : "toggle",
					"patching_rect" : [ 95.000061, 117.0, 15.0, 15.0 ],
					"id" : "obj-34",
					"numinlets" : 1,
					"numoutlets" : 1,
					"outlettype" : [ "int" ]
				}

			}
, 			{
				"box" : 				{
					"maxclass" : "newobj",
					"text" : "gate~",
					"patching_rect" : [ 95.000061, 161.0, 35.0, 17.0 ],
					"id" : "obj-35",
					"fontname" : "Arial",
					"numinlets" : 2,
					"numoutlets" : 1,
					"fontsize" : 9.0,
					"outlettype" : [ "signal" ]
				}

			}
, 			{
				"box" : 				{
					"maxclass" : "newobj",
					"text" : "*~ 0.12",
					"patching_rect" : [ 120.000061, 116.0, 56.0, 19.0 ],
					"id" : "obj-36",
					"fontname" : "Arial",
					"numinlets" : 2,
					"numoutlets" : 1,
					"fontsize" : 11.0,
					"outlettype" : [ "signal" ]
				}

			}
, 			{
				"box" : 				{
					"maxclass" : "newobj",
					"text" : "noise~",
					"patching_rect" : [ 120.000061, 94.0, 46.0, 19.0 ],
					"id" : "obj-37",
					"fontname" : "Arial",
					"numinlets" : 1,
					"numoutlets" : 1,
					"fontsize" : 11.0,
					"outlettype" : [ "signal" ]
				}

			}
, 			{
				"box" : 				{
					"maxclass" : "newobj",
					"text" : "dac~ 1 2 3 4",
					"patching_rect" : [ 21.0, 216.0, 103.0, 20.0 ],
					"id" : "obj-38",
					"fontname" : "Arial Rounded MT Bold",
					"numinlets" : 4,
					"numoutlets" : 0,
					"fontsize" : 12.0
				}

			}
, 			{
				"box" : 				{
					"maxclass" : "panel",
					"bgcolor" : [ 0.796078, 0.882353, 0.831373, 1.0 ],
					"border" : 1,
					"patching_rect" : [ 81.000061, 73.0, 229.0, 114.0 ],
					"id" : "obj-39",
					"rounded" : 0,
					"numinlets" : 1,
					"numoutlets" : 0
				}

			}
, 			{
				"box" : 				{
					"maxclass" : "comment",
					"text" : "test the 4 channels",
					"patching_rect" : [ 125.000061, 15.0, 129.0, 20.0 ],
					"id" : "obj-40",
					"fontname" : "Arial",
					"numinlets" : 1,
					"numoutlets" : 0,
					"fontsize" : 12.0
				}

			}
 ],
		"lines" : [ 			{
				"patchline" : 				{
					"source" : [ "obj-33", 0 ],
					"destination" : [ "obj-1", 0 ],
					"hidden" : 0,
					"midpoints" : [  ]
				}

			}
, 			{
				"patchline" : 				{
					"source" : [ "obj-35", 0 ],
					"destination" : [ "obj-2", 0 ],
					"hidden" : 0,
					"midpoints" : [  ]
				}

			}
, 			{
				"patchline" : 				{
					"source" : [ "obj-35", 0 ],
					"destination" : [ "obj-38", 0 ],
					"hidden" : 0,
					"midpoints" : [ 104.500061, 191.0, 30.5, 191.0 ]
				}

			}
, 			{
				"patchline" : 				{
					"source" : [ "obj-33", 0 ],
					"destination" : [ "obj-38", 1 ],
					"hidden" : 0,
					"midpoints" : [ 147.500061, 194.0, 58.5, 194.0 ]
				}

			}
, 			{
				"patchline" : 				{
					"source" : [ "obj-30", 0 ],
					"destination" : [ "obj-34", 0 ],
					"hidden" : 0,
					"midpoints" : [ 136.500061, 64.0, 104.000061, 64.0 ]
				}

			}
, 			{
				"patchline" : 				{
					"source" : [ "obj-34", 0 ],
					"destination" : [ "obj-35", 0 ],
					"hidden" : 0,
					"midpoints" : [  ]
				}

			}
, 			{
				"patchline" : 				{
					"source" : [ "obj-26", 0 ],
					"destination" : [ "obj-38", 2 ],
					"hidden" : 0,
					"midpoints" : [ 210.500061, 198.0, 86.5, 198.0 ]
				}

			}
, 			{
				"patchline" : 				{
					"source" : [ "obj-37", 0 ],
					"destination" : [ "obj-36", 0 ],
					"hidden" : 0,
					"midpoints" : [  ]
				}

			}
, 			{
				"patchline" : 				{
					"source" : [ "obj-36", 0 ],
					"destination" : [ "obj-35", 1 ],
					"hidden" : 0,
					"midpoints" : [  ]
				}

			}
, 			{
				"patchline" : 				{
					"source" : [ "obj-24", 0 ],
					"destination" : [ "obj-38", 3 ],
					"hidden" : 0,
					"midpoints" : [ 253.500061, 202.0, 114.5, 202.0 ]
				}

			}
, 			{
				"patchline" : 				{
					"source" : [ "obj-32", 0 ],
					"destination" : [ "obj-33", 0 ],
					"hidden" : 0,
					"midpoints" : [  ]
				}

			}
, 			{
				"patchline" : 				{
					"source" : [ "obj-36", 0 ],
					"destination" : [ "obj-33", 1 ],
					"hidden" : 0,
					"midpoints" : [  ]
				}

			}
, 			{
				"patchline" : 				{
					"source" : [ "obj-29", 0 ],
					"destination" : [ "obj-32", 0 ],
					"hidden" : 0,
					"midpoints" : [ 169.500061, 60.0, 186.000061, 60.0 ]
				}

			}
, 			{
				"patchline" : 				{
					"source" : [ "obj-26", 0 ],
					"destination" : [ "obj-4", 0 ],
					"hidden" : 0,
					"midpoints" : [  ]
				}

			}
, 			{
				"patchline" : 				{
					"source" : [ "obj-28", 0 ],
					"destination" : [ "obj-25", 0 ],
					"hidden" : 0,
					"midpoints" : [ 204.500061, 60.0, 223.000061, 60.0, 223.000061, 108.0, 210.000061, 108.0 ]
				}

			}
, 			{
				"patchline" : 				{
					"source" : [ "obj-25", 0 ],
					"destination" : [ "obj-26", 0 ],
					"hidden" : 0,
					"midpoints" : [  ]
				}

			}
, 			{
				"patchline" : 				{
					"source" : [ "obj-24", 0 ],
					"destination" : [ "obj-3", 0 ],
					"hidden" : 0,
					"midpoints" : [  ]
				}

			}
, 			{
				"patchline" : 				{
					"source" : [ "obj-36", 0 ],
					"destination" : [ "obj-26", 1 ],
					"hidden" : 0,
					"midpoints" : [ 129.500061, 145.0, 226.500061, 145.0 ]
				}

			}
, 			{
				"patchline" : 				{
					"source" : [ "obj-23", 0 ],
					"destination" : [ "obj-24", 0 ],
					"hidden" : 0,
					"midpoints" : [  ]
				}

			}
, 			{
				"patchline" : 				{
					"source" : [ "obj-36", 0 ],
					"destination" : [ "obj-24", 1 ],
					"hidden" : 0,
					"midpoints" : [ 129.500061, 142.0, 269.500061, 142.0 ]
				}

			}
, 			{
				"patchline" : 				{
					"source" : [ "obj-27", 0 ],
					"destination" : [ "obj-23", 0 ],
					"hidden" : 0,
					"midpoints" : [ 237.500061, 109.0, 292.000061, 109.0 ]
				}

			}
, 			{
				"patchline" : 				{
					"source" : [ "obj-21", 0 ],
					"destination" : [ "obj-8", 0 ],
					"hidden" : 0,
					"midpoints" : [  ]
				}

			}
, 			{
				"patchline" : 				{
					"source" : [ "obj-10", 0 ],
					"destination" : [ "obj-8", 1 ],
					"hidden" : 0,
					"midpoints" : [  ]
				}

			}
, 			{
				"patchline" : 				{
					"source" : [ "obj-6", 0 ],
					"destination" : [ "obj-21", 0 ],
					"hidden" : 0,
					"midpoints" : [  ]
				}

			}
, 			{
				"patchline" : 				{
					"source" : [ "obj-6", 1 ],
					"destination" : [ "obj-10", 0 ],
					"hidden" : 0,
					"midpoints" : [  ]
				}

			}
, 			{
				"patchline" : 				{
					"source" : [ "obj-21", 1 ],
					"destination" : [ "obj-10", 0 ],
					"hidden" : 0,
					"midpoints" : [  ]
				}

			}
, 			{
				"patchline" : 				{
					"source" : [ "obj-10", 0 ],
					"destination" : [ "obj-11", 0 ],
					"hidden" : 0,
					"midpoints" : [  ]
				}

			}
, 			{
				"patchline" : 				{
					"source" : [ "obj-21", 0 ],
					"destination" : [ "obj-12", 0 ],
					"hidden" : 0,
					"midpoints" : [  ]
				}

			}
 ]
	}

}
