{
	"patcher" : 	{
		"fileversion" : 1,
		"appversion" : 		{
			"major" : 5,
			"minor" : 1,
			"revision" : 9
		}
,
		"rect" : [ 2138.0, 125.0, 811.0, 442.0 ],
		"bglocked" : 0,
		"defrect" : [ 2138.0, 125.0, 811.0, 442.0 ],
		"openrect" : [ 0.0, 0.0, 0.0, 0.0 ],
		"openinpresentation" : 0,
		"default_fontsize" : 13.0,
		"default_fontface" : 0,
		"default_fontname" : "Arial",
		"gridonopen" : 0,
		"gridsize" : [ 15.0, 15.0 ],
		"gridsnaponopen" : 0,
		"toolbarvisible" : 1,
		"boxanimatetime" : 200,
		"imprint" : 0,
		"enablehscroll" : 1,
		"enablevscroll" : 1,
		"devicewidth" : 0.0,
		"boxes" : [ 			{
				"box" : 				{
					"maxclass" : "fpic",
					"presentation" : 1,
					"xoffset" : -20.0,
					"numinlets" : 1,
					"presentation_rect" : [ 592.727356, 83.0, 495.0, 183.0 ],
					"numoutlets" : 0,
					"yoffset" : -80.0,
					"id" : "obj-1",
					"patching_rect" : [ 30.0, 30.0, 495.0, 183.0 ],
					"pic" : "pitches_1_dbl.gif"
				}

			}
, 			{
				"box" : 				{
					"maxclass" : "ubutton",
					"presentation" : 1,
					"stay" : 4,
					"numinlets" : 1,
					"presentation_rect" : [ 863.909119, 87.0, 52.0, 125.0 ],
					"handoff" : "",
					"numoutlets" : 4,
					"id" : "obj-269",
					"outlettype" : [ "bang", "bang", "", "int" ],
					"patching_rect" : [ 501.909119, 100.0, 52.0, 125.0 ]
				}

			}
, 			{
				"box" : 				{
					"maxclass" : "ubutton",
					"presentation" : 1,
					"stay" : 5,
					"numinlets" : 1,
					"presentation_rect" : [ 941.0, 87.0, 53.0, 126.0 ],
					"handoff" : "",
					"numoutlets" : 4,
					"id" : "obj-278",
					"outlettype" : [ "bang", "bang", "", "int" ],
					"patching_rect" : [ 579.0, 100.0, 53.0, 126.0 ]
				}

			}
, 			{
				"box" : 				{
					"maxclass" : "newobj",
					"text" : "r tmr5-ind'r",
					"fontsize" : 9.0,
					"numinlets" : 0,
					"numoutlets" : 1,
					"id" : "obj-279",
					"fontname" : "Arial",
					"outlettype" : [ "" ],
					"patching_rect" : [ 532.0, 72.0, 65.0, 17.0 ],
					"hidden" : 1
				}

			}
, 			{
				"box" : 				{
					"maxclass" : "newobj",
					"text" : "r tmr4-ind'r",
					"fontsize" : 9.0,
					"numinlets" : 0,
					"numoutlets" : 1,
					"id" : "obj-280",
					"fontname" : "Arial",
					"outlettype" : [ "" ],
					"patching_rect" : [ 459.0, 72.0, 65.0, 17.0 ],
					"hidden" : 1
				}

			}
, 			{
				"box" : 				{
					"maxclass" : "ubutton",
					"presentation" : 1,
					"stay" : 3,
					"numinlets" : 1,
					"presentation_rect" : [ 790.909119, 87.0, 51.0, 124.0 ],
					"handoff" : "",
					"numoutlets" : 4,
					"id" : "obj-281",
					"outlettype" : [ "bang", "bang", "", "int" ],
					"patching_rect" : [ 428.909119, 100.0, 51.0, 124.0 ]
				}

			}
, 			{
				"box" : 				{
					"maxclass" : "newobj",
					"text" : "r tmr3-ind'r",
					"fontsize" : 9.0,
					"numinlets" : 0,
					"numoutlets" : 1,
					"id" : "obj-282",
					"fontname" : "Arial",
					"outlettype" : [ "" ],
					"patching_rect" : [ 389.0, 72.0, 65.0, 17.0 ],
					"hidden" : 1
				}

			}
, 			{
				"box" : 				{
					"maxclass" : "ubutton",
					"presentation" : 1,
					"stay" : 2,
					"numinlets" : 1,
					"presentation_rect" : [ 702.818237, 88.0, 48.0, 122.0 ],
					"handoff" : "",
					"numoutlets" : 4,
					"id" : "obj-283",
					"outlettype" : [ "bang", "bang", "", "int" ],
					"patching_rect" : [ 340.818237, 101.0, 48.0, 122.0 ]
				}

			}
, 			{
				"box" : 				{
					"maxclass" : "newobj",
					"text" : "r tmr2-ind'r",
					"fontsize" : 9.0,
					"numinlets" : 0,
					"numoutlets" : 1,
					"id" : "obj-284",
					"fontname" : "Arial",
					"outlettype" : [ "" ],
					"patching_rect" : [ 319.0, 72.0, 65.0, 17.0 ],
					"hidden" : 1
				}

			}
, 			{
				"box" : 				{
					"maxclass" : "newobj",
					"text" : "r tmr1-ind'r",
					"fontsize" : 9.0,
					"numinlets" : 0,
					"numoutlets" : 1,
					"id" : "obj-286",
					"fontname" : "Arial",
					"outlettype" : [ "" ],
					"patching_rect" : [ 250.0, 72.0, 64.0, 17.0 ],
					"hidden" : 1
				}

			}
, 			{
				"box" : 				{
					"maxclass" : "fpic",
					"presentation" : 1,
					"xoffset" : -20.0,
					"numinlets" : 1,
					"presentation_rect" : [ 577.727356, 68.0, 495.0, 183.0 ],
					"numoutlets" : 0,
					"yoffset" : -80.0,
					"id" : "obj-290",
					"patching_rect" : [ 214.091003, 73.454544, 495.0, 183.0 ],
					"pic" : "pitches_1_dbl.gif"
				}

			}
, 			{
				"box" : 				{
					"maxclass" : "panel",
					"rounded" : 12,
					"border" : 1,
					"numinlets" : 1,
					"background" : 1,
					"numoutlets" : 0,
					"bgcolor" : [ 0.843137, 0.945098, 0.972549, 1.0 ],
					"id" : "obj-291",
					"patching_rect" : [ 166.363647, 301.090881, 500.0, 201.0 ]
				}

			}
, 			{
				"box" : 				{
					"maxclass" : "ubutton",
					"stay" : 1,
					"numinlets" : 1,
					"background" : 1,
					"handoff" : "",
					"numoutlets" : 4,
					"id" : "obj-285",
					"outlettype" : [ "bang", "bang", "", "int" ],
					"patching_rect" : [ 272.727356, 101.0, 49.0, 122.0 ]
				}

			}
 ],
		"lines" : [ 			{
				"patchline" : 				{
					"source" : [ "obj-279", 0 ],
					"destination" : [ "obj-278", 0 ],
					"hidden" : 1,
					"midpoints" : [  ]
				}

			}
, 			{
				"patchline" : 				{
					"source" : [ "obj-280", 0 ],
					"destination" : [ "obj-269", 0 ],
					"hidden" : 1,
					"midpoints" : [  ]
				}

			}
, 			{
				"patchline" : 				{
					"source" : [ "obj-282", 0 ],
					"destination" : [ "obj-281", 0 ],
					"hidden" : 1,
					"midpoints" : [  ]
				}

			}
, 			{
				"patchline" : 				{
					"source" : [ "obj-284", 0 ],
					"destination" : [ "obj-283", 0 ],
					"hidden" : 1,
					"midpoints" : [  ]
				}

			}
, 			{
				"patchline" : 				{
					"source" : [ "obj-286", 0 ],
					"destination" : [ "obj-285", 0 ],
					"hidden" : 1,
					"midpoints" : [  ]
				}

			}
 ]
	}

}
