{
	"patcher" : 	{
		"fileversion" : 1,
		"appversion" : 		{
			"major" : 5,
			"minor" : 1,
			"revision" : 9
		}
,
		"rect" : [ 1919.0, 45.0, 1104.0, 777.0 ],
		"bglocked" : 0,
		"defrect" : [ 1919.0, 45.0, 1104.0, 777.0 ],
		"openrect" : [ 0.0, 0.0, 0.0, 0.0 ],
		"openinpresentation" : 0,
		"default_fontsize" : 12.0,
		"default_fontface" : 0,
		"default_fontname" : "Arial",
		"gridonopen" : 0,
		"gridsize" : [ 15.0, 15.0 ],
		"gridsnaponopen" : 0,
		"toolbarvisible" : 1,
		"boxanimatetime" : 200,
		"imprint" : 0,
		"enablehscroll" : 1,
		"enablevscroll" : 1,
		"devicewidth" : 0.0,
		"boxes" : [ 			{
				"box" : 				{
					"maxclass" : "newobj",
					"text" : "scale 0 128 0 100",
					"fontsize" : 9.0,
					"numinlets" : 6,
					"numoutlets" : 1,
					"patching_rect" : [ 467.388763, 91.366028, 86.5, 17.0 ],
					"outlettype" : [ "" ],
					"id" : "obj-143",
					"fontname" : "Arial"
				}

			}
, 			{
				"box" : 				{
					"maxclass" : "newobj",
					"text" : "s IS-rot16",
					"fontsize" : 9.0,
					"numinlets" : 1,
					"numoutlets" : 0,
					"color" : [ 0.933333, 0.156863, 0.156863, 1.0 ],
					"patching_rect" : [ 717.126099, 206.297806, 50.0, 17.0 ],
					"id" : "obj-157",
					"fontname" : "Arial"
				}

			}
, 			{
				"box" : 				{
					"maxclass" : "newobj",
					"text" : "r Ev-rot16+",
					"bgcolor" : [ 0.972549, 1.0, 0.439216, 1.0 ],
					"fontsize" : 9.0,
					"numinlets" : 0,
					"numoutlets" : 1,
					"color" : [ 0.87451, 0.8, 0.262745, 1.0 ],
					"patching_rect" : [ 716.337952, 181.60434, 55.0, 17.0 ],
					"outlettype" : [ "" ],
					"id" : "obj-158",
					"fontname" : "Arial"
				}

			}
, 			{
				"box" : 				{
					"maxclass" : "newobj",
					"text" : "scale 0 128 0 100",
					"fontsize" : 9.0,
					"numinlets" : 6,
					"numoutlets" : 1,
					"patching_rect" : [ 141.667358, 376.045502, 93.0, 17.0 ],
					"outlettype" : [ "" ],
					"id" : "obj-156",
					"fontname" : "Arial"
				}

			}
, 			{
				"box" : 				{
					"maxclass" : "number",
					"bgcolor" : [ 0.866667, 0.866667, 0.866667, 1.0 ],
					"fontsize" : 12.0,
					"htextcolor" : [ 0.870588, 0.870588, 0.870588, 1.0 ],
					"numinlets" : 1,
					"triscale" : 0.9,
					"numoutlets" : 2,
					"patching_rect" : [ 23.357065, 466.207764, 41.0, 20.0 ],
					"outlettype" : [ "int", "bang" ],
					"id" : "obj-107",
					"fontname" : "Arial"
				}

			}
, 			{
				"box" : 				{
					"maxclass" : "newobj",
					"text" : "scale 0 128 0 150",
					"fontsize" : 9.0,
					"numinlets" : 6,
					"numoutlets" : 1,
					"patching_rect" : [ 399.683014, 162.781097, 86.5, 17.0 ],
					"outlettype" : [ "" ],
					"id" : "obj-100",
					"fontname" : "Arial"
				}

			}
, 			{
				"box" : 				{
					"maxclass" : "number",
					"bgcolor" : [ 0.866667, 0.866667, 0.866667, 1.0 ],
					"fontsize" : 12.0,
					"htextcolor" : [ 0.870588, 0.870588, 0.870588, 1.0 ],
					"numinlets" : 1,
					"triscale" : 0.9,
					"numoutlets" : 2,
					"patching_rect" : [ 618.0, 264.0, 35.0, 20.0 ],
					"outlettype" : [ "int", "bang" ],
					"id" : "obj-155",
					"fontname" : "Arial"
				}

			}
, 			{
				"box" : 				{
					"maxclass" : "newobj",
					"text" : "s IS-rot20",
					"fontsize" : 9.0,
					"numinlets" : 1,
					"numoutlets" : 0,
					"color" : [ 0.933333, 0.156863, 0.156863, 1.0 ],
					"patching_rect" : [ 665.586731, 257.618347, 50.0, 17.0 ],
					"id" : "obj-150",
					"fontname" : "Arial"
				}

			}
, 			{
				"box" : 				{
					"maxclass" : "newobj",
					"text" : "r Ev-rot20+",
					"bgcolor" : [ 0.972549, 1.0, 0.439216, 1.0 ],
					"fontsize" : 9.0,
					"numinlets" : 0,
					"numoutlets" : 1,
					"color" : [ 0.87451, 0.8, 0.262745, 1.0 ],
					"patching_rect" : [ 665.481567, 232.924866, 55.0, 17.0 ],
					"outlettype" : [ "" ],
					"id" : "obj-154",
					"fontname" : "Arial"
				}

			}
, 			{
				"box" : 				{
					"maxclass" : "newobj",
					"text" : "s IS-rot15",
					"fontsize" : 9.0,
					"numinlets" : 1,
					"numoutlets" : 0,
					"color" : [ 0.933333, 0.156863, 0.156863, 1.0 ],
					"patching_rect" : [ 653.632202, 204.958069, 50.0, 17.0 ],
					"id" : "obj-152",
					"fontname" : "Arial"
				}

			}
, 			{
				"box" : 				{
					"maxclass" : "newobj",
					"text" : "r Ev-rot15+",
					"bgcolor" : [ 0.972549, 1.0, 0.439216, 1.0 ],
					"fontsize" : 9.0,
					"numinlets" : 0,
					"numoutlets" : 1,
					"color" : [ 0.87451, 0.8, 0.262745, 1.0 ],
					"patching_rect" : [ 653.527039, 180.264603, 55.0, 17.0 ],
					"outlettype" : [ "" ],
					"id" : "obj-153",
					"fontname" : "Arial"
				}

			}
, 			{
				"box" : 				{
					"maxclass" : "newobj",
					"text" : "s IS-rot12",
					"fontsize" : 9.0,
					"numinlets" : 1,
					"numoutlets" : 0,
					"color" : [ 0.933333, 0.156863, 0.156863, 1.0 ],
					"patching_rect" : [ 134.568344, 407.839325, 50.0, 17.0 ],
					"id" : "obj-149",
					"fontname" : "Arial"
				}

			}
, 			{
				"box" : 				{
					"maxclass" : "newobj",
					"text" : "r Ev-rot12+",
					"bgcolor" : [ 0.972549, 1.0, 0.439216, 1.0 ],
					"fontsize" : 9.0,
					"numinlets" : 0,
					"numoutlets" : 1,
					"color" : [ 0.87451, 0.8, 0.262745, 1.0 ],
					"patching_rect" : [ 135.146194, 349.678223, 55.0, 17.0 ],
					"outlettype" : [ "" ],
					"id" : "obj-151",
					"fontname" : "Arial"
				}

			}
, 			{
				"box" : 				{
					"maxclass" : "newobj",
					"text" : "s IS-rot17",
					"fontsize" : 9.0,
					"numinlets" : 1,
					"numoutlets" : 0,
					"color" : [ 0.933333, 0.156863, 0.156863, 1.0 ],
					"patching_rect" : [ 682.734009, 138.047333, 50.0, 17.0 ],
					"id" : "obj-148",
					"fontname" : "Arial"
				}

			}
, 			{
				"box" : 				{
					"maxclass" : "newobj",
					"text" : "r Ev-rot17+",
					"bgcolor" : [ 0.972549, 1.0, 0.439216, 1.0 ],
					"fontsize" : 9.0,
					"numinlets" : 0,
					"numoutlets" : 1,
					"color" : [ 0.87451, 0.8, 0.262745, 1.0 ],
					"patching_rect" : [ 682.0, 113.0, 55.0, 17.0 ],
					"outlettype" : [ "" ],
					"id" : "obj-144",
					"fontname" : "Arial"
				}

			}
, 			{
				"box" : 				{
					"maxclass" : "newobj",
					"text" : "s IS-rot14",
					"fontsize" : 9.0,
					"numinlets" : 1,
					"numoutlets" : 0,
					"color" : [ 0.933333, 0.156863, 0.156863, 1.0 ],
					"patching_rect" : [ 585.0, 106.0, 50.0, 17.0 ],
					"id" : "obj-142",
					"fontname" : "Arial"
				}

			}
, 			{
				"box" : 				{
					"maxclass" : "newobj",
					"text" : "s IS-rot13",
					"fontsize" : 9.0,
					"numinlets" : 1,
					"numoutlets" : 0,
					"color" : [ 0.933333, 0.156863, 0.156863, 1.0 ],
					"patching_rect" : [ 469.0, 140.0, 50.0, 17.0 ],
					"id" : "obj-141",
					"fontname" : "Arial"
				}

			}
, 			{
				"box" : 				{
					"maxclass" : "newobj",
					"text" : "s IS-rot11",
					"fontsize" : 9.0,
					"numinlets" : 1,
					"numoutlets" : 0,
					"color" : [ 0.933333, 0.156863, 0.156863, 1.0 ],
					"patching_rect" : [ 80.0, 408.0, 49.0, 17.0 ],
					"id" : "obj-140",
					"fontname" : "Arial"
				}

			}
, 			{
				"box" : 				{
					"maxclass" : "newobj",
					"text" : "s IS-rot10",
					"fontsize" : 9.0,
					"numinlets" : 1,
					"numoutlets" : 0,
					"color" : [ 0.933333, 0.156863, 0.156863, 1.0 ],
					"patching_rect" : [ 6.0, 408.0, 50.0, 17.0 ],
					"id" : "obj-139",
					"fontname" : "Arial"
				}

			}
, 			{
				"box" : 				{
					"maxclass" : "newobj",
					"text" : "s IS-fdr9",
					"fontsize" : 9.0,
					"numinlets" : 1,
					"numoutlets" : 0,
					"color" : [ 0.933333, 0.156863, 0.156863, 1.0 ],
					"patching_rect" : [ 449.0, 186.098083, 45.0, 17.0 ],
					"id" : "obj-138",
					"fontname" : "Arial"
				}

			}
, 			{
				"box" : 				{
					"maxclass" : "newobj",
					"text" : "s IS-fdr8",
					"fontsize" : 9.0,
					"numinlets" : 1,
					"numoutlets" : 0,
					"color" : [ 0.933333, 0.156863, 0.156863, 1.0 ],
					"patching_rect" : [ 389.0, 202.098083, 45.0, 17.0 ],
					"id" : "obj-137",
					"fontname" : "Arial"
				}

			}
, 			{
				"box" : 				{
					"maxclass" : "newobj",
					"text" : "s IS-fdr7",
					"fontsize" : 9.0,
					"numinlets" : 1,
					"numoutlets" : 0,
					"color" : [ 0.933333, 0.156863, 0.156863, 1.0 ],
					"patching_rect" : [ 349.0, 237.098083, 45.0, 17.0 ],
					"id" : "obj-136",
					"fontname" : "Arial"
				}

			}
, 			{
				"box" : 				{
					"maxclass" : "number",
					"fontsize" : 12.0,
					"numinlets" : 1,
					"numoutlets" : 2,
					"patching_rect" : [ 608.0, 163.0, 33.0, 20.0 ],
					"outlettype" : [ "int", "bang" ],
					"id" : "obj-135",
					"fontname" : "Arial"
				}

			}
, 			{
				"box" : 				{
					"maxclass" : "newobj",
					"text" : "r stop-surge-cmd",
					"bgcolor" : [ 0.964706, 0.964706, 0.282353, 1.0 ],
					"fontsize" : 9.0,
					"numinlets" : 0,
					"numoutlets" : 1,
					"color" : [ 0.792157, 0.721569, 0.196078, 1.0 ],
					"patching_rect" : [ 560.0, 237.0, 90.0, 17.0 ],
					"outlettype" : [ "" ],
					"id" : "obj-1",
					"fontname" : "Arial"
				}

			}
, 			{
				"box" : 				{
					"maxclass" : "newobj",
					"text" : "r start-surge-cmd",
					"bgcolor" : [ 0.964706, 0.964706, 0.282353, 1.0 ],
					"fontsize" : 9.0,
					"numinlets" : 0,
					"numoutlets" : 1,
					"color" : [ 0.792157, 0.721569, 0.196078, 1.0 ],
					"patching_rect" : [ 532.0, 220.0, 94.0, 17.0 ],
					"outlettype" : [ "" ],
					"id" : "obj-2",
					"fontname" : "Arial"
				}

			}
, 			{
				"box" : 				{
					"maxclass" : "newobj",
					"text" : "surge-ctrlsM",
					"fontsize" : 12.0,
					"numinlets" : 3,
					"numoutlets" : 0,
					"patching_rect" : [ 513.0, 261.0, 77.0, 20.0 ],
					"id" : "obj-3",
					"fontname" : "Arial"
				}

			}
, 			{
				"box" : 				{
					"maxclass" : "newobj",
					"text" : "r Ev-rot15+",
					"bgcolor" : [ 0.964706, 0.964706, 0.282353, 1.0 ],
					"fontsize" : 9.0,
					"numinlets" : 0,
					"numoutlets" : 1,
					"color" : [ 0.792157, 0.721569, 0.196078, 1.0 ],
					"patching_rect" : [ 513.0, 203.0, 66.0, 17.0 ],
					"outlettype" : [ "" ],
					"id" : "obj-4",
					"fontname" : "Arial"
				}

			}
, 			{
				"box" : 				{
					"maxclass" : "comment",
					"text" : "rotary 15: surge timer tempo",
					"linecount" : 3,
					"fontsize" : 12.0,
					"numinlets" : 1,
					"numoutlets" : 0,
					"patching_rect" : [ 531.0, 144.0, 92.0, 48.0 ],
					"id" : "obj-5",
					"fontname" : "Arial"
				}

			}
, 			{
				"box" : 				{
					"maxclass" : "newobj",
					"text" : "r Ev-rot14+",
					"bgcolor" : [ 0.972549, 1.0, 0.439216, 1.0 ],
					"fontsize" : 9.0,
					"numinlets" : 0,
					"numoutlets" : 1,
					"color" : [ 0.87451, 0.8, 0.262745, 1.0 ],
					"patching_rect" : [ 561.0, 81.0, 66.0, 17.0 ],
					"outlettype" : [ "" ],
					"id" : "obj-6",
					"fontname" : "Arial"
				}

			}
, 			{
				"box" : 				{
					"maxclass" : "newobj",
					"text" : "r Ev-rot13+",
					"bgcolor" : [ 0.972549, 1.0, 0.439216, 1.0 ],
					"fontsize" : 9.0,
					"numinlets" : 0,
					"numoutlets" : 1,
					"color" : [ 0.87451, 0.8, 0.262745, 1.0 ],
					"patching_rect" : [ 507.0, 67.0, 66.0, 17.0 ],
					"outlettype" : [ "" ],
					"id" : "obj-7",
					"fontname" : "Arial"
				}

			}
, 			{
				"box" : 				{
					"maxclass" : "newobj",
					"text" : "s filt-faderL",
					"fontsize" : 9.0,
					"numinlets" : 1,
					"numoutlets" : 0,
					"color" : [ 0.933333, 0.156863, 0.156863, 1.0 ],
					"patching_rect" : [ 507.0, 115.0, 65.0, 17.0 ],
					"id" : "obj-8",
					"fontname" : "Arial"
				}

			}
, 			{
				"box" : 				{
					"maxclass" : "newobj",
					"text" : "s filt-faderR",
					"fontsize" : 9.0,
					"numinlets" : 1,
					"numoutlets" : 0,
					"color" : [ 0.933333, 0.156863, 0.156863, 1.0 ],
					"patching_rect" : [ 576.0, 123.0, 65.0, 17.0 ],
					"id" : "obj-9",
					"fontname" : "Arial"
				}

			}
, 			{
				"box" : 				{
					"maxclass" : "comment",
					"text" : "filter faders",
					"fontsize" : 10.0,
					"numinlets" : 1,
					"numoutlets" : 0,
					"patching_rect" : [ 529.0, 49.0, 80.0, 18.0 ],
					"id" : "obj-10",
					"fontname" : "Arial"
				}

			}
, 			{
				"box" : 				{
					"maxclass" : "comment",
					"text" : "rotaries 13-14:",
					"fontsize" : 12.0,
					"numinlets" : 1,
					"numoutlets" : 0,
					"patching_rect" : [ 486.0, 32.0, 100.0, 20.0 ],
					"id" : "obj-11",
					"fontname" : "Arial"
				}

			}
, 			{
				"box" : 				{
					"maxclass" : "newobj",
					"text" : "fade-Part1#6M",
					"fontsize" : 11.0,
					"numinlets" : 0,
					"numoutlets" : 0,
					"color" : [ 0.541176, 0.607843, 0.380392, 1.0 ],
					"patching_rect" : [ 66.0, 710.0, 83.0, 19.0 ],
					"id" : "obj-21",
					"fontname" : "Arial"
				}

			}
, 			{
				"box" : 				{
					"maxclass" : "newobj",
					"text" : "s end-Part1-btn",
					"fontsize" : 9.0,
					"numinlets" : 1,
					"numoutlets" : 0,
					"color" : [ 0.933333, 0.156863, 0.156863, 1.0 ],
					"patching_rect" : [ 165.0, 738.0, 83.0, 17.0 ],
					"id" : "obj-22",
					"fontname" : "Arial"
				}

			}
, 			{
				"box" : 				{
					"maxclass" : "message",
					"text" : "4",
					"fontsize" : 9.0,
					"numinlets" : 2,
					"numoutlets" : 1,
					"patching_rect" : [ 312.0, 652.0, 16.0, 15.0 ],
					"outlettype" : [ "" ],
					"id" : "obj-23",
					"fontname" : "Arial"
				}

			}
, 			{
				"box" : 				{
					"maxclass" : "newobj",
					"text" : "s advance-ctr",
					"fontsize" : 9.0,
					"numinlets" : 1,
					"numoutlets" : 0,
					"color" : [ 0.933333, 0.156863, 0.156863, 1.0 ],
					"patching_rect" : [ 112.0, 659.0, 73.0, 17.0 ],
					"id" : "obj-27",
					"fontname" : "Arial"
				}

			}
, 			{
				"box" : 				{
					"maxclass" : "number",
					"bgcolor" : [ 0.866667, 0.866667, 0.866667, 1.0 ],
					"fontsize" : 9.0,
					"htextcolor" : [ 0.870588, 0.870588, 0.870588, 1.0 ],
					"numinlets" : 1,
					"triscale" : 0.9,
					"numoutlets" : 2,
					"patching_rect" : [ 320.0, 680.0, 22.89707, 17.0 ],
					"outlettype" : [ "int", "bang" ],
					"id" : "obj-28",
					"fontname" : "Arial"
				}

			}
, 			{
				"box" : 				{
					"maxclass" : "message",
					"text" : "0",
					"fontsize" : 9.0,
					"numinlets" : 2,
					"numoutlets" : 1,
					"patching_rect" : [ 243.0, 652.0, 16.0, 15.0 ],
					"outlettype" : [ "" ],
					"id" : "obj-29",
					"fontname" : "Arial"
				}

			}
, 			{
				"box" : 				{
					"maxclass" : "message",
					"text" : "3",
					"fontsize" : 9.0,
					"numinlets" : 2,
					"numoutlets" : 1,
					"patching_rect" : [ 295.0, 652.0, 16.0, 15.0 ],
					"outlettype" : [ "" ],
					"id" : "obj-30",
					"fontname" : "Arial"
				}

			}
, 			{
				"box" : 				{
					"maxclass" : "message",
					"text" : "2",
					"fontsize" : 9.0,
					"numinlets" : 2,
					"numoutlets" : 1,
					"patching_rect" : [ 277.0, 652.0, 16.0, 15.0 ],
					"outlettype" : [ "" ],
					"id" : "obj-31",
					"fontname" : "Arial"
				}

			}
, 			{
				"box" : 				{
					"maxclass" : "message",
					"text" : "1",
					"fontsize" : 9.0,
					"numinlets" : 2,
					"numoutlets" : 1,
					"patching_rect" : [ 260.0, 652.0, 16.0, 15.0 ],
					"outlettype" : [ "" ],
					"id" : "obj-32",
					"fontname" : "Arial"
				}

			}
, 			{
				"box" : 				{
					"maxclass" : "newobj",
					"text" : "s tails-C",
					"fontsize" : 9.0,
					"numinlets" : 1,
					"numoutlets" : 0,
					"color" : [ 0.933333, 0.156863, 0.156863, 1.0 ],
					"patching_rect" : [ 387.0, 739.0, 49.0, 17.0 ],
					"id" : "obj-33",
					"fontname" : "Arial"
				}

			}
, 			{
				"box" : 				{
					"maxclass" : "newobj",
					"text" : "s tails-E",
					"fontsize" : 9.0,
					"numinlets" : 1,
					"numoutlets" : 0,
					"color" : [ 0.933333, 0.156863, 0.156863, 1.0 ],
					"patching_rect" : [ 333.0, 739.0, 48.0, 17.0 ],
					"id" : "obj-34",
					"fontname" : "Arial"
				}

			}
, 			{
				"box" : 				{
					"maxclass" : "newobj",
					"text" : "s tails-B@",
					"fontsize" : 9.0,
					"numinlets" : 1,
					"numoutlets" : 0,
					"color" : [ 0.933333, 0.156863, 0.156863, 1.0 ],
					"patching_rect" : [ 270.0, 739.0, 57.0, 17.0 ],
					"id" : "obj-35",
					"fontname" : "Arial"
				}

			}
, 			{
				"box" : 				{
					"maxclass" : "newobj",
					"text" : "gate 4",
					"fontsize" : 9.0,
					"numinlets" : 2,
					"numoutlets" : 4,
					"patching_rect" : [ 307.0, 703.0, 53.0, 17.0 ],
					"outlettype" : [ "", "", "", "" ],
					"id" : "obj-36",
					"fontname" : "Arial"
				}

			}
, 			{
				"box" : 				{
					"maxclass" : "number",
					"bgcolor" : [ 0.866667, 0.866667, 0.866667, 1.0 ],
					"fontsize" : 12.0,
					"htextcolor" : [ 0.870588, 0.870588, 0.870588, 1.0 ],
					"numinlets" : 1,
					"triscale" : 0.9,
					"numoutlets" : 2,
					"patching_rect" : [ 368.0, 700.0, 35.0, 20.0 ],
					"outlettype" : [ "int", "bang" ],
					"id" : "obj-40",
					"fontname" : "Arial"
				}

			}
, 			{
				"box" : 				{
					"maxclass" : "newobj",
					"text" : "split 1 4",
					"fontsize" : 9.0,
					"numinlets" : 3,
					"numoutlets" : 2,
					"patching_rect" : [ 350.0, 652.0, 48.0, 17.0 ],
					"outlettype" : [ "int", "int" ],
					"id" : "obj-41",
					"fontname" : "Arial"
				}

			}
, 			{
				"box" : 				{
					"maxclass" : "button",
					"numinlets" : 1,
					"numoutlets" : 1,
					"patching_rect" : [ 196.0, 623.0, 15.0, 15.0 ],
					"outlettype" : [ "bang" ],
					"id" : "obj-46"
				}

			}
, 			{
				"box" : 				{
					"maxclass" : "message",
					"text" : "1",
					"fontsize" : 9.0,
					"numinlets" : 2,
					"numoutlets" : 1,
					"patching_rect" : [ 174.0, 626.0, 16.0, 15.0 ],
					"outlettype" : [ "" ],
					"id" : "obj-49",
					"fontname" : "Arial"
				}

			}
, 			{
				"box" : 				{
					"maxclass" : "newobj",
					"text" : "pipe 100",
					"fontsize" : 9.0,
					"numinlets" : 2,
					"numoutlets" : 1,
					"patching_rect" : [ 184.0, 554.0, 49.0, 17.0 ],
					"outlettype" : [ "" ],
					"id" : "obj-50",
					"fontname" : "Arial"
				}

			}
, 			{
				"box" : 				{
					"maxclass" : "number",
					"bgcolor" : [ 0.866667, 0.866667, 0.866667, 1.0 ],
					"fontsize" : 12.0,
					"htextcolor" : [ 0.870588, 0.870588, 0.870588, 1.0 ],
					"numinlets" : 1,
					"triscale" : 0.9,
					"numoutlets" : 2,
					"patching_rect" : [ 143.0, 552.0, 35.0, 20.0 ],
					"outlettype" : [ "int", "bang" ],
					"id" : "obj-54",
					"fontname" : "Arial"
				}

			}
, 			{
				"box" : 				{
					"maxclass" : "newobj",
					"text" : "sel 6 9 10 11",
					"fontsize" : 9.0,
					"numinlets" : 1,
					"numoutlets" : 5,
					"patching_rect" : [ 151.0, 590.0, 71.0, 17.0 ],
					"outlettype" : [ "bang", "bang", "bang", "bang", "" ],
					"id" : "obj-66",
					"fontname" : "Arial"
				}

			}
, 			{
				"box" : 				{
					"maxclass" : "comment",
					"text" : "exclude 0's",
					"fontsize" : 9.0,
					"numinlets" : 1,
					"numoutlets" : 0,
					"patching_rect" : [ 400.0, 654.0, 58.0, 17.0 ],
					"id" : "obj-70",
					"fontname" : "Arial"
				}

			}
, 			{
				"box" : 				{
					"maxclass" : "newobj",
					"text" : "r Ev-rot17+",
					"bgcolor" : [ 0.964706, 0.964706, 0.282353, 1.0 ],
					"fontsize" : 9.0,
					"numinlets" : 0,
					"numoutlets" : 1,
					"color" : [ 0.792157, 0.721569, 0.196078, 1.0 ],
					"patching_rect" : [ 559.0, 356.0, 66.0, 17.0 ],
					"outlettype" : [ "" ],
					"id" : "obj-72",
					"fontname" : "Arial"
				}

			}
, 			{
				"box" : 				{
					"maxclass" : "newobj",
					"text" : "r Ev-rot16+",
					"bgcolor" : [ 0.964706, 0.964706, 0.282353, 1.0 ],
					"fontsize" : 9.0,
					"numinlets" : 0,
					"numoutlets" : 1,
					"color" : [ 0.792157, 0.721569, 0.196078, 1.0 ],
					"patching_rect" : [ 532.0, 339.0, 66.0, 17.0 ],
					"outlettype" : [ "" ],
					"id" : "obj-73",
					"fontname" : "Arial"
				}

			}
, 			{
				"box" : 				{
					"maxclass" : "newobj",
					"text" : "s filt-Pt1-vol",
					"fontsize" : 9.0,
					"numinlets" : 1,
					"numoutlets" : 0,
					"color" : [ 0.933333, 0.156863, 0.156863, 1.0 ],
					"patching_rect" : [ 559.0, 438.0, 72.0, 17.0 ],
					"id" : "obj-74",
					"fontname" : "Arial"
				}

			}
, 			{
				"box" : 				{
					"maxclass" : "newobj",
					"text" : "s Ray->filts",
					"fontsize" : 9.0,
					"numinlets" : 1,
					"numoutlets" : 0,
					"color" : [ 0.933333, 0.156863, 0.156863, 1.0 ],
					"patching_rect" : [ 532.0, 454.0, 64.0, 17.0 ],
					"id" : "obj-75",
					"fontname" : "Arial"
				}

			}
, 			{
				"box" : 				{
					"maxclass" : "newobj",
					"text" : "scale 0 128 0 150",
					"fontsize" : 9.0,
					"numinlets" : 6,
					"numoutlets" : 1,
					"patching_rect" : [ 559.0, 402.0, 93.0, 17.0 ],
					"outlettype" : [ "" ],
					"id" : "obj-76",
					"fontname" : "Arial"
				}

			}
, 			{
				"box" : 				{
					"maxclass" : "newobj",
					"text" : "scale 0 128 0 101",
					"fontsize" : 9.0,
					"numinlets" : 6,
					"numoutlets" : 1,
					"patching_rect" : [ 532.0, 383.0, 93.0, 17.0 ],
					"outlettype" : [ "" ],
					"id" : "obj-77",
					"fontname" : "Arial"
				}

			}
, 			{
				"box" : 				{
					"maxclass" : "comment",
					"text" : "R->f, filt vols",
					"fontsize" : 10.0,
					"numinlets" : 1,
					"numoutlets" : 0,
					"patching_rect" : [ 568.0, 295.0, 80.0, 18.0 ],
					"id" : "obj-78",
					"fontname" : "Arial"
				}

			}
, 			{
				"box" : 				{
					"maxclass" : "comment",
					"text" : "rotaries 16-17:",
					"fontsize" : 12.0,
					"numinlets" : 1,
					"numoutlets" : 0,
					"patching_rect" : [ 467.0, 294.0, 100.0, 20.0 ],
					"id" : "obj-79",
					"fontname" : "Arial"
				}

			}
, 			{
				"box" : 				{
					"maxclass" : "comment",
					"text" : "101",
					"fontsize" : 12.0,
					"numinlets" : 1,
					"numoutlets" : 0,
					"patching_rect" : [ 596.0, 315.0, 34.0, 20.0 ],
					"id" : "obj-80",
					"fontname" : "Arial"
				}

			}
, 			{
				"box" : 				{
					"maxclass" : "comment",
					"text" : "101",
					"fontsize" : 12.0,
					"numinlets" : 1,
					"numoutlets" : 0,
					"patching_rect" : [ 529.0, 315.0, 34.0, 20.0 ],
					"id" : "obj-81",
					"fontname" : "Arial"
				}

			}
, 			{
				"box" : 				{
					"maxclass" : "comment",
					"text" : "128",
					"fontsize" : 12.0,
					"numinlets" : 1,
					"numoutlets" : 0,
					"patching_rect" : [ 468.0, 315.0, 34.0, 20.0 ],
					"id" : "obj-82",
					"fontname" : "Arial"
				}

			}
, 			{
				"box" : 				{
					"maxclass" : "newobj",
					"text" : "s DSyn2-levels",
					"fontsize" : 9.0,
					"numinlets" : 1,
					"numoutlets" : 0,
					"color" : [ 0.933333, 0.156863, 0.156863, 1.0 ],
					"patching_rect" : [ 27.0, 519.0, 79.0, 17.0 ],
					"id" : "obj-83",
					"fontname" : "Arial"
				}

			}
, 			{
				"box" : 				{
					"maxclass" : "newobj",
					"text" : "s DSyn1-levels",
					"fontsize" : 9.0,
					"numinlets" : 1,
					"numoutlets" : 0,
					"color" : [ 0.933333, 0.156863, 0.156863, 1.0 ],
					"patching_rect" : [ 40.0, 448.0, 79.0, 17.0 ],
					"id" : "obj-84",
					"fontname" : "Arial"
				}

			}
, 			{
				"box" : 				{
					"maxclass" : "newobj",
					"text" : "scale 0 128 0 100",
					"fontsize" : 9.0,
					"numinlets" : 6,
					"numoutlets" : 1,
					"patching_rect" : [ 50.169865, 387.0, 93.0, 17.0 ],
					"outlettype" : [ "" ],
					"id" : "obj-85",
					"fontname" : "Arial"
				}

			}
, 			{
				"box" : 				{
					"maxclass" : "newobj",
					"text" : "scale 0 128 0 124",
					"fontsize" : 9.0,
					"numinlets" : 6,
					"numoutlets" : 1,
					"patching_rect" : [ 42.0, 365.0, 86.5, 17.0 ],
					"outlettype" : [ "" ],
					"id" : "obj-86",
					"fontname" : "Arial"
				}

			}
, 			{
				"box" : 				{
					"maxclass" : "comment",
					"text" : "(no adapters for these)",
					"fontsize" : 12.0,
					"numinlets" : 1,
					"numoutlets" : 0,
					"patching_rect" : [ 135.0, 313.0, 154.0, 20.0 ],
					"id" : "obj-87",
					"fontname" : "Arial"
				}

			}
, 			{
				"box" : 				{
					"maxclass" : "newobj",
					"text" : "r Ev-rot11+",
					"bgcolor" : [ 0.964706, 0.964706, 0.282353, 1.0 ],
					"fontsize" : 9.0,
					"numinlets" : 0,
					"numoutlets" : 1,
					"color" : [ 0.792157, 0.721569, 0.196078, 1.0 ],
					"patching_rect" : [ 79.0, 336.0, 66.0, 17.0 ],
					"outlettype" : [ "" ],
					"id" : "obj-88",
					"fontname" : "Arial"
				}

			}
, 			{
				"box" : 				{
					"maxclass" : "newobj",
					"text" : "r Ev-rot10+",
					"bgcolor" : [ 0.964706, 0.964706, 0.282353, 1.0 ],
					"fontsize" : 9.0,
					"numinlets" : 0,
					"numoutlets" : 1,
					"color" : [ 0.792157, 0.721569, 0.196078, 1.0 ],
					"patching_rect" : [ 44.0, 319.0, 66.0, 17.0 ],
					"outlettype" : [ "" ],
					"id" : "obj-89",
					"fontname" : "Arial"
				}

			}
, 			{
				"box" : 				{
					"maxclass" : "comment",
					"text" : "128",
					"fontsize" : 12.0,
					"numinlets" : 1,
					"numoutlets" : 0,
					"patching_rect" : [ 247.0, 293.0, 34.0, 20.0 ],
					"id" : "obj-90",
					"fontname" : "Arial"
				}

			}
, 			{
				"box" : 				{
					"maxclass" : "comment",
					"text" : "128",
					"fontsize" : 12.0,
					"numinlets" : 1,
					"numoutlets" : 0,
					"patching_rect" : [ 201.0, 293.0, 34.0, 20.0 ],
					"id" : "obj-91",
					"fontname" : "Arial"
				}

			}
, 			{
				"box" : 				{
					"maxclass" : "comment",
					"text" : "128",
					"fontsize" : 12.0,
					"numinlets" : 1,
					"numoutlets" : 0,
					"patching_rect" : [ 135.0, 294.0, 34.0, 20.0 ],
					"id" : "obj-92",
					"fontname" : "Arial"
				}

			}
, 			{
				"box" : 				{
					"maxclass" : "comment",
					"text" : "100",
					"fontsize" : 12.0,
					"numinlets" : 1,
					"numoutlets" : 0,
					"patching_rect" : [ 85.0, 293.0, 34.0, 20.0 ],
					"id" : "obj-93",
					"fontname" : "Arial"
				}

			}
, 			{
				"box" : 				{
					"maxclass" : "comment",
					"text" : "100",
					"fontsize" : 12.0,
					"numinlets" : 1,
					"numoutlets" : 0,
					"patching_rect" : [ 41.0, 293.0, 34.0, 20.0 ],
					"id" : "obj-94",
					"fontname" : "Arial"
				}

			}
, 			{
				"box" : 				{
					"maxclass" : "comment",
					"text" : "for Part 2",
					"fontsize" : 12.0,
					"numinlets" : 1,
					"numoutlets" : 0,
					"patching_rect" : [ 160.0, 271.0, 100.0, 20.0 ],
					"id" : "obj-95",
					"fontname" : "Arial"
				}

			}
, 			{
				"box" : 				{
					"maxclass" : "comment",
					"text" : "rotaries 10-14:",
					"fontsize" : 12.0,
					"numinlets" : 1,
					"numoutlets" : 0,
					"patching_rect" : [ 39.0, 271.0, 100.0, 20.0 ],
					"id" : "obj-96",
					"fontname" : "Arial"
				}

			}
, 			{
				"box" : 				{
					"maxclass" : "comment",
					"text" : "for Part 1",
					"fontsize" : 12.0,
					"numinlets" : 1,
					"numoutlets" : 0,
					"patching_rect" : [ 144.0, 11.0, 100.0, 20.0 ],
					"id" : "obj-97",
					"fontname" : "Arial"
				}

			}
, 			{
				"box" : 				{
					"maxclass" : "newobj",
					"text" : "s Ray-pre/vol",
					"fontsize" : 9.0,
					"numinlets" : 1,
					"numoutlets" : 0,
					"color" : [ 0.933333, 0.156863, 0.156863, 1.0 ],
					"patching_rect" : [ 435.0, 203.098083, 75.0, 17.0 ],
					"id" : "obj-98",
					"fontname" : "Arial"
				}

			}
, 			{
				"box" : 				{
					"maxclass" : "newobj",
					"text" : "s Rayvols#2-6",
					"fontsize" : 9.0,
					"numinlets" : 1,
					"numoutlets" : 0,
					"color" : [ 0.933333, 0.156863, 0.156863, 1.0 ],
					"patching_rect" : [ 376.0, 220.098083, 78.0, 17.0 ],
					"id" : "obj-99",
					"fontname" : "Arial"
				}

			}
, 			{
				"box" : 				{
					"maxclass" : "newobj",
					"text" : "s IS-fdr6",
					"fontsize" : 9.0,
					"numinlets" : 1,
					"numoutlets" : 0,
					"color" : [ 0.933333, 0.156863, 0.156863, 1.0 ],
					"patching_rect" : [ 265.0, 200.0, 45.0, 17.0 ],
					"id" : "obj-101",
					"fontname" : "Arial"
				}

			}
, 			{
				"box" : 				{
					"maxclass" : "newobj",
					"text" : "s IS-fdr5",
					"fontsize" : 9.0,
					"numinlets" : 1,
					"numoutlets" : 0,
					"color" : [ 0.933333, 0.156863, 0.156863, 1.0 ],
					"patching_rect" : [ 238.0, 217.0, 45.0, 17.0 ],
					"id" : "obj-102",
					"fontname" : "Arial"
				}

			}
, 			{
				"box" : 				{
					"maxclass" : "newobj",
					"text" : "s IS-fdr4",
					"fontsize" : 9.0,
					"numinlets" : 1,
					"numoutlets" : 0,
					"color" : [ 0.933333, 0.156863, 0.156863, 1.0 ],
					"patching_rect" : [ 209.0, 234.0, 45.0, 17.0 ],
					"id" : "obj-103",
					"fontname" : "Arial"
				}

			}
, 			{
				"box" : 				{
					"maxclass" : "newobj",
					"text" : "s IS-fdr3",
					"fontsize" : 9.0,
					"numinlets" : 1,
					"numoutlets" : 0,
					"color" : [ 0.933333, 0.156863, 0.156863, 1.0 ],
					"patching_rect" : [ 104.0, 198.0, 45.0, 17.0 ],
					"id" : "obj-104",
					"fontname" : "Arial"
				}

			}
, 			{
				"box" : 				{
					"maxclass" : "newobj",
					"text" : "s IS-fdr2",
					"fontsize" : 9.0,
					"numinlets" : 1,
					"numoutlets" : 0,
					"color" : [ 0.933333, 0.156863, 0.156863, 1.0 ],
					"patching_rect" : [ 78.0, 215.0, 45.0, 17.0 ],
					"id" : "obj-105",
					"fontname" : "Arial"
				}

			}
, 			{
				"box" : 				{
					"maxclass" : "newobj",
					"text" : "s IS-fdr1",
					"fontsize" : 9.0,
					"numinlets" : 1,
					"numoutlets" : 0,
					"color" : [ 0.933333, 0.156863, 0.156863, 1.0 ],
					"patching_rect" : [ 37.0, 232.0, 45.0, 17.0 ],
					"id" : "obj-106",
					"fontname" : "Arial"
				}

			}
, 			{
				"box" : 				{
					"maxclass" : "newobj",
					"text" : "scale 0 128 0 101",
					"fontsize" : 9.0,
					"numinlets" : 6,
					"numoutlets" : 1,
					"patching_rect" : [ 367.607666, 143.0, 93.0, 17.0 ],
					"outlettype" : [ "" ],
					"id" : "obj-108",
					"fontname" : "Arial"
				}

			}
, 			{
				"box" : 				{
					"maxclass" : "newobj",
					"text" : "scale 0 128 0 100",
					"fontsize" : 9.0,
					"numinlets" : 6,
					"numoutlets" : 1,
					"patching_rect" : [ 350.388763, 123.366028, 86.5, 17.0 ],
					"outlettype" : [ "" ],
					"id" : "obj-109",
					"fontname" : "Arial"
				}

			}
, 			{
				"box" : 				{
					"maxclass" : "newobj",
					"text" : "scale 0 128 0 100",
					"fontsize" : 9.0,
					"numinlets" : 6,
					"numoutlets" : 1,
					"patching_rect" : [ 264.660278, 144.316986, 86.5, 17.0 ],
					"outlettype" : [ "" ],
					"id" : "obj-110",
					"fontname" : "Arial"
				}

			}
, 			{
				"box" : 				{
					"maxclass" : "newobj",
					"text" : "scale 0 128 0 150",
					"fontsize" : 9.0,
					"numinlets" : 6,
					"numoutlets" : 1,
					"patching_rect" : [ 224.0, 124.0, 93.0, 17.0 ],
					"outlettype" : [ "" ],
					"id" : "obj-111",
					"fontname" : "Arial"
				}

			}
, 			{
				"box" : 				{
					"maxclass" : "newobj",
					"text" : "scale 0 128 0 100",
					"fontsize" : 9.0,
					"numinlets" : 6,
					"numoutlets" : 1,
					"patching_rect" : [ 238.0, 166.0, 93.0, 17.0 ],
					"outlettype" : [ "" ],
					"id" : "obj-112",
					"fontname" : "Arial"
				}

			}
, 			{
				"box" : 				{
					"maxclass" : "newobj",
					"text" : "scale 0 128 0 100",
					"fontsize" : 9.0,
					"numinlets" : 6,
					"numoutlets" : 1,
					"patching_rect" : [ 120.0, 170.0, 93.0, 17.0 ],
					"outlettype" : [ "" ],
					"id" : "obj-113",
					"fontname" : "Arial"
				}

			}
, 			{
				"box" : 				{
					"maxclass" : "newobj",
					"text" : "scale 0 128 0 100",
					"fontsize" : 9.0,
					"numinlets" : 6,
					"numoutlets" : 1,
					"patching_rect" : [ 78.0, 142.0, 93.0, 17.0 ],
					"outlettype" : [ "" ],
					"id" : "obj-114",
					"fontname" : "Arial"
				}

			}
, 			{
				"box" : 				{
					"maxclass" : "newobj",
					"text" : "scale 0 128 0 300",
					"fontsize" : 9.0,
					"numinlets" : 6,
					"numoutlets" : 1,
					"patching_rect" : [ 37.0, 124.0, 93.0, 17.0 ],
					"outlettype" : [ "" ],
					"id" : "obj-115",
					"fontname" : "Arial"
				}

			}
, 			{
				"box" : 				{
					"maxclass" : "newobj",
					"text" : "r Ev-fdr9+",
					"bgcolor" : [ 0.972549, 1.0, 0.439216, 1.0 ],
					"fontsize" : 9.0,
					"numinlets" : 0,
					"numoutlets" : 1,
					"color" : [ 0.87451, 0.8, 0.262745, 1.0 ],
					"patching_rect" : [ 406.0, 86.0, 60.0, 17.0 ],
					"outlettype" : [ "" ],
					"id" : "obj-116",
					"fontname" : "Arial"
				}

			}
, 			{
				"box" : 				{
					"maxclass" : "newobj",
					"text" : "r Ev-fdr8+",
					"bgcolor" : [ 0.972549, 1.0, 0.439216, 1.0 ],
					"fontsize" : 9.0,
					"numinlets" : 0,
					"numoutlets" : 1,
					"color" : [ 0.87451, 0.8, 0.262745, 1.0 ],
					"patching_rect" : [ 377.0, 69.0, 60.0, 17.0 ],
					"outlettype" : [ "" ],
					"id" : "obj-117",
					"fontname" : "Arial"
				}

			}
, 			{
				"box" : 				{
					"maxclass" : "newobj",
					"text" : "r Ev-fdr7+",
					"bgcolor" : [ 0.972549, 1.0, 0.439216, 1.0 ],
					"fontsize" : 9.0,
					"numinlets" : 0,
					"numoutlets" : 1,
					"color" : [ 0.87451, 0.8, 0.262745, 1.0 ],
					"patching_rect" : [ 349.70575, 52.0, 60.0, 17.0 ],
					"outlettype" : [ "" ],
					"id" : "obj-118",
					"fontname" : "Arial"
				}

			}
, 			{
				"box" : 				{
					"maxclass" : "newobj",
					"text" : "r Ev-fdr6+",
					"bgcolor" : [ 0.972549, 1.0, 0.439216, 1.0 ],
					"fontsize" : 9.0,
					"numinlets" : 0,
					"numoutlets" : 1,
					"color" : [ 0.87451, 0.8, 0.262745, 1.0 ],
					"patching_rect" : [ 265.0, 86.0, 60.0, 17.0 ],
					"outlettype" : [ "" ],
					"id" : "obj-119",
					"fontname" : "Arial"
				}

			}
, 			{
				"box" : 				{
					"maxclass" : "newobj",
					"text" : "r Ev-fdr5+",
					"bgcolor" : [ 0.972549, 1.0, 0.439216, 1.0 ],
					"fontsize" : 9.0,
					"numinlets" : 0,
					"numoutlets" : 1,
					"color" : [ 0.87451, 0.8, 0.262745, 1.0 ],
					"patching_rect" : [ 238.0, 69.0, 60.0, 17.0 ],
					"outlettype" : [ "" ],
					"id" : "obj-120",
					"fontname" : "Arial"
				}

			}
, 			{
				"box" : 				{
					"maxclass" : "newobj",
					"text" : "r Ev-fdr4+",
					"bgcolor" : [ 0.972549, 1.0, 0.439216, 1.0 ],
					"fontsize" : 9.0,
					"numinlets" : 0,
					"numoutlets" : 1,
					"color" : [ 0.87451, 0.8, 0.262745, 1.0 ],
					"patching_rect" : [ 209.0, 51.0, 60.0, 17.0 ],
					"outlettype" : [ "" ],
					"id" : "obj-121",
					"fontname" : "Arial"
				}

			}
, 			{
				"box" : 				{
					"maxclass" : "newobj",
					"text" : "r Ev-fdr3+",
					"bgcolor" : [ 0.972549, 1.0, 0.439216, 1.0 ],
					"fontsize" : 9.0,
					"numinlets" : 0,
					"numoutlets" : 1,
					"color" : [ 0.87451, 0.8, 0.262745, 1.0 ],
					"patching_rect" : [ 105.0, 86.0, 60.0, 17.0 ],
					"outlettype" : [ "" ],
					"id" : "obj-122",
					"fontname" : "Arial"
				}

			}
, 			{
				"box" : 				{
					"maxclass" : "newobj",
					"text" : "r Ev-fdr2+",
					"bgcolor" : [ 0.972549, 1.0, 0.439216, 1.0 ],
					"fontsize" : 9.0,
					"numinlets" : 0,
					"numoutlets" : 1,
					"color" : [ 0.87451, 0.8, 0.262745, 1.0 ],
					"patching_rect" : [ 78.0, 69.0, 60.0, 17.0 ],
					"outlettype" : [ "" ],
					"id" : "obj-123",
					"fontname" : "Arial"
				}

			}
, 			{
				"box" : 				{
					"maxclass" : "newobj",
					"text" : "r Ev-fdr1+",
					"bgcolor" : [ 0.972549, 1.0, 0.439216, 1.0 ],
					"fontsize" : 9.0,
					"numinlets" : 0,
					"numoutlets" : 1,
					"color" : [ 0.87451, 0.8, 0.262745, 1.0 ],
					"patching_rect" : [ 37.0, 51.0, 60.0, 17.0 ],
					"outlettype" : [ "" ],
					"id" : "obj-124",
					"fontname" : "Arial"
				}

			}
, 			{
				"box" : 				{
					"maxclass" : "comment",
					"text" : "101",
					"fontsize" : 12.0,
					"numinlets" : 1,
					"numoutlets" : 0,
					"patching_rect" : [ 445.0, 32.0, 34.0, 20.0 ],
					"id" : "obj-125",
					"fontname" : "Arial"
				}

			}
, 			{
				"box" : 				{
					"maxclass" : "comment",
					"text" : "101",
					"fontsize" : 12.0,
					"numinlets" : 1,
					"numoutlets" : 0,
					"patching_rect" : [ 402.0, 32.0, 34.0, 20.0 ],
					"id" : "obj-126",
					"fontname" : "Arial"
				}

			}
, 			{
				"box" : 				{
					"maxclass" : "comment",
					"text" : "101",
					"fontsize" : 12.0,
					"numinlets" : 1,
					"numoutlets" : 0,
					"patching_rect" : [ 360.0, 32.0, 34.0, 20.0 ],
					"id" : "obj-127",
					"fontname" : "Arial"
				}

			}
, 			{
				"box" : 				{
					"maxclass" : "comment",
					"text" : "100",
					"fontsize" : 12.0,
					"numinlets" : 1,
					"numoutlets" : 0,
					"patching_rect" : [ 282.0, 31.0, 34.0, 20.0 ],
					"id" : "obj-128",
					"fontname" : "Arial"
				}

			}
, 			{
				"box" : 				{
					"maxclass" : "comment",
					"text" : "150",
					"fontsize" : 12.0,
					"numinlets" : 1,
					"numoutlets" : 0,
					"patching_rect" : [ 246.0, 31.0, 34.0, 20.0 ],
					"id" : "obj-129",
					"fontname" : "Arial"
				}

			}
, 			{
				"box" : 				{
					"maxclass" : "comment",
					"text" : "150",
					"fontsize" : 12.0,
					"numinlets" : 1,
					"numoutlets" : 0,
					"patching_rect" : [ 206.0, 31.0, 34.0, 20.0 ],
					"id" : "obj-130",
					"fontname" : "Arial"
				}

			}
, 			{
				"box" : 				{
					"maxclass" : "comment",
					"text" : "100",
					"fontsize" : 12.0,
					"numinlets" : 1,
					"numoutlets" : 0,
					"patching_rect" : [ 119.0, 31.0, 34.0, 20.0 ],
					"id" : "obj-131",
					"fontname" : "Arial"
				}

			}
, 			{
				"box" : 				{
					"maxclass" : "comment",
					"text" : "100",
					"fontsize" : 12.0,
					"numinlets" : 1,
					"numoutlets" : 0,
					"patching_rect" : [ 77.0, 31.0, 34.0, 20.0 ],
					"id" : "obj-132",
					"fontname" : "Arial"
				}

			}
, 			{
				"box" : 				{
					"maxclass" : "comment",
					"text" : "300",
					"fontsize" : 12.0,
					"numinlets" : 1,
					"numoutlets" : 0,
					"patching_rect" : [ 36.0, 31.0, 34.0, 20.0 ],
					"id" : "obj-133",
					"fontname" : "Arial"
				}

			}
, 			{
				"box" : 				{
					"maxclass" : "comment",
					"text" : "faders:",
					"fontsize" : 12.0,
					"numinlets" : 1,
					"numoutlets" : 0,
					"patching_rect" : [ 32.0, 11.0, 100.0, 20.0 ],
					"id" : "obj-134",
					"fontname" : "Arial"
				}

			}
 ],
		"lines" : [ 			{
				"patchline" : 				{
					"source" : [ "obj-158", 0 ],
					"destination" : [ "obj-157", 0 ],
					"hidden" : 0,
					"midpoints" : [  ]
				}

			}
, 			{
				"patchline" : 				{
					"source" : [ "obj-156", 0 ],
					"destination" : [ "obj-149", 0 ],
					"hidden" : 0,
					"midpoints" : [  ]
				}

			}
, 			{
				"patchline" : 				{
					"source" : [ "obj-151", 0 ],
					"destination" : [ "obj-156", 0 ],
					"hidden" : 0,
					"midpoints" : [  ]
				}

			}
, 			{
				"patchline" : 				{
					"source" : [ "obj-85", 0 ],
					"destination" : [ "obj-107", 0 ],
					"hidden" : 0,
					"midpoints" : [  ]
				}

			}
, 			{
				"patchline" : 				{
					"source" : [ "obj-86", 0 ],
					"destination" : [ "obj-139", 0 ],
					"hidden" : 0,
					"midpoints" : [  ]
				}

			}
, 			{
				"patchline" : 				{
					"source" : [ "obj-89", 0 ],
					"destination" : [ "obj-86", 0 ],
					"hidden" : 0,
					"midpoints" : [  ]
				}

			}
, 			{
				"patchline" : 				{
					"source" : [ "obj-100", 0 ],
					"destination" : [ "obj-138", 0 ],
					"hidden" : 0,
					"midpoints" : [ 409.183014, 180.99855, 458.5, 180.99855 ]
				}

			}
, 			{
				"patchline" : 				{
					"source" : [ "obj-116", 0 ],
					"destination" : [ "obj-100", 0 ],
					"hidden" : 0,
					"midpoints" : [  ]
				}

			}
, 			{
				"patchline" : 				{
					"source" : [ "obj-109", 0 ],
					"destination" : [ "obj-136", 0 ],
					"hidden" : 0,
					"midpoints" : [  ]
				}

			}
, 			{
				"patchline" : 				{
					"source" : [ "obj-118", 0 ],
					"destination" : [ "obj-109", 0 ],
					"hidden" : 0,
					"midpoints" : [  ]
				}

			}
, 			{
				"patchline" : 				{
					"source" : [ "obj-110", 0 ],
					"destination" : [ "obj-101", 0 ],
					"hidden" : 0,
					"midpoints" : [  ]
				}

			}
, 			{
				"patchline" : 				{
					"source" : [ "obj-119", 0 ],
					"destination" : [ "obj-110", 0 ],
					"hidden" : 0,
					"midpoints" : [  ]
				}

			}
, 			{
				"patchline" : 				{
					"source" : [ "obj-121", 0 ],
					"destination" : [ "obj-103", 0 ],
					"hidden" : 0,
					"midpoints" : [  ]
				}

			}
, 			{
				"patchline" : 				{
					"source" : [ "obj-122", 0 ],
					"destination" : [ "obj-104", 0 ],
					"hidden" : 0,
					"midpoints" : [  ]
				}

			}
, 			{
				"patchline" : 				{
					"source" : [ "obj-154", 0 ],
					"destination" : [ "obj-150", 0 ],
					"hidden" : 0,
					"midpoints" : [  ]
				}

			}
, 			{
				"patchline" : 				{
					"source" : [ "obj-7", 0 ],
					"destination" : [ "obj-135", 0 ],
					"hidden" : 0,
					"midpoints" : [  ]
				}

			}
, 			{
				"patchline" : 				{
					"source" : [ "obj-6", 0 ],
					"destination" : [ "obj-142", 0 ],
					"hidden" : 0,
					"midpoints" : [  ]
				}

			}
, 			{
				"patchline" : 				{
					"source" : [ "obj-108", 0 ],
					"destination" : [ "obj-137", 0 ],
					"hidden" : 0,
					"midpoints" : [  ]
				}

			}
, 			{
				"patchline" : 				{
					"source" : [ "obj-4", 0 ],
					"destination" : [ "obj-3", 0 ],
					"hidden" : 0,
					"midpoints" : [  ]
				}

			}
, 			{
				"patchline" : 				{
					"source" : [ "obj-2", 0 ],
					"destination" : [ "obj-3", 1 ],
					"hidden" : 0,
					"midpoints" : [  ]
				}

			}
, 			{
				"patchline" : 				{
					"source" : [ "obj-1", 0 ],
					"destination" : [ "obj-3", 2 ],
					"hidden" : 0,
					"midpoints" : [  ]
				}

			}
, 			{
				"patchline" : 				{
					"source" : [ "obj-6", 0 ],
					"destination" : [ "obj-9", 0 ],
					"hidden" : 0,
					"midpoints" : [  ]
				}

			}
, 			{
				"patchline" : 				{
					"source" : [ "obj-76", 0 ],
					"destination" : [ "obj-74", 0 ],
					"hidden" : 0,
					"midpoints" : [  ]
				}

			}
, 			{
				"patchline" : 				{
					"source" : [ "obj-72", 0 ],
					"destination" : [ "obj-76", 0 ],
					"hidden" : 0,
					"midpoints" : [  ]
				}

			}
, 			{
				"patchline" : 				{
					"source" : [ "obj-77", 0 ],
					"destination" : [ "obj-75", 0 ],
					"hidden" : 0,
					"midpoints" : [  ]
				}

			}
, 			{
				"patchline" : 				{
					"source" : [ "obj-73", 0 ],
					"destination" : [ "obj-77", 0 ],
					"hidden" : 0,
					"midpoints" : [  ]
				}

			}
, 			{
				"patchline" : 				{
					"source" : [ "obj-7", 0 ],
					"destination" : [ "obj-8", 0 ],
					"hidden" : 0,
					"midpoints" : [  ]
				}

			}
, 			{
				"patchline" : 				{
					"source" : [ "obj-36", 3 ],
					"destination" : [ "obj-33", 0 ],
					"hidden" : 0,
					"midpoints" : [ 350.5, 727.0, 396.5, 727.0 ]
				}

			}
, 			{
				"patchline" : 				{
					"source" : [ "obj-108", 0 ],
					"destination" : [ "obj-99", 0 ],
					"hidden" : 0,
					"midpoints" : [  ]
				}

			}
, 			{
				"patchline" : 				{
					"source" : [ "obj-117", 0 ],
					"destination" : [ "obj-108", 0 ],
					"hidden" : 0,
					"midpoints" : [  ]
				}

			}
, 			{
				"patchline" : 				{
					"source" : [ "obj-41", 0 ],
					"destination" : [ "obj-40", 0 ],
					"hidden" : 0,
					"midpoints" : [  ]
				}

			}
, 			{
				"patchline" : 				{
					"source" : [ "obj-41", 0 ],
					"destination" : [ "obj-36", 1 ],
					"hidden" : 0,
					"midpoints" : [  ]
				}

			}
, 			{
				"patchline" : 				{
					"source" : [ "obj-36", 2 ],
					"destination" : [ "obj-34", 0 ],
					"hidden" : 0,
					"midpoints" : [ 339.166656, 727.0, 342.5, 727.0 ]
				}

			}
, 			{
				"patchline" : 				{
					"source" : [ "obj-30", 0 ],
					"destination" : [ "obj-28", 0 ],
					"hidden" : 0,
					"midpoints" : [ 304.5, 673.0, 329.5, 673.0 ]
				}

			}
, 			{
				"patchline" : 				{
					"source" : [ "obj-31", 0 ],
					"destination" : [ "obj-28", 0 ],
					"hidden" : 0,
					"midpoints" : [ 286.5, 673.0, 329.5, 673.0 ]
				}

			}
, 			{
				"patchline" : 				{
					"source" : [ "obj-32", 0 ],
					"destination" : [ "obj-28", 0 ],
					"hidden" : 0,
					"midpoints" : [ 269.5, 673.0, 329.5, 673.0 ]
				}

			}
, 			{
				"patchline" : 				{
					"source" : [ "obj-29", 0 ],
					"destination" : [ "obj-28", 0 ],
					"hidden" : 0,
					"midpoints" : [ 252.5, 673.0, 329.5, 673.0 ]
				}

			}
, 			{
				"patchline" : 				{
					"source" : [ "obj-23", 0 ],
					"destination" : [ "obj-28", 0 ],
					"hidden" : 0,
					"midpoints" : [ 321.5, 673.0, 329.5, 673.0 ]
				}

			}
, 			{
				"patchline" : 				{
					"source" : [ "obj-28", 0 ],
					"destination" : [ "obj-36", 0 ],
					"hidden" : 0,
					"midpoints" : [  ]
				}

			}
, 			{
				"patchline" : 				{
					"source" : [ "obj-36", 1 ],
					"destination" : [ "obj-35", 0 ],
					"hidden" : 0,
					"midpoints" : [ 327.833344, 731.0, 279.5, 731.0 ]
				}

			}
, 			{
				"patchline" : 				{
					"source" : [ "obj-66", 3 ],
					"destination" : [ "obj-46", 0 ],
					"hidden" : 0,
					"midpoints" : [  ]
				}

			}
, 			{
				"patchline" : 				{
					"source" : [ "obj-66", 2 ],
					"destination" : [ "obj-46", 0 ],
					"hidden" : 0,
					"midpoints" : [  ]
				}

			}
, 			{
				"patchline" : 				{
					"source" : [ "obj-66", 1 ],
					"destination" : [ "obj-46", 0 ],
					"hidden" : 0,
					"midpoints" : [  ]
				}

			}
, 			{
				"patchline" : 				{
					"source" : [ "obj-66", 2 ],
					"destination" : [ "obj-49", 0 ],
					"hidden" : 0,
					"midpoints" : [  ]
				}

			}
, 			{
				"patchline" : 				{
					"source" : [ "obj-66", 0 ],
					"destination" : [ "obj-49", 0 ],
					"hidden" : 0,
					"midpoints" : [  ]
				}

			}
, 			{
				"patchline" : 				{
					"source" : [ "obj-66", 3 ],
					"destination" : [ "obj-49", 0 ],
					"hidden" : 0,
					"midpoints" : [  ]
				}

			}
, 			{
				"patchline" : 				{
					"source" : [ "obj-66", 1 ],
					"destination" : [ "obj-49", 0 ],
					"hidden" : 0,
					"midpoints" : [  ]
				}

			}
, 			{
				"patchline" : 				{
					"source" : [ "obj-36", 0 ],
					"destination" : [ "obj-22", 0 ],
					"hidden" : 0,
					"midpoints" : [ 316.5, 727.0, 174.5, 727.0 ]
				}

			}
, 			{
				"patchline" : 				{
					"source" : [ "obj-50", 0 ],
					"destination" : [ "obj-66", 0 ],
					"hidden" : 0,
					"midpoints" : [  ]
				}

			}
, 			{
				"patchline" : 				{
					"source" : [ "obj-54", 0 ],
					"destination" : [ "obj-27", 0 ],
					"hidden" : 0,
					"midpoints" : [  ]
				}

			}
, 			{
				"patchline" : 				{
					"source" : [ "obj-85", 0 ],
					"destination" : [ "obj-83", 0 ],
					"hidden" : 0,
					"midpoints" : [  ]
				}

			}
, 			{
				"patchline" : 				{
					"source" : [ "obj-123", 0 ],
					"destination" : [ "obj-114", 0 ],
					"hidden" : 0,
					"midpoints" : [  ]
				}

			}
, 			{
				"patchline" : 				{
					"source" : [ "obj-124", 0 ],
					"destination" : [ "obj-115", 0 ],
					"hidden" : 0,
					"midpoints" : [  ]
				}

			}
, 			{
				"patchline" : 				{
					"source" : [ "obj-115", 0 ],
					"destination" : [ "obj-106", 0 ],
					"hidden" : 0,
					"midpoints" : [  ]
				}

			}
, 			{
				"patchline" : 				{
					"source" : [ "obj-114", 0 ],
					"destination" : [ "obj-105", 0 ],
					"hidden" : 0,
					"midpoints" : [  ]
				}

			}
, 			{
				"patchline" : 				{
					"source" : [ "obj-153", 0 ],
					"destination" : [ "obj-152", 0 ],
					"hidden" : 0,
					"midpoints" : [  ]
				}

			}
, 			{
				"patchline" : 				{
					"source" : [ "obj-154", 0 ],
					"destination" : [ "obj-155", 0 ],
					"hidden" : 0,
					"midpoints" : [  ]
				}

			}
, 			{
				"patchline" : 				{
					"source" : [ "obj-120", 0 ],
					"destination" : [ "obj-112", 0 ],
					"hidden" : 0,
					"midpoints" : [  ]
				}

			}
, 			{
				"patchline" : 				{
					"source" : [ "obj-112", 0 ],
					"destination" : [ "obj-102", 0 ],
					"hidden" : 0,
					"midpoints" : [  ]
				}

			}
, 			{
				"patchline" : 				{
					"source" : [ "obj-88", 0 ],
					"destination" : [ "obj-140", 0 ],
					"hidden" : 0,
					"midpoints" : [  ]
				}

			}
, 			{
				"patchline" : 				{
					"source" : [ "obj-143", 0 ],
					"destination" : [ "obj-141", 0 ],
					"hidden" : 0,
					"midpoints" : [  ]
				}

			}
, 			{
				"patchline" : 				{
					"source" : [ "obj-7", 0 ],
					"destination" : [ "obj-143", 0 ],
					"hidden" : 0,
					"midpoints" : [  ]
				}

			}
, 			{
				"patchline" : 				{
					"source" : [ "obj-144", 0 ],
					"destination" : [ "obj-148", 0 ],
					"hidden" : 0,
					"midpoints" : [  ]
				}

			}
 ]
	}

}
