{
	"patcher" : 	{
		"fileversion" : 1,
		"rect" : [ 378.0, 126.0, 400.0, 326.0 ],
		"bglocked" : 0,
		"defrect" : [ 378.0, 126.0, 400.0, 326.0 ],
		"openrect" : [ 0.0, 0.0, 0.0, 0.0 ],
		"openinpresentation" : 0,
		"default_fontsize" : 12.0,
		"default_fontface" : 0,
		"default_fontname" : "Arial",
		"gridonopen" : 0,
		"gridsize" : [ 12.0, 12.0 ],
		"gridsnaponopen" : 0,
		"toolbarvisible" : 1,
		"boxanimatetime" : 200,
		"imprint" : 0,
		"enablehscroll" : 1,
		"enablevscroll" : 1,
		"devicewidth" : 0.0,
		"boxes" : [ 			{
				"box" : 				{
					"maxclass" : "outlet",
					"numoutlets" : 0,
					"numinlets" : 1,
					"patching_rect" : [ 195.0, 243.0, 15.0, 15.0 ],
					"id" : "obj-1",
					"comment" : ""
				}

			}
, 			{
				"box" : 				{
					"maxclass" : "inlet",
					"numoutlets" : 1,
					"outlettype" : [ "" ],
					"numinlets" : 0,
					"patching_rect" : [ 193.0, 108.0, 15.0, 15.0 ],
					"id" : "obj-2",
					"comment" : ""
				}

			}
, 			{
				"box" : 				{
					"maxclass" : "newobj",
					"text" : "delay 30",
					"numoutlets" : 1,
					"outlettype" : [ "bang" ],
					"fontsize" : 9.0,
					"numinlets" : 2,
					"patching_rect" : [ 243.0, 211.0, 48.0, 17.0 ],
					"id" : "obj-3",
					"fontname" : "Arial"
				}

			}
, 			{
				"box" : 				{
					"maxclass" : "button",
					"numoutlets" : 1,
					"outlettype" : [ "bang" ],
					"numinlets" : 1,
					"patching_rect" : [ 177.0, 163.0, 15.0, 15.0 ],
					"id" : "obj-4"
				}

			}
, 			{
				"box" : 				{
					"maxclass" : "number",
					"numoutlets" : 2,
					"outlettype" : [ "int", "bang" ],
					"triscale" : 0.9,
					"fontsize" : 9.0,
					"bgcolor" : [ 0.866667, 0.866667, 0.866667, 1.0 ],
					"htextcolor" : [ 0.870588, 0.870588, 0.870588, 1.0 ],
					"numinlets" : 1,
					"patching_rect" : [ 218.0, 237.0, 35.0, 17.0 ],
					"id" : "obj-5",
					"fontname" : "Arial"
				}

			}
, 			{
				"box" : 				{
					"maxclass" : "slider",
					"numoutlets" : 1,
					"orientation" : 2,
					"outlettype" : [ "" ],
					"numinlets" : 1,
					"patching_rect" : [ 236.0, 36.0, 18.0, 144.0 ],
					"id" : "obj-6"
				}

			}
, 			{
				"box" : 				{
					"maxclass" : "newobj",
					"text" : "int",
					"numoutlets" : 1,
					"outlettype" : [ "int" ],
					"fontsize" : 9.0,
					"numinlets" : 2,
					"patching_rect" : [ 207.0, 212.0, 27.0, 17.0 ],
					"id" : "obj-7",
					"fontname" : "Arial"
				}

			}
 ],
		"lines" : [ 			{
				"patchline" : 				{
					"source" : [ "obj-2", 0 ],
					"destination" : [ "obj-3", 0 ],
					"hidden" : 0,
					"midpoints" : [  ]
				}

			}
, 			{
				"patchline" : 				{
					"source" : [ "obj-6", 0 ],
					"destination" : [ "obj-3", 0 ],
					"hidden" : 0,
					"midpoints" : [  ]
				}

			}
, 			{
				"patchline" : 				{
					"source" : [ "obj-2", 0 ],
					"destination" : [ "obj-7", 1 ],
					"hidden" : 0,
					"midpoints" : [  ]
				}

			}
, 			{
				"patchline" : 				{
					"source" : [ "obj-6", 0 ],
					"destination" : [ "obj-7", 1 ],
					"hidden" : 0,
					"midpoints" : [  ]
				}

			}
, 			{
				"patchline" : 				{
					"source" : [ "obj-7", 0 ],
					"destination" : [ "obj-5", 0 ],
					"hidden" : 0,
					"midpoints" : [  ]
				}

			}
, 			{
				"patchline" : 				{
					"source" : [ "obj-4", 0 ],
					"destination" : [ "obj-7", 0 ],
					"hidden" : 0,
					"midpoints" : [  ]
				}

			}
, 			{
				"patchline" : 				{
					"source" : [ "obj-3", 0 ],
					"destination" : [ "obj-7", 0 ],
					"hidden" : 0,
					"midpoints" : [ 252.5, 233.0, 190.0, 233.0, 190.0, 206.0, 216.5, 206.0 ]
				}

			}
, 			{
				"patchline" : 				{
					"source" : [ "obj-7", 0 ],
					"destination" : [ "obj-1", 0 ],
					"hidden" : 0,
					"midpoints" : [  ]
				}

			}
 ]
	}

}
